#N struct template7 float x;
#N canvas 52 20 1300 665 12;
#X obj 4 74 sponges;
#X obj 5 361 s~ out1;
#X obj 1437 18 r~ out1;
#X obj 1492 18 r~ out2;
#X obj 1548 19 r~ out3;
#X obj 1501 73 /~ 3;
#X obj 1473 126 output~;
#X obj 1220 23 cnv 20 200 100 empty empty empty 20 12 0 12 #e3c6ff #404040 0;
#X obj 1249 62 bng 40 250 50 0 REC empty MASTER\ REC -10 -10 0 12 #ffc7c6 #000000 #000000;
#X obj 1331 61 bng 40 250 50 0 FINISH empty MASTER\ FINISH -10 -10 0 12 #ffe3c6 #000000 #000000;
#X text 1493 253 global scaler;
#X text 1500 272 master start;
#X text 1507 292 master stop;
#X text 1501 313 master reset;
#X text 1387 595 adicionar swing individual;
#X obj 1220 128 cnv 20 100 460 empty empty Presets 20 12 0 12 #000000 #ffffff 0;
#X obj 1240 169 bng 20 250 50 0 \$0_save_pres1 empty Save 0 -10 0 12 #ffc7c6 #000000 #ffffff;
#X obj 1278 170 bng 20 250 50 0 \$0_load_pres1 empty Load 0 -10 0 12 #feffc6 #000000 #ffffff;
#X obj 1239 213 bng 20 250 50 0 \$0_save_pres2 empty Save 0 -10 0 12 #ffc7c6 #000000 #ffffff;
#X obj 1277 214 bng 20 250 50 0 \$0_load_pres2 empty Load 0 -10 0 12 #feffc6 #000000 #ffffff;
#X obj 1239 260 bng 20 250 50 0 \$0_save_pres3 empty Save 0 -10 0 12 #ffc7c6 #000000 #ffffff;
#X obj 1277 261 bng 20 250 50 0 \$0_load_pres3 empty Load 0 -10 0 12 #feffc6 #000000 #ffffff;
#X obj 1237 301 bng 20 250 50 0 \$0_save_pres4 empty Save 0 -10 0 12 #ffc7c6 #000000 #ffffff;
#X obj 1275 302 bng 20 250 50 0 \$0_load_pres4 empty Load 0 -10 0 12 #feffc6 #000000 #ffffff;
#X obj 1238 345 bng 20 250 50 0 \$0_save_pres5 empty Save 0 -10 0 12 #ffc7c6 #000000 #ffffff;
#X obj 1276 346 bng 20 250 50 0 \$0_load_pres5 empty Load 0 -10 0 12 #feffc6 #000000 #ffffff;
#X obj 1237 388 bng 20 250 50 0 \$0_save_pres6 empty Save 0 -10 0 12 #ffc7c6 #000000 #ffffff;
#X obj 1275 389 bng 20 250 50 0 \$0_load_pres6 empty Load 0 -10 0 12 #feffc6 #000000 #ffffff;
#X obj 1239 429 bng 20 250 50 0 \$0_save_pres7 empty Save 0 -10 0 12 #ffc7c6 #000000 #ffffff;
#X obj 1277 430 bng 20 250 50 0 \$0_load_pres7 empty Load 0 -10 0 12 #feffc6 #000000 #ffffff;
#X obj 1237 470 bng 20 250 50 0 \$0_save_pres8 empty Save 0 -10 0 12 #ffc7c6 #000000 #ffffff;
#X obj 1275 471 bng 20 250 50 0 \$0_load_pres8 empty Load 0 -10 0 12 #feffc6 #000000 #ffffff;
#X obj 1238 514 bng 20 250 50 0 \$0_save_pres9 empty Save 0 -10 0 12 #ffc7c6 #000000 #ffffff;
#X obj 1276 515 bng 20 250 50 0 \$0_load_pres9 empty Load 0 -10 0 12 #feffc6 #000000 #ffffff;
#X obj 1237 557 bng 20 250 50 0 \$0_save_pres10 empty Save 0 -10 0 12 #ffc7c6 #000000 #ffffff;
#X obj 1275 558 bng 20 250 50 0 \$0_load_pres10 empty Load 0 -10 0 12 #feffc6 #000000 #ffffff;
#X obj -6 424 sponges;
#X text 1384 622 inicialização vol \, oct \, etc;
#X obj 1320 158 cnv 20 140 430 empty empty empty 20 12 0 12 #ffc7c6 #404040 0;
#X symbolatom 1382 183 10 0 0 0 Preset1 - - 0;
#X symbolatom 1382 219 10 0 0 0 Preset2 - - 0;
#X symbolatom 1382 264 10 0 0 0 Preset3 - - 0;
#X symbolatom 1382 300 10 0 0 0 Preset4 - - 0;
#X symbolatom 1383 346 10 0 0 0 Preset5 - - 0;
#X symbolatom 1383 382 10 0 0 0 Preset6 - - 0;
#X symbolatom 1382 432 10 0 0 0 Preset7 - - 0;
#X symbolatom 1382 468 10 0 0 0 Preset8 - - 0;
#X symbolatom 1384 523 10 0 0 0 Preset9 - - 0;
#X symbolatom 1384 559 10 0 0 0 Preset10 - - 0;
#X obj 10 788 sponges;
#X obj -1 1151 sponges;
#X obj 4 1518 sponges;
#X obj 11 1916 sponges;
#X obj 12 2292 sponges;
#X obj 14 2647 sponges;
#N canvas 66 261 1284 473 preset_receiver 0;
#X obj 404 90 t b b, f 6;
#X obj 406 166 outlet;
#X msg 445 129 0;
#X obj 480 170 outlet;
#X obj 404 54 bng 20 250 50 0 empty \$0_save_pres1 Save 0 -10 0 12 #ffc7c6 #000000 #ffffff;
#X obj 487 54 bng 20 250 50 0 empty \$0_save_pres2 Save 0 -10 0 12 #ffc7c6 #000000 #ffffff;
#X obj 563 55 bng 20 250 50 0 empty \$0_save_pres3 Save 0 -10 0 12 #ffc7c6 #000000 #ffffff;
#X obj 648 55 bng 20 250 50 0 empty \$0_save_pres4 Save 0 -10 0 12 #ffc7c6 #000000 #ffffff;
#X obj 726 56 bng 20 250 50 0 empty \$0_save_pres5 Save 0 -10 0 12 #ffc7c6 #000000 #ffffff;
#X obj 807 56 bng 20 250 50 0 empty \$0_save_pres6 Save 0 -10 0 12 #ffc7c6 #000000 #ffffff;
#X obj 884 56 bng 20 250 50 0 empty \$0_save_pres7 Save 0 -10 0 12 #ffc7c6 #000000 #ffffff;
#X obj 965 55 bng 20 250 50 0 empty \$0_save_pres8 Save 0 -10 0 12 #ffc7c6 #000000 #ffffff;
#X obj 1025 56 bng 20 250 50 0 empty \$0_save_pres9 Save 0 -10 0 12 #ffc7c6 #000000 #ffffff;
#X obj 1102 56 bng 20 250 50 0 empty \$0_save_pres10 Save 0 -10 0 12 #ffc7c6 #000000 #ffffff;
#X obj 491 92 t b b, f 6;
#X msg 532 131 1;
#X obj 572 90 t b b, f 6;
#X obj 659 102 t b b, f 6;
#X obj 732 95 t b b, f 6;
#X obj 803 101 t b b, f 6;
#X obj 881 101 t b b, f 6;
#X obj 962 104 t b b, f 6;
#X obj 1034 103 t b b, f 6;
#X obj 1103 101 t b b, f 6;
#X msg 613 129 2;
#X msg 700 141 3;
#X msg 782 134 4;
#X msg 844 140 5;
#X msg 933 135 6;
#X msg 1009 137 7;
#X msg 1075 142 8;
#X msg 1144 140 9;
#X obj 130 251 bng 20 250 50 0 empty \$0_load_pres1 empty 0 -10 0 12 #ffe3c6 #000000 #000000;
#X obj 130 278 t b b;
#X obj 131 332 outlet;
#X msg 191 298 0;
#X obj 255 251 bng 20 250 50 0 empty \$0_load_pres2 empty 0 -10 0 12 #ffe3c6 #000000 #000000;
#X obj 255 278 t b b;
#X obj 392 257 bng 20 250 50 0 empty \$0_load_pres3 empty 0 -10 0 12 #ffe3c6 #000000 #000000;
#X obj 392 284 t b b;
#X obj 517 257 bng 20 250 50 0 empty \$0_load_pres4 empty 0 -10 0 12 #ffe3c6 #000000 #000000;
#X obj 517 284 t b b;
#X obj 632 255 bng 20 250 50 0 empty \$0_load_pres5 empty 0 -10 0 12 #ffe3c6 #000000 #000000;
#X obj 632 282 t b b;
#X obj 769 261 bng 20 250 50 0 empty \$0_load_pres6 empty 0 -10 0 12 #ffe3c6 #000000 #000000;
#X obj 769 288 t b b;
#X obj 894 261 bng 20 250 50 0 empty \$0_load_pres7 empty 0 -10 0 12 #ffe3c6 #000000 #000000;
#X obj 894 288 t b b;
#X obj 987 250 bng 20 250 50 0 empty \$0_load_pres8 empty 0 -10 0 12 #ffe3c6 #000000 #000000;
#X obj 987 277 t b b;
#X obj 1124 256 bng 20 250 50 0 empty \$0_load_pres9 empty 0 -10 0 12 #ffe3c6 #000000 #000000;
#X obj 1124 283 t b b;
#X obj 1249 256 bng 20 250 50 0 empty \$0_load_pres10 empty 0 -10 0 12 #ffe3c6 #000000 #000000;
#X obj 1249 283 t b b;
#X msg 334 298 1;
#X msg 471 304 2;
#X msg 596 304 3;
#X msg 711 302 4;
#X msg 848 308 5;
#X msg 973 308 6;
#X msg 1066 297 7;
#X msg 1203 303 8;
#X msg 1328 303 9;
#X obj 612 392 outlet;
#X obj 612 360 loadbang;
#X connect 0 0 1 0;
#X connect 0 1 2 0;
#X connect 2 0 3 0;
#X connect 4 0 0 0;
#X connect 5 0 14 0;
#X connect 6 0 16 0;
#X connect 7 0 17 0;
#X connect 8 0 18 0;
#X connect 9 0 19 0;
#X connect 10 0 20 0;
#X connect 11 0 21 0;
#X connect 12 0 22 0;
#X connect 13 0 23 0;
#X connect 14 0 1 0;
#X connect 14 1 15 0;
#X connect 15 0 3 0;
#X connect 16 0 1 0;
#X connect 16 1 24 0;
#X connect 17 0 1 0;
#X connect 17 1 25 0;
#X connect 18 0 1 0;
#X connect 18 1 26 0;
#X connect 19 0 1 0;
#X connect 19 1 27 0;
#X connect 20 0 1 0;
#X connect 20 1 28 0;
#X connect 21 0 1 0;
#X connect 21 1 29 0;
#X connect 22 0 1 0;
#X connect 22 1 30 0;
#X connect 23 0 1 0;
#X connect 23 1 31 0;
#X connect 24 0 3 0;
#X connect 25 0 3 0;
#X connect 26 0 3 0;
#X connect 27 0 3 0;
#X connect 28 0 3 0;
#X connect 29 0 3 0;
#X connect 30 0 3 0;
#X connect 31 0 3 0;
#X connect 32 0 33 0;
#X connect 33 0 34 0;
#X connect 33 1 35 0;
#X connect 35 0 3 0;
#X connect 36 0 37 0;
#X connect 37 0 34 0;
#X connect 37 1 54 0;
#X connect 38 0 39 0;
#X connect 39 0 34 0;
#X connect 39 1 55 0;
#X connect 40 0 41 0;
#X connect 41 0 34 0;
#X connect 41 1 56 0;
#X connect 42 0 43 0;
#X connect 43 0 34 0;
#X connect 43 1 57 0;
#X connect 44 0 45 0;
#X connect 45 0 34 0;
#X connect 45 1 58 0;
#X connect 46 0 47 0;
#X connect 47 0 34 0;
#X connect 47 1 59 0;
#X connect 48 0 49 0;
#X connect 49 0 34 0;
#X connect 49 1 60 0;
#X connect 50 0 51 0;
#X connect 51 0 34 0;
#X connect 51 1 61 0;
#X connect 52 0 53 0;
#X connect 53 0 34 0;
#X connect 53 1 62 0;
#X connect 54 0 3 0;
#X connect 55 0 3 0;
#X connect 56 0 3 0;
#X connect 57 0 3 0;
#X connect 58 0 3 0;
#X connect 59 0 3 0;
#X connect 60 0 3 0;
#X connect 61 0 3 0;
#X connect 62 0 3 0;
#X connect 64 0 63 0;
#X restore 795 6 pd preset_receiver;
#X floatatom 1139 36 5 0 0 0 - - - 0;
#X msg 898 39 0;
#N canvas 66 261 1284 473 preset_receiver 0;
#X obj 404 90 t b b, f 6;
#X obj 406 166 outlet;
#X msg 445 129 0;
#X obj 480 170 outlet;
#X obj 404 54 bng 20 250 50 0 empty \$0_save_pres1 Save 0 -10 0 12 #ffc7c6 #000000 #ffffff;
#X obj 487 54 bng 20 250 50 0 empty \$0_save_pres2 Save 0 -10 0 12 #ffc7c6 #000000 #ffffff;
#X obj 563 55 bng 20 250 50 0 empty \$0_save_pres3 Save 0 -10 0 12 #ffc7c6 #000000 #ffffff;
#X obj 648 55 bng 20 250 50 0 empty \$0_save_pres4 Save 0 -10 0 12 #ffc7c6 #000000 #ffffff;
#X obj 726 56 bng 20 250 50 0 empty \$0_save_pres5 Save 0 -10 0 12 #ffc7c6 #000000 #ffffff;
#X obj 807 56 bng 20 250 50 0 empty \$0_save_pres6 Save 0 -10 0 12 #ffc7c6 #000000 #ffffff;
#X obj 884 56 bng 20 250 50 0 empty \$0_save_pres7 Save 0 -10 0 12 #ffc7c6 #000000 #ffffff;
#X obj 965 55 bng 20 250 50 0 empty \$0_save_pres8 Save 0 -10 0 12 #ffc7c6 #000000 #ffffff;
#X obj 1025 56 bng 20 250 50 0 empty \$0_save_pres9 Save 0 -10 0 12 #ffc7c6 #000000 #ffffff;
#X obj 1102 56 bng 20 250 50 0 empty \$0_save_pres10 Save 0 -10 0 12 #ffc7c6 #000000 #ffffff;
#X obj 491 92 t b b, f 6;
#X msg 532 131 1;
#X obj 572 90 t b b, f 6;
#X obj 659 102 t b b, f 6;
#X obj 732 95 t b b, f 6;
#X obj 803 101 t b b, f 6;
#X obj 881 101 t b b, f 6;
#X obj 962 104 t b b, f 6;
#X obj 1034 103 t b b, f 6;
#X obj 1103 101 t b b, f 6;
#X msg 613 129 2;
#X msg 700 141 3;
#X msg 782 134 4;
#X msg 844 140 5;
#X msg 933 135 6;
#X msg 1009 137 7;
#X msg 1075 142 8;
#X msg 1144 140 9;
#X obj 130 251 bng 20 250 50 0 empty \$0_load_pres1 empty 0 -10 0 12 #ffe3c6 #000000 #000000;
#X obj 130 278 t b b;
#X obj 131 332 outlet;
#X msg 191 298 0;
#X obj 255 251 bng 20 250 50 0 empty \$0_load_pres2 empty 0 -10 0 12 #ffe3c6 #000000 #000000;
#X obj 255 278 t b b;
#X obj 392 257 bng 20 250 50 0 empty \$0_load_pres3 empty 0 -10 0 12 #ffe3c6 #000000 #000000;
#X obj 392 284 t b b;
#X obj 517 257 bng 20 250 50 0 empty \$0_load_pres4 empty 0 -10 0 12 #ffe3c6 #000000 #000000;
#X obj 517 284 t b b;
#X obj 632 255 bng 20 250 50 0 empty \$0_load_pres5 empty 0 -10 0 12 #ffe3c6 #000000 #000000;
#X obj 632 282 t b b;
#X obj 769 261 bng 20 250 50 0 empty \$0_load_pres6 empty 0 -10 0 12 #ffe3c6 #000000 #000000;
#X obj 769 288 t b b;
#X obj 894 261 bng 20 250 50 0 empty \$0_load_pres7 empty 0 -10 0 12 #ffe3c6 #000000 #000000;
#X obj 894 288 t b b;
#X obj 987 250 bng 20 250 50 0 empty \$0_load_pres8 empty 0 -10 0 12 #ffe3c6 #000000 #000000;
#X obj 987 277 t b b;
#X obj 1124 256 bng 20 250 50 0 empty \$0_load_pres9 empty 0 -10 0 12 #ffe3c6 #000000 #000000;
#X obj 1124 283 t b b;
#X obj 1249 256 bng 20 250 50 0 empty \$0_load_pres10 empty 0 -10 0 12 #ffe3c6 #000000 #000000;
#X obj 1249 283 t b b;
#X msg 334 298 1;
#X msg 471 304 2;
#X msg 596 304 3;
#X msg 711 302 4;
#X msg 848 308 5;
#X msg 973 308 6;
#X msg 1066 297 7;
#X msg 1203 303 8;
#X msg 1328 303 9;
#X obj 612 392 outlet;
#X obj 612 360 loadbang;
#X connect 0 0 1 0;
#X connect 0 1 2 0;
#X connect 2 0 3 0;
#X connect 4 0 0 0;
#X connect 5 0 14 0;
#X connect 6 0 16 0;
#X connect 7 0 17 0;
#X connect 8 0 18 0;
#X connect 9 0 19 0;
#X connect 10 0 20 0;
#X connect 11 0 21 0;
#X connect 12 0 22 0;
#X connect 13 0 23 0;
#X connect 14 0 1 0;
#X connect 14 1 15 0;
#X connect 15 0 3 0;
#X connect 16 0 1 0;
#X connect 16 1 24 0;
#X connect 17 0 1 0;
#X connect 17 1 25 0;
#X connect 18 0 1 0;
#X connect 18 1 26 0;
#X connect 19 0 1 0;
#X connect 19 1 27 0;
#X connect 20 0 1 0;
#X connect 20 1 28 0;
#X connect 21 0 1 0;
#X connect 21 1 29 0;
#X connect 22 0 1 0;
#X connect 22 1 30 0;
#X connect 23 0 1 0;
#X connect 23 1 31 0;
#X connect 24 0 3 0;
#X connect 25 0 3 0;
#X connect 26 0 3 0;
#X connect 27 0 3 0;
#X connect 28 0 3 0;
#X connect 29 0 3 0;
#X connect 30 0 3 0;
#X connect 31 0 3 0;
#X connect 32 0 33 0;
#X connect 33 0 34 0;
#X connect 33 1 35 0;
#X connect 35 0 3 0;
#X connect 36 0 37 0;
#X connect 37 0 34 0;
#X connect 37 1 54 0;
#X connect 38 0 39 0;
#X connect 39 0 34 0;
#X connect 39 1 55 0;
#X connect 40 0 41 0;
#X connect 41 0 34 0;
#X connect 41 1 56 0;
#X connect 42 0 43 0;
#X connect 43 0 34 0;
#X connect 43 1 57 0;
#X connect 44 0 45 0;
#X connect 45 0 34 0;
#X connect 45 1 58 0;
#X connect 46 0 47 0;
#X connect 47 0 34 0;
#X connect 47 1 59 0;
#X connect 48 0 49 0;
#X connect 49 0 34 0;
#X connect 49 1 60 0;
#X connect 50 0 51 0;
#X connect 51 0 34 0;
#X connect 51 1 61 0;
#X connect 52 0 53 0;
#X connect 53 0 34 0;
#X connect 53 1 62 0;
#X connect 54 0 3 0;
#X connect 55 0 3 0;
#X connect 56 0 3 0;
#X connect 57 0 3 0;
#X connect 58 0 3 0;
#X connect 59 0 3 0;
#X connect 60 0 3 0;
#X connect 61 0 3 0;
#X connect 62 0 3 0;
#X connect 64 0 63 0;
#X restore 646 360 pd preset_receiver;
#X floatatom 990 390 5 0 0 0 - - - 0;
#X msg 749 393 1;
#N canvas 66 261 1284 473 preset_receiver 0;
#X obj 404 90 t b b, f 6;
#X obj 406 166 outlet;
#X msg 445 129 0;
#X obj 480 170 outlet;
#X obj 404 54 bng 20 250 50 0 empty \$0_save_pres1 Save 0 -10 0 12 #ffc7c6 #000000 #ffffff;
#X obj 487 54 bng 20 250 50 0 empty \$0_save_pres2 Save 0 -10 0 12 #ffc7c6 #000000 #ffffff;
#X obj 563 55 bng 20 250 50 0 empty \$0_save_pres3 Save 0 -10 0 12 #ffc7c6 #000000 #ffffff;
#X obj 648 55 bng 20 250 50 0 empty \$0_save_pres4 Save 0 -10 0 12 #ffc7c6 #000000 #ffffff;
#X obj 726 56 bng 20 250 50 0 empty \$0_save_pres5 Save 0 -10 0 12 #ffc7c6 #000000 #ffffff;
#X obj 807 56 bng 20 250 50 0 empty \$0_save_pres6 Save 0 -10 0 12 #ffc7c6 #000000 #ffffff;
#X obj 884 56 bng 20 250 50 0 empty \$0_save_pres7 Save 0 -10 0 12 #ffc7c6 #000000 #ffffff;
#X obj 965 55 bng 20 250 50 0 empty \$0_save_pres8 Save 0 -10 0 12 #ffc7c6 #000000 #ffffff;
#X obj 1025 56 bng 20 250 50 0 empty \$0_save_pres9 Save 0 -10 0 12 #ffc7c6 #000000 #ffffff;
#X obj 1102 56 bng 20 250 50 0 empty \$0_save_pres10 Save 0 -10 0 12 #ffc7c6 #000000 #ffffff;
#X obj 491 92 t b b, f 6;
#X msg 532 131 1;
#X obj 572 90 t b b, f 6;
#X obj 659 102 t b b, f 6;
#X obj 732 95 t b b, f 6;
#X obj 803 101 t b b, f 6;
#X obj 881 101 t b b, f 6;
#X obj 962 104 t b b, f 6;
#X obj 1034 103 t b b, f 6;
#X obj 1103 101 t b b, f 6;
#X msg 613 129 2;
#X msg 700 141 3;
#X msg 782 134 4;
#X msg 844 140 5;
#X msg 933 135 6;
#X msg 1009 137 7;
#X msg 1075 142 8;
#X msg 1144 140 9;
#X obj 130 251 bng 20 250 50 0 empty \$0_load_pres1 empty 0 -10 0 12 #ffe3c6 #000000 #000000;
#X obj 130 278 t b b;
#X obj 131 332 outlet;
#X msg 191 298 0;
#X obj 255 251 bng 20 250 50 0 empty \$0_load_pres2 empty 0 -10 0 12 #ffe3c6 #000000 #000000;
#X obj 255 278 t b b;
#X obj 392 257 bng 20 250 50 0 empty \$0_load_pres3 empty 0 -10 0 12 #ffe3c6 #000000 #000000;
#X obj 392 284 t b b;
#X obj 517 257 bng 20 250 50 0 empty \$0_load_pres4 empty 0 -10 0 12 #ffe3c6 #000000 #000000;
#X obj 517 284 t b b;
#X obj 632 255 bng 20 250 50 0 empty \$0_load_pres5 empty 0 -10 0 12 #ffe3c6 #000000 #000000;
#X obj 632 282 t b b;
#X obj 769 261 bng 20 250 50 0 empty \$0_load_pres6 empty 0 -10 0 12 #ffe3c6 #000000 #000000;
#X obj 769 288 t b b;
#X obj 894 261 bng 20 250 50 0 empty \$0_load_pres7 empty 0 -10 0 12 #ffe3c6 #000000 #000000;
#X obj 894 288 t b b;
#X obj 987 250 bng 20 250 50 0 empty \$0_load_pres8 empty 0 -10 0 12 #ffe3c6 #000000 #000000;
#X obj 987 277 t b b;
#X obj 1124 256 bng 20 250 50 0 empty \$0_load_pres9 empty 0 -10 0 12 #ffe3c6 #000000 #000000;
#X obj 1124 283 t b b;
#X obj 1249 256 bng 20 250 50 0 empty \$0_load_pres10 empty 0 -10 0 12 #ffe3c6 #000000 #000000;
#X obj 1249 283 t b b;
#X msg 334 298 1;
#X msg 471 304 2;
#X msg 596 304 3;
#X msg 711 302 4;
#X msg 848 308 5;
#X msg 973 308 6;
#X msg 1066 297 7;
#X msg 1203 303 8;
#X msg 1328 303 9;
#X obj 612 392 outlet;
#X obj 612 360 loadbang;
#X connect 0 0 1 0;
#X connect 0 1 2 0;
#X connect 2 0 3 0;
#X connect 4 0 0 0;
#X connect 5 0 14 0;
#X connect 6 0 16 0;
#X connect 7 0 17 0;
#X connect 8 0 18 0;
#X connect 9 0 19 0;
#X connect 10 0 20 0;
#X connect 11 0 21 0;
#X connect 12 0 22 0;
#X connect 13 0 23 0;
#X connect 14 0 1 0;
#X connect 14 1 15 0;
#X connect 15 0 3 0;
#X connect 16 0 1 0;
#X connect 16 1 24 0;
#X connect 17 0 1 0;
#X connect 17 1 25 0;
#X connect 18 0 1 0;
#X connect 18 1 26 0;
#X connect 19 0 1 0;
#X connect 19 1 27 0;
#X connect 20 0 1 0;
#X connect 20 1 28 0;
#X connect 21 0 1 0;
#X connect 21 1 29 0;
#X connect 22 0 1 0;
#X connect 22 1 30 0;
#X connect 23 0 1 0;
#X connect 23 1 31 0;
#X connect 24 0 3 0;
#X connect 25 0 3 0;
#X connect 26 0 3 0;
#X connect 27 0 3 0;
#X connect 28 0 3 0;
#X connect 29 0 3 0;
#X connect 30 0 3 0;
#X connect 31 0 3 0;
#X connect 32 0 33 0;
#X connect 33 0 34 0;
#X connect 33 1 35 0;
#X connect 35 0 3 0;
#X connect 36 0 37 0;
#X connect 37 0 34 0;
#X connect 37 1 54 0;
#X connect 38 0 39 0;
#X connect 39 0 34 0;
#X connect 39 1 55 0;
#X connect 40 0 41 0;
#X connect 41 0 34 0;
#X connect 41 1 56 0;
#X connect 42 0 43 0;
#X connect 43 0 34 0;
#X connect 43 1 57 0;
#X connect 44 0 45 0;
#X connect 45 0 34 0;
#X connect 45 1 58 0;
#X connect 46 0 47 0;
#X connect 47 0 34 0;
#X connect 47 1 59 0;
#X connect 48 0 49 0;
#X connect 49 0 34 0;
#X connect 49 1 60 0;
#X connect 50 0 51 0;
#X connect 51 0 34 0;
#X connect 51 1 61 0;
#X connect 52 0 53 0;
#X connect 53 0 34 0;
#X connect 53 1 62 0;
#X connect 54 0 3 0;
#X connect 55 0 3 0;
#X connect 56 0 3 0;
#X connect 57 0 3 0;
#X connect 58 0 3 0;
#X connect 59 0 3 0;
#X connect 60 0 3 0;
#X connect 61 0 3 0;
#X connect 62 0 3 0;
#X connect 64 0 63 0;
#X restore 682 714 pd preset_receiver;
#X floatatom 1026 744 5 0 0 0 - - - 0;
#X msg 785 747 2;
#N canvas 66 261 1284 473 preset_receiver 0;
#X obj 404 90 t b b, f 6;
#X obj 406 166 outlet;
#X msg 445 129 0;
#X obj 480 170 outlet;
#X obj 404 54 bng 20 250 50 0 empty \$0_save_pres1 Save 0 -10 0 12 #ffc7c6 #000000 #ffffff;
#X obj 487 54 bng 20 250 50 0 empty \$0_save_pres2 Save 0 -10 0 12 #ffc7c6 #000000 #ffffff;
#X obj 563 55 bng 20 250 50 0 empty \$0_save_pres3 Save 0 -10 0 12 #ffc7c6 #000000 #ffffff;
#X obj 648 55 bng 20 250 50 0 empty \$0_save_pres4 Save 0 -10 0 12 #ffc7c6 #000000 #ffffff;
#X obj 726 56 bng 20 250 50 0 empty \$0_save_pres5 Save 0 -10 0 12 #ffc7c6 #000000 #ffffff;
#X obj 807 56 bng 20 250 50 0 empty \$0_save_pres6 Save 0 -10 0 12 #ffc7c6 #000000 #ffffff;
#X obj 884 56 bng 20 250 50 0 empty \$0_save_pres7 Save 0 -10 0 12 #ffc7c6 #000000 #ffffff;
#X obj 965 55 bng 20 250 50 0 empty \$0_save_pres8 Save 0 -10 0 12 #ffc7c6 #000000 #ffffff;
#X obj 1025 56 bng 20 250 50 0 empty \$0_save_pres9 Save 0 -10 0 12 #ffc7c6 #000000 #ffffff;
#X obj 1102 56 bng 20 250 50 0 empty \$0_save_pres10 Save 0 -10 0 12 #ffc7c6 #000000 #ffffff;
#X obj 491 92 t b b, f 6;
#X msg 532 131 1;
#X obj 572 90 t b b, f 6;
#X obj 659 102 t b b, f 6;
#X obj 732 95 t b b, f 6;
#X obj 803 101 t b b, f 6;
#X obj 881 101 t b b, f 6;
#X obj 962 104 t b b, f 6;
#X obj 1034 103 t b b, f 6;
#X obj 1103 101 t b b, f 6;
#X msg 613 129 2;
#X msg 700 141 3;
#X msg 782 134 4;
#X msg 844 140 5;
#X msg 933 135 6;
#X msg 1009 137 7;
#X msg 1075 142 8;
#X msg 1144 140 9;
#X obj 130 251 bng 20 250 50 0 empty \$0_load_pres1 empty 0 -10 0 12 #ffe3c6 #000000 #000000;
#X obj 130 278 t b b;
#X obj 131 332 outlet;
#X msg 191 298 0;
#X obj 255 251 bng 20 250 50 0 empty \$0_load_pres2 empty 0 -10 0 12 #ffe3c6 #000000 #000000;
#X obj 255 278 t b b;
#X obj 392 257 bng 20 250 50 0 empty \$0_load_pres3 empty 0 -10 0 12 #ffe3c6 #000000 #000000;
#X obj 392 284 t b b;
#X obj 517 257 bng 20 250 50 0 empty \$0_load_pres4 empty 0 -10 0 12 #ffe3c6 #000000 #000000;
#X obj 517 284 t b b;
#X obj 632 255 bng 20 250 50 0 empty \$0_load_pres5 empty 0 -10 0 12 #ffe3c6 #000000 #000000;
#X obj 632 282 t b b;
#X obj 769 261 bng 20 250 50 0 empty \$0_load_pres6 empty 0 -10 0 12 #ffe3c6 #000000 #000000;
#X obj 769 288 t b b;
#X obj 894 261 bng 20 250 50 0 empty \$0_load_pres7 empty 0 -10 0 12 #ffe3c6 #000000 #000000;
#X obj 894 288 t b b;
#X obj 987 250 bng 20 250 50 0 empty \$0_load_pres8 empty 0 -10 0 12 #ffe3c6 #000000 #000000;
#X obj 987 277 t b b;
#X obj 1124 256 bng 20 250 50 0 empty \$0_load_pres9 empty 0 -10 0 12 #ffe3c6 #000000 #000000;
#X obj 1124 283 t b b;
#X obj 1249 256 bng 20 250 50 0 empty \$0_load_pres10 empty 0 -10 0 12 #ffe3c6 #000000 #000000;
#X obj 1249 283 t b b;
#X msg 334 298 1;
#X msg 471 304 2;
#X msg 596 304 3;
#X msg 711 302 4;
#X msg 848 308 5;
#X msg 973 308 6;
#X msg 1066 297 7;
#X msg 1203 303 8;
#X msg 1328 303 9;
#X obj 612 392 outlet;
#X obj 612 360 loadbang;
#X connect 0 0 1 0;
#X connect 0 1 2 0;
#X connect 2 0 3 0;
#X connect 4 0 0 0;
#X connect 5 0 14 0;
#X connect 6 0 16 0;
#X connect 7 0 17 0;
#X connect 8 0 18 0;
#X connect 9 0 19 0;
#X connect 10 0 20 0;
#X connect 11 0 21 0;
#X connect 12 0 22 0;
#X connect 13 0 23 0;
#X connect 14 0 1 0;
#X connect 14 1 15 0;
#X connect 15 0 3 0;
#X connect 16 0 1 0;
#X connect 16 1 24 0;
#X connect 17 0 1 0;
#X connect 17 1 25 0;
#X connect 18 0 1 0;
#X connect 18 1 26 0;
#X connect 19 0 1 0;
#X connect 19 1 27 0;
#X connect 20 0 1 0;
#X connect 20 1 28 0;
#X connect 21 0 1 0;
#X connect 21 1 29 0;
#X connect 22 0 1 0;
#X connect 22 1 30 0;
#X connect 23 0 1 0;
#X connect 23 1 31 0;
#X connect 24 0 3 0;
#X connect 25 0 3 0;
#X connect 26 0 3 0;
#X connect 27 0 3 0;
#X connect 28 0 3 0;
#X connect 29 0 3 0;
#X connect 30 0 3 0;
#X connect 31 0 3 0;
#X connect 32 0 33 0;
#X connect 33 0 34 0;
#X connect 33 1 35 0;
#X connect 35 0 3 0;
#X connect 36 0 37 0;
#X connect 37 0 34 0;
#X connect 37 1 54 0;
#X connect 38 0 39 0;
#X connect 39 0 34 0;
#X connect 39 1 55 0;
#X connect 40 0 41 0;
#X connect 41 0 34 0;
#X connect 41 1 56 0;
#X connect 42 0 43 0;
#X connect 43 0 34 0;
#X connect 43 1 57 0;
#X connect 44 0 45 0;
#X connect 45 0 34 0;
#X connect 45 1 58 0;
#X connect 46 0 47 0;
#X connect 47 0 34 0;
#X connect 47 1 59 0;
#X connect 48 0 49 0;
#X connect 49 0 34 0;
#X connect 49 1 60 0;
#X connect 50 0 51 0;
#X connect 51 0 34 0;
#X connect 51 1 61 0;
#X connect 52 0 53 0;
#X connect 53 0 34 0;
#X connect 53 1 62 0;
#X connect 54 0 3 0;
#X connect 55 0 3 0;
#X connect 56 0 3 0;
#X connect 57 0 3 0;
#X connect 58 0 3 0;
#X connect 59 0 3 0;
#X connect 60 0 3 0;
#X connect 61 0 3 0;
#X connect 62 0 3 0;
#X connect 64 0 63 0;
#X restore 669 1077 pd preset_receiver;
#X floatatom 1013 1107 5 0 0 0 - - - 0;
#X msg 772 1110 3;
#N canvas 66 261 1284 473 preset_receiver 0;
#X obj 404 90 t b b, f 6;
#X obj 406 166 outlet;
#X msg 445 129 0;
#X obj 480 170 outlet;
#X obj 404 54 bng 20 250 50 0 empty \$0_save_pres1 Save 0 -10 0 12 #ffc7c6 #000000 #ffffff;
#X obj 487 54 bng 20 250 50 0 empty \$0_save_pres2 Save 0 -10 0 12 #ffc7c6 #000000 #ffffff;
#X obj 563 55 bng 20 250 50 0 empty \$0_save_pres3 Save 0 -10 0 12 #ffc7c6 #000000 #ffffff;
#X obj 648 55 bng 20 250 50 0 empty \$0_save_pres4 Save 0 -10 0 12 #ffc7c6 #000000 #ffffff;
#X obj 726 56 bng 20 250 50 0 empty \$0_save_pres5 Save 0 -10 0 12 #ffc7c6 #000000 #ffffff;
#X obj 807 56 bng 20 250 50 0 empty \$0_save_pres6 Save 0 -10 0 12 #ffc7c6 #000000 #ffffff;
#X obj 884 56 bng 20 250 50 0 empty \$0_save_pres7 Save 0 -10 0 12 #ffc7c6 #000000 #ffffff;
#X obj 965 55 bng 20 250 50 0 empty \$0_save_pres8 Save 0 -10 0 12 #ffc7c6 #000000 #ffffff;
#X obj 1025 56 bng 20 250 50 0 empty \$0_save_pres9 Save 0 -10 0 12 #ffc7c6 #000000 #ffffff;
#X obj 1102 56 bng 20 250 50 0 empty \$0_save_pres10 Save 0 -10 0 12 #ffc7c6 #000000 #ffffff;
#X obj 491 92 t b b, f 6;
#X msg 532 131 1;
#X obj 572 90 t b b, f 6;
#X obj 659 102 t b b, f 6;
#X obj 732 95 t b b, f 6;
#X obj 803 101 t b b, f 6;
#X obj 881 101 t b b, f 6;
#X obj 962 104 t b b, f 6;
#X obj 1034 103 t b b, f 6;
#X obj 1103 101 t b b, f 6;
#X msg 613 129 2;
#X msg 700 141 3;
#X msg 782 134 4;
#X msg 844 140 5;
#X msg 933 135 6;
#X msg 1009 137 7;
#X msg 1075 142 8;
#X msg 1144 140 9;
#X obj 130 251 bng 20 250 50 0 empty \$0_load_pres1 empty 0 -10 0 12 #ffe3c6 #000000 #000000;
#X obj 130 278 t b b;
#X obj 131 332 outlet;
#X msg 191 298 0;
#X obj 255 251 bng 20 250 50 0 empty \$0_load_pres2 empty 0 -10 0 12 #ffe3c6 #000000 #000000;
#X obj 255 278 t b b;
#X obj 392 257 bng 20 250 50 0 empty \$0_load_pres3 empty 0 -10 0 12 #ffe3c6 #000000 #000000;
#X obj 392 284 t b b;
#X obj 517 257 bng 20 250 50 0 empty \$0_load_pres4 empty 0 -10 0 12 #ffe3c6 #000000 #000000;
#X obj 517 284 t b b;
#X obj 632 255 bng 20 250 50 0 empty \$0_load_pres5 empty 0 -10 0 12 #ffe3c6 #000000 #000000;
#X obj 632 282 t b b;
#X obj 769 261 bng 20 250 50 0 empty \$0_load_pres6 empty 0 -10 0 12 #ffe3c6 #000000 #000000;
#X obj 769 288 t b b;
#X obj 894 261 bng 20 250 50 0 empty \$0_load_pres7 empty 0 -10 0 12 #ffe3c6 #000000 #000000;
#X obj 894 288 t b b;
#X obj 987 250 bng 20 250 50 0 empty \$0_load_pres8 empty 0 -10 0 12 #ffe3c6 #000000 #000000;
#X obj 987 277 t b b;
#X obj 1124 256 bng 20 250 50 0 empty \$0_load_pres9 empty 0 -10 0 12 #ffe3c6 #000000 #000000;
#X obj 1124 283 t b b;
#X obj 1249 256 bng 20 250 50 0 empty \$0_load_pres10 empty 0 -10 0 12 #ffe3c6 #000000 #000000;
#X obj 1249 283 t b b;
#X msg 334 298 1;
#X msg 471 304 2;
#X msg 596 304 3;
#X msg 711 302 4;
#X msg 848 308 5;
#X msg 973 308 6;
#X msg 1066 297 7;
#X msg 1203 303 8;
#X msg 1328 303 9;
#X obj 612 392 outlet;
#X obj 612 360 loadbang;
#X connect 0 0 1 0;
#X connect 0 1 2 0;
#X connect 2 0 3 0;
#X connect 4 0 0 0;
#X connect 5 0 14 0;
#X connect 6 0 16 0;
#X connect 7 0 17 0;
#X connect 8 0 18 0;
#X connect 9 0 19 0;
#X connect 10 0 20 0;
#X connect 11 0 21 0;
#X connect 12 0 22 0;
#X connect 13 0 23 0;
#X connect 14 0 1 0;
#X connect 14 1 15 0;
#X connect 15 0 3 0;
#X connect 16 0 1 0;
#X connect 16 1 24 0;
#X connect 17 0 1 0;
#X connect 17 1 25 0;
#X connect 18 0 1 0;
#X connect 18 1 26 0;
#X connect 19 0 1 0;
#X connect 19 1 27 0;
#X connect 20 0 1 0;
#X connect 20 1 28 0;
#X connect 21 0 1 0;
#X connect 21 1 29 0;
#X connect 22 0 1 0;
#X connect 22 1 30 0;
#X connect 23 0 1 0;
#X connect 23 1 31 0;
#X connect 24 0 3 0;
#X connect 25 0 3 0;
#X connect 26 0 3 0;
#X connect 27 0 3 0;
#X connect 28 0 3 0;
#X connect 29 0 3 0;
#X connect 30 0 3 0;
#X connect 31 0 3 0;
#X connect 32 0 33 0;
#X connect 33 0 34 0;
#X connect 33 1 35 0;
#X connect 35 0 3 0;
#X connect 36 0 37 0;
#X connect 37 0 34 0;
#X connect 37 1 54 0;
#X connect 38 0 39 0;
#X connect 39 0 34 0;
#X connect 39 1 55 0;
#X connect 40 0 41 0;
#X connect 41 0 34 0;
#X connect 41 1 56 0;
#X connect 42 0 43 0;
#X connect 43 0 34 0;
#X connect 43 1 57 0;
#X connect 44 0 45 0;
#X connect 45 0 34 0;
#X connect 45 1 58 0;
#X connect 46 0 47 0;
#X connect 47 0 34 0;
#X connect 47 1 59 0;
#X connect 48 0 49 0;
#X connect 49 0 34 0;
#X connect 49 1 60 0;
#X connect 50 0 51 0;
#X connect 51 0 34 0;
#X connect 51 1 61 0;
#X connect 52 0 53 0;
#X connect 53 0 34 0;
#X connect 53 1 62 0;
#X connect 54 0 3 0;
#X connect 55 0 3 0;
#X connect 56 0 3 0;
#X connect 57 0 3 0;
#X connect 58 0 3 0;
#X connect 59 0 3 0;
#X connect 60 0 3 0;
#X connect 61 0 3 0;
#X connect 62 0 3 0;
#X connect 64 0 63 0;
#X restore 691 1439 pd preset_receiver;
#X floatatom 1035 1469 5 0 0 0 - - - 0;
#X msg 794 1472 4;
#N canvas 66 261 1284 473 preset_receiver 0;
#X obj 404 90 t b b, f 6;
#X obj 406 166 outlet;
#X msg 445 129 0;
#X obj 480 170 outlet;
#X obj 404 54 bng 20 250 50 0 empty \$0_save_pres1 Save 0 -10 0 12 #ffc7c6 #000000 #ffffff;
#X obj 487 54 bng 20 250 50 0 empty \$0_save_pres2 Save 0 -10 0 12 #ffc7c6 #000000 #ffffff;
#X obj 563 55 bng 20 250 50 0 empty \$0_save_pres3 Save 0 -10 0 12 #ffc7c6 #000000 #ffffff;
#X obj 648 55 bng 20 250 50 0 empty \$0_save_pres4 Save 0 -10 0 12 #ffc7c6 #000000 #ffffff;
#X obj 726 56 bng 20 250 50 0 empty \$0_save_pres5 Save 0 -10 0 12 #ffc7c6 #000000 #ffffff;
#X obj 807 56 bng 20 250 50 0 empty \$0_save_pres6 Save 0 -10 0 12 #ffc7c6 #000000 #ffffff;
#X obj 884 56 bng 20 250 50 0 empty \$0_save_pres7 Save 0 -10 0 12 #ffc7c6 #000000 #ffffff;
#X obj 965 55 bng 20 250 50 0 empty \$0_save_pres8 Save 0 -10 0 12 #ffc7c6 #000000 #ffffff;
#X obj 1025 56 bng 20 250 50 0 empty \$0_save_pres9 Save 0 -10 0 12 #ffc7c6 #000000 #ffffff;
#X obj 1102 56 bng 20 250 50 0 empty \$0_save_pres10 Save 0 -10 0 12 #ffc7c6 #000000 #ffffff;
#X obj 491 92 t b b, f 6;
#X msg 532 131 1;
#X obj 572 90 t b b, f 6;
#X obj 659 102 t b b, f 6;
#X obj 732 95 t b b, f 6;
#X obj 803 101 t b b, f 6;
#X obj 881 101 t b b, f 6;
#X obj 962 104 t b b, f 6;
#X obj 1034 103 t b b, f 6;
#X obj 1103 101 t b b, f 6;
#X msg 613 129 2;
#X msg 700 141 3;
#X msg 782 134 4;
#X msg 844 140 5;
#X msg 933 135 6;
#X msg 1009 137 7;
#X msg 1075 142 8;
#X msg 1144 140 9;
#X obj 130 251 bng 20 250 50 0 empty \$0_load_pres1 empty 0 -10 0 12 #ffe3c6 #000000 #000000;
#X obj 130 278 t b b;
#X obj 131 332 outlet;
#X msg 191 298 0;
#X obj 255 251 bng 20 250 50 0 empty \$0_load_pres2 empty 0 -10 0 12 #ffe3c6 #000000 #000000;
#X obj 255 278 t b b;
#X obj 392 257 bng 20 250 50 0 empty \$0_load_pres3 empty 0 -10 0 12 #ffe3c6 #000000 #000000;
#X obj 392 284 t b b;
#X obj 517 257 bng 20 250 50 0 empty \$0_load_pres4 empty 0 -10 0 12 #ffe3c6 #000000 #000000;
#X obj 517 284 t b b;
#X obj 632 255 bng 20 250 50 0 empty \$0_load_pres5 empty 0 -10 0 12 #ffe3c6 #000000 #000000;
#X obj 632 282 t b b;
#X obj 769 261 bng 20 250 50 0 empty \$0_load_pres6 empty 0 -10 0 12 #ffe3c6 #000000 #000000;
#X obj 769 288 t b b;
#X obj 894 261 bng 20 250 50 0 empty \$0_load_pres7 empty 0 -10 0 12 #ffe3c6 #000000 #000000;
#X obj 894 288 t b b;
#X obj 987 250 bng 20 250 50 0 empty \$0_load_pres8 empty 0 -10 0 12 #ffe3c6 #000000 #000000;
#X obj 987 277 t b b;
#X obj 1124 256 bng 20 250 50 0 empty \$0_load_pres9 empty 0 -10 0 12 #ffe3c6 #000000 #000000;
#X obj 1124 283 t b b;
#X obj 1249 256 bng 20 250 50 0 empty \$0_load_pres10 empty 0 -10 0 12 #ffe3c6 #000000 #000000;
#X obj 1249 283 t b b;
#X msg 334 298 1;
#X msg 471 304 2;
#X msg 596 304 3;
#X msg 711 302 4;
#X msg 848 308 5;
#X msg 973 308 6;
#X msg 1066 297 7;
#X msg 1203 303 8;
#X msg 1328 303 9;
#X obj 612 392 outlet;
#X obj 612 360 loadbang;
#X connect 0 0 1 0;
#X connect 0 1 2 0;
#X connect 2 0 3 0;
#X connect 4 0 0 0;
#X connect 5 0 14 0;
#X connect 6 0 16 0;
#X connect 7 0 17 0;
#X connect 8 0 18 0;
#X connect 9 0 19 0;
#X connect 10 0 20 0;
#X connect 11 0 21 0;
#X connect 12 0 22 0;
#X connect 13 0 23 0;
#X connect 14 0 1 0;
#X connect 14 1 15 0;
#X connect 15 0 3 0;
#X connect 16 0 1 0;
#X connect 16 1 24 0;
#X connect 17 0 1 0;
#X connect 17 1 25 0;
#X connect 18 0 1 0;
#X connect 18 1 26 0;
#X connect 19 0 1 0;
#X connect 19 1 27 0;
#X connect 20 0 1 0;
#X connect 20 1 28 0;
#X connect 21 0 1 0;
#X connect 21 1 29 0;
#X connect 22 0 1 0;
#X connect 22 1 30 0;
#X connect 23 0 1 0;
#X connect 23 1 31 0;
#X connect 24 0 3 0;
#X connect 25 0 3 0;
#X connect 26 0 3 0;
#X connect 27 0 3 0;
#X connect 28 0 3 0;
#X connect 29 0 3 0;
#X connect 30 0 3 0;
#X connect 31 0 3 0;
#X connect 32 0 33 0;
#X connect 33 0 34 0;
#X connect 33 1 35 0;
#X connect 35 0 3 0;
#X connect 36 0 37 0;
#X connect 37 0 34 0;
#X connect 37 1 54 0;
#X connect 38 0 39 0;
#X connect 39 0 34 0;
#X connect 39 1 55 0;
#X connect 40 0 41 0;
#X connect 41 0 34 0;
#X connect 41 1 56 0;
#X connect 42 0 43 0;
#X connect 43 0 34 0;
#X connect 43 1 57 0;
#X connect 44 0 45 0;
#X connect 45 0 34 0;
#X connect 45 1 58 0;
#X connect 46 0 47 0;
#X connect 47 0 34 0;
#X connect 47 1 59 0;
#X connect 48 0 49 0;
#X connect 49 0 34 0;
#X connect 49 1 60 0;
#X connect 50 0 51 0;
#X connect 51 0 34 0;
#X connect 51 1 61 0;
#X connect 52 0 53 0;
#X connect 53 0 34 0;
#X connect 53 1 62 0;
#X connect 54 0 3 0;
#X connect 55 0 3 0;
#X connect 56 0 3 0;
#X connect 57 0 3 0;
#X connect 58 0 3 0;
#X connect 59 0 3 0;
#X connect 60 0 3 0;
#X connect 61 0 3 0;
#X connect 62 0 3 0;
#X connect 64 0 63 0;
#X restore 692 1826 pd preset_receiver;
#X floatatom 1036 1856 5 0 0 0 - - - 0;
#X msg 795 1859 5;
#N canvas 66 261 1284 473 preset_receiver 0;
#X obj 404 90 t b b, f 6;
#X obj 406 166 outlet;
#X msg 445 129 0;
#X obj 480 170 outlet;
#X obj 404 54 bng 20 250 50 0 empty \$0_save_pres1 Save 0 -10 0 12 #ffc7c6 #000000 #ffffff;
#X obj 487 54 bng 20 250 50 0 empty \$0_save_pres2 Save 0 -10 0 12 #ffc7c6 #000000 #ffffff;
#X obj 563 55 bng 20 250 50 0 empty \$0_save_pres3 Save 0 -10 0 12 #ffc7c6 #000000 #ffffff;
#X obj 648 55 bng 20 250 50 0 empty \$0_save_pres4 Save 0 -10 0 12 #ffc7c6 #000000 #ffffff;
#X obj 726 56 bng 20 250 50 0 empty \$0_save_pres5 Save 0 -10 0 12 #ffc7c6 #000000 #ffffff;
#X obj 807 56 bng 20 250 50 0 empty \$0_save_pres6 Save 0 -10 0 12 #ffc7c6 #000000 #ffffff;
#X obj 884 56 bng 20 250 50 0 empty \$0_save_pres7 Save 0 -10 0 12 #ffc7c6 #000000 #ffffff;
#X obj 965 55 bng 20 250 50 0 empty \$0_save_pres8 Save 0 -10 0 12 #ffc7c6 #000000 #ffffff;
#X obj 1025 56 bng 20 250 50 0 empty \$0_save_pres9 Save 0 -10 0 12 #ffc7c6 #000000 #ffffff;
#X obj 1102 56 bng 20 250 50 0 empty \$0_save_pres10 Save 0 -10 0 12 #ffc7c6 #000000 #ffffff;
#X obj 491 92 t b b, f 6;
#X msg 532 131 1;
#X obj 572 90 t b b, f 6;
#X obj 659 102 t b b, f 6;
#X obj 732 95 t b b, f 6;
#X obj 803 101 t b b, f 6;
#X obj 881 101 t b b, f 6;
#X obj 962 104 t b b, f 6;
#X obj 1034 103 t b b, f 6;
#X obj 1103 101 t b b, f 6;
#X msg 613 129 2;
#X msg 700 141 3;
#X msg 782 134 4;
#X msg 844 140 5;
#X msg 933 135 6;
#X msg 1009 137 7;
#X msg 1075 142 8;
#X msg 1144 140 9;
#X obj 130 251 bng 20 250 50 0 empty \$0_load_pres1 empty 0 -10 0 12 #ffe3c6 #000000 #000000;
#X obj 130 278 t b b;
#X obj 131 332 outlet;
#X msg 191 298 0;
#X obj 255 251 bng 20 250 50 0 empty \$0_load_pres2 empty 0 -10 0 12 #ffe3c6 #000000 #000000;
#X obj 255 278 t b b;
#X obj 392 257 bng 20 250 50 0 empty \$0_load_pres3 empty 0 -10 0 12 #ffe3c6 #000000 #000000;
#X obj 392 284 t b b;
#X obj 517 257 bng 20 250 50 0 empty \$0_load_pres4 empty 0 -10 0 12 #ffe3c6 #000000 #000000;
#X obj 517 284 t b b;
#X obj 632 255 bng 20 250 50 0 empty \$0_load_pres5 empty 0 -10 0 12 #ffe3c6 #000000 #000000;
#X obj 632 282 t b b;
#X obj 769 261 bng 20 250 50 0 empty \$0_load_pres6 empty 0 -10 0 12 #ffe3c6 #000000 #000000;
#X obj 769 288 t b b;
#X obj 894 261 bng 20 250 50 0 empty \$0_load_pres7 empty 0 -10 0 12 #ffe3c6 #000000 #000000;
#X obj 894 288 t b b;
#X obj 987 250 bng 20 250 50 0 empty \$0_load_pres8 empty 0 -10 0 12 #ffe3c6 #000000 #000000;
#X obj 987 277 t b b;
#X obj 1124 256 bng 20 250 50 0 empty \$0_load_pres9 empty 0 -10 0 12 #ffe3c6 #000000 #000000;
#X obj 1124 283 t b b;
#X obj 1249 256 bng 20 250 50 0 empty \$0_load_pres10 empty 0 -10 0 12 #ffe3c6 #000000 #000000;
#X obj 1249 283 t b b;
#X msg 334 298 1;
#X msg 471 304 2;
#X msg 596 304 3;
#X msg 711 302 4;
#X msg 848 308 5;
#X msg 973 308 6;
#X msg 1066 297 7;
#X msg 1203 303 8;
#X msg 1328 303 9;
#X obj 612 392 outlet;
#X obj 612 360 loadbang;
#X connect 0 0 1 0;
#X connect 0 1 2 0;
#X connect 2 0 3 0;
#X connect 4 0 0 0;
#X connect 5 0 14 0;
#X connect 6 0 16 0;
#X connect 7 0 17 0;
#X connect 8 0 18 0;
#X connect 9 0 19 0;
#X connect 10 0 20 0;
#X connect 11 0 21 0;
#X connect 12 0 22 0;
#X connect 13 0 23 0;
#X connect 14 0 1 0;
#X connect 14 1 15 0;
#X connect 15 0 3 0;
#X connect 16 0 1 0;
#X connect 16 1 24 0;
#X connect 17 0 1 0;
#X connect 17 1 25 0;
#X connect 18 0 1 0;
#X connect 18 1 26 0;
#X connect 19 0 1 0;
#X connect 19 1 27 0;
#X connect 20 0 1 0;
#X connect 20 1 28 0;
#X connect 21 0 1 0;
#X connect 21 1 29 0;
#X connect 22 0 1 0;
#X connect 22 1 30 0;
#X connect 23 0 1 0;
#X connect 23 1 31 0;
#X connect 24 0 3 0;
#X connect 25 0 3 0;
#X connect 26 0 3 0;
#X connect 27 0 3 0;
#X connect 28 0 3 0;
#X connect 29 0 3 0;
#X connect 30 0 3 0;
#X connect 31 0 3 0;
#X connect 32 0 33 0;
#X connect 33 0 34 0;
#X connect 33 1 35 0;
#X connect 35 0 3 0;
#X connect 36 0 37 0;
#X connect 37 0 34 0;
#X connect 37 1 54 0;
#X connect 38 0 39 0;
#X connect 39 0 34 0;
#X connect 39 1 55 0;
#X connect 40 0 41 0;
#X connect 41 0 34 0;
#X connect 41 1 56 0;
#X connect 42 0 43 0;
#X connect 43 0 34 0;
#X connect 43 1 57 0;
#X connect 44 0 45 0;
#X connect 45 0 34 0;
#X connect 45 1 58 0;
#X connect 46 0 47 0;
#X connect 47 0 34 0;
#X connect 47 1 59 0;
#X connect 48 0 49 0;
#X connect 49 0 34 0;
#X connect 49 1 60 0;
#X connect 50 0 51 0;
#X connect 51 0 34 0;
#X connect 51 1 61 0;
#X connect 52 0 53 0;
#X connect 53 0 34 0;
#X connect 53 1 62 0;
#X connect 54 0 3 0;
#X connect 55 0 3 0;
#X connect 56 0 3 0;
#X connect 57 0 3 0;
#X connect 58 0 3 0;
#X connect 59 0 3 0;
#X connect 60 0 3 0;
#X connect 61 0 3 0;
#X connect 62 0 3 0;
#X connect 64 0 63 0;
#X restore 689 2225 pd preset_receiver;
#X floatatom 1033 2255 5 0 0 0 - - - 0;
#X msg 792 2258 6;
#N canvas 66 261 1284 473 preset_receiver 0;
#X obj 404 90 t b b, f 6;
#X obj 406 166 outlet;
#X msg 445 129 0;
#X obj 480 170 outlet;
#X obj 404 54 bng 20 250 50 0 empty \$0_save_pres1 Save 0 -10 0 12 #ffc7c6 #000000 #ffffff;
#X obj 487 54 bng 20 250 50 0 empty \$0_save_pres2 Save 0 -10 0 12 #ffc7c6 #000000 #ffffff;
#X obj 563 55 bng 20 250 50 0 empty \$0_save_pres3 Save 0 -10 0 12 #ffc7c6 #000000 #ffffff;
#X obj 648 55 bng 20 250 50 0 empty \$0_save_pres4 Save 0 -10 0 12 #ffc7c6 #000000 #ffffff;
#X obj 726 56 bng 20 250 50 0 empty \$0_save_pres5 Save 0 -10 0 12 #ffc7c6 #000000 #ffffff;
#X obj 807 56 bng 20 250 50 0 empty \$0_save_pres6 Save 0 -10 0 12 #ffc7c6 #000000 #ffffff;
#X obj 884 56 bng 20 250 50 0 empty \$0_save_pres7 Save 0 -10 0 12 #ffc7c6 #000000 #ffffff;
#X obj 965 55 bng 20 250 50 0 empty \$0_save_pres8 Save 0 -10 0 12 #ffc7c6 #000000 #ffffff;
#X obj 1025 56 bng 20 250 50 0 empty \$0_save_pres9 Save 0 -10 0 12 #ffc7c6 #000000 #ffffff;
#X obj 1102 56 bng 20 250 50 0 empty \$0_save_pres10 Save 0 -10 0 12 #ffc7c6 #000000 #ffffff;
#X obj 491 92 t b b, f 6;
#X msg 532 131 1;
#X obj 572 90 t b b, f 6;
#X obj 659 102 t b b, f 6;
#X obj 732 95 t b b, f 6;
#X obj 803 101 t b b, f 6;
#X obj 881 101 t b b, f 6;
#X obj 962 104 t b b, f 6;
#X obj 1034 103 t b b, f 6;
#X obj 1103 101 t b b, f 6;
#X msg 613 129 2;
#X msg 700 141 3;
#X msg 782 134 4;
#X msg 844 140 5;
#X msg 933 135 6;
#X msg 1009 137 7;
#X msg 1075 142 8;
#X msg 1144 140 9;
#X obj 130 251 bng 20 250 50 0 empty \$0_load_pres1 empty 0 -10 0 12 #ffe3c6 #000000 #000000;
#X obj 130 278 t b b;
#X obj 131 332 outlet;
#X msg 191 298 0;
#X obj 255 251 bng 20 250 50 0 empty \$0_load_pres2 empty 0 -10 0 12 #ffe3c6 #000000 #000000;
#X obj 255 278 t b b;
#X obj 392 257 bng 20 250 50 0 empty \$0_load_pres3 empty 0 -10 0 12 #ffe3c6 #000000 #000000;
#X obj 392 284 t b b;
#X obj 517 257 bng 20 250 50 0 empty \$0_load_pres4 empty 0 -10 0 12 #ffe3c6 #000000 #000000;
#X obj 517 284 t b b;
#X obj 632 255 bng 20 250 50 0 empty \$0_load_pres5 empty 0 -10 0 12 #ffe3c6 #000000 #000000;
#X obj 632 282 t b b;
#X obj 769 261 bng 20 250 50 0 empty \$0_load_pres6 empty 0 -10 0 12 #ffe3c6 #000000 #000000;
#X obj 769 288 t b b;
#X obj 894 261 bng 20 250 50 0 empty \$0_load_pres7 empty 0 -10 0 12 #ffe3c6 #000000 #000000;
#X obj 894 288 t b b;
#X obj 987 250 bng 20 250 50 0 empty \$0_load_pres8 empty 0 -10 0 12 #ffe3c6 #000000 #000000;
#X obj 987 277 t b b;
#X obj 1124 256 bng 20 250 50 0 empty \$0_load_pres9 empty 0 -10 0 12 #ffe3c6 #000000 #000000;
#X obj 1124 283 t b b;
#X obj 1249 256 bng 20 250 50 0 empty \$0_load_pres10 empty 0 -10 0 12 #ffe3c6 #000000 #000000;
#X obj 1249 283 t b b;
#X msg 334 298 1;
#X msg 471 304 2;
#X msg 596 304 3;
#X msg 711 302 4;
#X msg 848 308 5;
#X msg 973 308 6;
#X msg 1066 297 7;
#X msg 1203 303 8;
#X msg 1328 303 9;
#X obj 612 392 outlet;
#X obj 612 360 loadbang;
#X connect 0 0 1 0;
#X connect 0 1 2 0;
#X connect 2 0 3 0;
#X connect 4 0 0 0;
#X connect 5 0 14 0;
#X connect 6 0 16 0;
#X connect 7 0 17 0;
#X connect 8 0 18 0;
#X connect 9 0 19 0;
#X connect 10 0 20 0;
#X connect 11 0 21 0;
#X connect 12 0 22 0;
#X connect 13 0 23 0;
#X connect 14 0 1 0;
#X connect 14 1 15 0;
#X connect 15 0 3 0;
#X connect 16 0 1 0;
#X connect 16 1 24 0;
#X connect 17 0 1 0;
#X connect 17 1 25 0;
#X connect 18 0 1 0;
#X connect 18 1 26 0;
#X connect 19 0 1 0;
#X connect 19 1 27 0;
#X connect 20 0 1 0;
#X connect 20 1 28 0;
#X connect 21 0 1 0;
#X connect 21 1 29 0;
#X connect 22 0 1 0;
#X connect 22 1 30 0;
#X connect 23 0 1 0;
#X connect 23 1 31 0;
#X connect 24 0 3 0;
#X connect 25 0 3 0;
#X connect 26 0 3 0;
#X connect 27 0 3 0;
#X connect 28 0 3 0;
#X connect 29 0 3 0;
#X connect 30 0 3 0;
#X connect 31 0 3 0;
#X connect 32 0 33 0;
#X connect 33 0 34 0;
#X connect 33 1 35 0;
#X connect 35 0 3 0;
#X connect 36 0 37 0;
#X connect 37 0 34 0;
#X connect 37 1 54 0;
#X connect 38 0 39 0;
#X connect 39 0 34 0;
#X connect 39 1 55 0;
#X connect 40 0 41 0;
#X connect 41 0 34 0;
#X connect 41 1 56 0;
#X connect 42 0 43 0;
#X connect 43 0 34 0;
#X connect 43 1 57 0;
#X connect 44 0 45 0;
#X connect 45 0 34 0;
#X connect 45 1 58 0;
#X connect 46 0 47 0;
#X connect 47 0 34 0;
#X connect 47 1 59 0;
#X connect 48 0 49 0;
#X connect 49 0 34 0;
#X connect 49 1 60 0;
#X connect 50 0 51 0;
#X connect 51 0 34 0;
#X connect 51 1 61 0;
#X connect 52 0 53 0;
#X connect 53 0 34 0;
#X connect 53 1 62 0;
#X connect 54 0 3 0;
#X connect 55 0 3 0;
#X connect 56 0 3 0;
#X connect 57 0 3 0;
#X connect 58 0 3 0;
#X connect 59 0 3 0;
#X connect 60 0 3 0;
#X connect 61 0 3 0;
#X connect 62 0 3 0;
#X connect 64 0 63 0;
#X restore 672 2583 pd preset_receiver;
#X floatatom 1016 2600 5 0 0 0 - - - 0;
#X msg 790 2617 7;
#X connect 0 0 1 0;
#X connect 2 0 5 0;
#X connect 3 0 5 0;
#X connect 4 0 5 0;
#X connect 5 0 6 0;
#X connect 5 0 6 1;
#X connect 55 0 0 1;
#X connect 55 1 0 2;
#X connect 55 2 56 0;
#X connect 55 2 57 0;
#X connect 56 0 0 4;
#X connect 57 0 0 3;
#X connect 58 0 36 1;
#X connect 58 1 36 2;
#X connect 58 2 59 0;
#X connect 58 2 60 0;
#X connect 59 0 36 4;
#X connect 60 0 36 3;
#X connect 61 0 49 1;
#X connect 61 1 49 2;
#X connect 61 2 62 0;
#X connect 61 2 63 0;
#X connect 62 0 49 4;
#X connect 63 0 49 3;
#X connect 64 0 50 1;
#X connect 64 1 50 2;
#X connect 64 2 65 0;
#X connect 64 2 66 0;
#X connect 65 0 50 4;
#X connect 66 0 50 3;
#X connect 67 0 51 1;
#X connect 67 1 51 2;
#X connect 67 2 68 0;
#X connect 67 2 69 0;
#X connect 68 0 51 4;
#X connect 69 0 51 3;
#X connect 70 0 52 1;
#X connect 70 1 52 2;
#X connect 70 2 71 0;
#X connect 70 2 72 0;
#X connect 71 0 52 4;
#X connect 72 0 52 3;
#X connect 73 0 53 1;
#X connect 73 1 53 2;
#X connect 73 2 74 0;
#X connect 73 2 75 0;
#X connect 74 0 53 4;
#X connect 75 0 53 3;
#X connect 76 0 54 1;
#X connect 76 1 54 2;
#X connect 76 2 77 0;
#X connect 76 2 78 0;
#X connect 77 0 54 4;
#X connect 78 0 54 3;
