#N struct template7 float x;
#N canvas 66 32 1300 665 12;
#X obj 4 74 sponges;
#X obj 5 373 s~ out1;
#X obj 1437 18 r~ out1;
#X obj 1492 18 r~ out2;
#X obj 1548 19 r~ out3;
#X obj 1501 73 /~ 3;
#X obj 1473 126 output~;
#X obj 1220 23 cnv 20 200 100 empty empty empty 20 12 0 12 #e3c6ff #404040 0;
#X obj 1249 62 bng 40 250 50 0 REC empty MASTER\ REC -10 -10 0 12 #ffc7c6 #000000 #000000;
#X obj 1331 61 bng 40 250 50 0 FINISH empty MASTER\ FINISH -10 -10 0 12 #ffe3c6 #000000 #000000;
#X text 1449 449 octaves;
#X text 1407 488 global scaler;
#X text 1365 468 background in notes;
#X text 1385 383 fazer ui presets;
#X text 1417 545 master start;
#X text 1424 565 master stop;
#X text 1418 586 master reset;
#X text 1320 611 adicionar swing individual;
#X obj 1220 128 cnv 20 100 460 empty empty Presets 20 12 0 12 #000000 #ffffff 0;
#X obj 1240 169 bng 20 250 50 0 \$0_save_pres1 empty Save 0 -10 0 12 #ffc7c6 #000000 #ffffff;
#X obj 1278 170 bng 20 250 50 0 \$0_load_pres1 empty Load 0 -10 0 12 #feffc6 #000000 #ffffff;
#X text 1327 261 3;
#X text 1326 301 4;
#X text 1327 343 5;
#X text 1327 384 6;
#X text 1327 428 7;
#X text 1328 470 8;
#X text 1327 514 9;
#X text 1324 559 10;
#X obj 1239 213 bng 20 250 50 0 \$0_save_pres2 empty Save 0 -10 0 12 #ffc7c6 #000000 #ffffff;
#X obj 1277 214 bng 20 250 50 0 \$0_load_pres2 empty Load 0 -10 0 12 #feffc6 #000000 #ffffff;
#X obj 1239 260 bng 20 250 50 0 empty empty Save 0 -10 0 12 #ffc7c6 #000000 #ffffff;
#X obj 1277 261 bng 20 250 50 0 empty empty Load 0 -10 0 12 #feffc6 #000000 #ffffff;
#X obj 1237 301 bng 20 250 50 0 empty empty Save 0 -10 0 12 #ffc7c6 #000000 #ffffff;
#X obj 1275 302 bng 20 250 50 0 empty empty Load 0 -10 0 12 #feffc6 #000000 #ffffff;
#X obj 1238 345 bng 20 250 50 0 empty empty Save 0 -10 0 12 #ffc7c6 #000000 #ffffff;
#X obj 1276 346 bng 20 250 50 0 empty empty Load 0 -10 0 12 #feffc6 #000000 #ffffff;
#X obj 1237 388 bng 20 250 50 0 empty empty Save 0 -10 0 12 #ffc7c6 #000000 #ffffff;
#X obj 1275 389 bng 20 250 50 0 empty empty Load 0 -10 0 12 #feffc6 #000000 #ffffff;
#X obj 1239 429 bng 20 250 50 0 empty empty Save 0 -10 0 12 #ffc7c6 #000000 #ffffff;
#X obj 1277 430 bng 20 250 50 0 empty empty Load 0 -10 0 12 #feffc6 #000000 #ffffff;
#X obj 1237 470 bng 20 250 50 0 empty empty Save 0 -10 0 12 #ffc7c6 #000000 #ffffff;
#X obj 1275 471 bng 20 250 50 0 empty empty Load 0 -10 0 12 #feffc6 #000000 #ffffff;
#X obj 1238 514 bng 20 250 50 0 empty empty Save 0 -10 0 12 #ffc7c6 #000000 #ffffff;
#X obj 1276 515 bng 20 250 50 0 empty empty Load 0 -10 0 12 #feffc6 #000000 #ffffff;
#X obj 1237 557 bng 20 250 50 0 empty empty Save 0 -10 0 12 #ffc7c6 #000000 #ffffff;
#X obj 1275 558 bng 20 250 50 0 empty empty Load 0 -10 0 12 #feffc6 #000000 #ffffff;
#X symbolatom 1376 177 10 0 0 0 Preset1 - - 0;
#X text 1344 430 write notes in english;
#X msg 888 46 0;
#X obj 249 13 bng 20 250 50 0 empty \$0_load_pres1 empty 0 -10 0 12 #fcfcfc #000000 #000000;
#X obj 516 8 bng 20 250 50 0 empty \$0_save_pres1 empty 0 -10 0 12 #fcfcfc #000000 #000000;
#X obj 6 423 sponges;
#X obj 7 716 s~ out1;
#X obj 900 368 loadbang;
#X obj 168 351 bng 20 250 50 0 empty \$0_load_pres1 empty 0 -10 0 12 #fcfcfc #000000 #000000;
#X obj 602 398 bng 20 250 50 0 empty \$0_save_pres1 empty 0 -10 0 12 #fcfcfc #000000 #000000;
#X msg 900 399 1;
#X msg 573 28 0;
#X obj 516 34 t b b;
#X obj 740 354 bng 20 250 50 0 empty \$0_save_pres1 empty 0 -10 0 12 #fcfcfc #000000 #000000;
#X msg 1012 396 0;
#X obj 740 376 t b b;
#X obj 780 354 bng 20 250 50 0 empty \$0_save_pres2 empty 0 -10 0 12 #fcfcfc #000000 #000000;
#X obj 305 357 bng 20 250 50 0 empty \$0_load_pres2 empty 0 -10 0 12 #fcfcfc #000000 #000000;
#X obj 302 12 bng 20 250 50 0 empty \$0_load_pres2 empty 0 -10 0 12 #fcfcfc #000000 #000000;
#X obj 643 10 bng 20 250 50 0 empty \$0_save_pres2 empty 0 -10 0 12 #fcfcfc #000000 #000000;
#X obj 635 35 t b b;
#X msg 783 18 1;
#X obj 1058 371 t b b;
#X msg 1126 390 1;
#X obj 168 376 t b b;
#X obj 305 383 t b b;
#X obj 182 27 t b b;
#X obj 306 33 t b b;
#X text 1333 281 2;
#X symbolatom 1376 213 10 0 0 0 Preset2 - - 0;
#X obj 1038 11 loadbang;
#X connect 0 0 1 0;
#X connect 2 0 5 0;
#X connect 3 0 5 0;
#X connect 4 0 5 0;
#X connect 5 0 6 0;
#X connect 5 0 6 1;
#X connect 49 0 0 3;
#X connect 50 0 73 0;
#X connect 51 0 59 0;
#X connect 52 0 53 0;
#X connect 54 0 57 0;
#X connect 54 0 20 0;
#X connect 55 0 71 0;
#X connect 56 0 52 2;
#X connect 57 0 52 3;
#X connect 58 0 0 4;
#X connect 59 0 0 2;
#X connect 59 1 58 0;
#X connect 60 0 62 0;
#X connect 61 0 52 4;
#X connect 62 0 56 0;
#X connect 62 1 61 0;
#X connect 63 0 69 0;
#X connect 64 0 72 0;
#X connect 65 0 74 0;
#X connect 66 0 67 0;
#X connect 67 0 0 2;
#X connect 67 1 68 0;
#X connect 68 0 0 4;
#X connect 69 0 56 0;
#X connect 69 1 70 0;
#X connect 70 0 52 4;
#X connect 71 0 52 1;
#X connect 71 1 61 0;
#X connect 72 0 52 1;
#X connect 72 1 70 0;
#X connect 73 0 0 1;
#X connect 73 1 58 0;
#X connect 74 0 0 1;
#X connect 74 1 68 0;
#X connect 77 0 49 0;
#X connect 77 0 20 0;
