#N struct template7 float x;
#N canvas 23 66 1103 720 12;
#X obj 502 47 sponges;
#X msg 100 244 waveform SZ;
#X msg 98 30 waveform SM;
#X msg 97 55 waveform HC;
#X msg 95 192 waveform NEW;
#X msg 101 115 waveform SL;
#X msg 96 150 waveform SLAtl;
#X msg 95 217 waveform SN;
#X msg 96 82 waveform SO;
#X obj 474 507 dac~;
#X msg 115 359 score SO;
#X msg 114 535 score SZ;
#X msg 115 304 score SM;
#X msg 117 332 score HC;
#X msg 108 478 score NEW;
#X msg 110 508 score SN;
#X msg 115 391 score SL;
#X msg 111 426 score SLAtl;
#X connect 0 0 9 1;
#X connect 0 0 9 0;
#X connect 1 0 0 0;
#X connect 2 0 0 0;
#X connect 3 0 0 0;
#X connect 4 0 0 0;
#X connect 5 0 0 0;
#X connect 6 0 0 0;
#X connect 7 0 0 0;
#X connect 8 0 0 0;
#X connect 10 0 0 0;
#X connect 11 0 0 0;
#X connect 12 0 0 0;
#X connect 13 0 0 0;
#X connect 14 0 0 0;
#X connect 15 0 0 0;
#X connect 16 0 0 0;
#X connect 17 0 0 0;
