#N struct template7 float x;
#N canvas 66 32 1300 665 12;
#X obj 5 361 s~ out1;
#X obj 1531 11 r~ out1;
#X obj 1553 107 output~;
#X obj 1321 104 cnv 20 200 100 empty empty empty 20 12 0 12 #e3c6ff #404040 0;
#X obj 1350 143 bng 40 250 50 0 REC empty MASTER\ REC -10 -10 0 12 #ffc7c6 #000000 #000000;
#X obj 1439 146 bng 40 250 50 0 FINISH empty MASTER\ FINISH -13 -10 0 12 #ffe3c6 #000000 #000000;
#X obj 1310 602 cnv 20 100 460 empty empty Presets 20 12 0 12 #000000 #ffffff 0;
#X obj 1330 643 bng 20 250 50 0 \$0_save_pres1 empty Save 0 -10 0 12 #ffc7c6 #000000 #ffffff;
#X obj 1368 644 bng 20 250 50 0 \$0_load_pres1 empty Load 0 -10 0 12 #feffc6 #000000 #ffffff;
#X obj 1329 687 bng 20 250 50 0 \$0_save_pres2 empty Save 0 -10 0 12 #ffc7c6 #000000 #ffffff;
#X obj 1367 688 bng 20 250 50 0 \$0_load_pres2 empty Load 0 -10 0 12 #feffc6 #000000 #ffffff;
#X obj 1329 734 bng 20 250 50 0 \$0_save_pres3 empty Save 0 -10 0 12 #ffc7c6 #000000 #ffffff;
#X obj 1367 735 bng 20 250 50 0 \$0_load_pres3 empty Load 0 -10 0 12 #feffc6 #000000 #ffffff;
#X obj 1327 775 bng 20 250 50 0 \$0_save_pres4 empty Save 0 -10 0 12 #ffc7c6 #000000 #ffffff;
#X obj 1365 776 bng 20 250 50 0 \$0_load_pres4 empty Load 0 -10 0 12 #feffc6 #000000 #ffffff;
#X obj 1328 819 bng 20 250 50 0 \$0_save_pres5 empty Save 0 -10 0 12 #ffc7c6 #000000 #ffffff;
#X obj 1366 820 bng 20 250 50 0 \$0_load_pres5 empty Load 0 -10 0 12 #feffc6 #000000 #ffffff;
#X obj 1327 862 bng 20 250 50 0 \$0_save_pres6 empty Save 0 -10 0 12 #ffc7c6 #000000 #ffffff;
#X obj 1365 863 bng 20 250 50 0 \$0_load_pres6 empty Load 0 -10 0 12 #feffc6 #000000 #ffffff;
#X obj 1329 903 bng 20 250 50 0 \$0_save_pres7 empty Save 0 -10 0 12 #ffc7c6 #000000 #ffffff;
#X obj 1367 904 bng 20 250 50 0 \$0_load_pres7 empty Load 0 -10 0 12 #feffc6 #000000 #ffffff;
#X obj 1327 944 bng 20 250 50 0 \$0_save_pres8 empty Save 0 -10 0 12 #ffc7c6 #000000 #ffffff;
#X obj 1365 945 bng 20 250 50 0 \$0_load_pres8 empty Load 0 -10 0 12 #feffc6 #000000 #ffffff;
#X obj 1328 988 bng 20 250 50 0 \$0_save_pres9 empty Save 0 -10 0 12 #ffc7c6 #000000 #ffffff;
#X obj 1366 989 bng 20 250 50 0 \$0_load_pres9 empty Load 0 -10 0 12 #feffc6 #000000 #ffffff;
#X obj 1327 1031 bng 20 250 50 0 \$0_save_pres10 empty Save 0 -10 0 12 #ffc7c6 #000000 #ffffff;
#X obj 1365 1032 bng 20 250 50 0 \$0_load_pres10 empty Load 0 -10 0 12 #feffc6 #000000 #ffffff;
#X obj 103 389 sponges;
#X obj 1409 632 cnv 20 80 430 empty empty empty 20 12 0 12 #ffc7c6 #404040 0;
#X obj 104 673 sponges;
#X obj 103 960 sponges;
#X obj 104 1243 sponges;
#X obj 106 1530 sponges;
#X obj 106 1813 sponges;
#X obj 107 2094 sponges;
#N canvas 66 261 1284 473 preset_receiver 0;
#X obj 404 90 t b b, f 6;
#X obj 406 166 outlet;
#X msg 445 129 0;
#X obj 480 170 outlet;
#X obj 404 54 bng 20 250 50 0 empty \$0_save_pres1 Save 0 -10 0 12 #ffc7c6 #000000 #ffffff;
#X obj 487 54 bng 20 250 50 0 empty \$0_save_pres2 Save 0 -10 0 12 #ffc7c6 #000000 #ffffff;
#X obj 563 55 bng 20 250 50 0 empty \$0_save_pres3 Save 0 -10 0 12 #ffc7c6 #000000 #ffffff;
#X obj 648 55 bng 20 250 50 0 empty \$0_save_pres4 Save 0 -10 0 12 #ffc7c6 #000000 #ffffff;
#X obj 726 56 bng 20 250 50 0 empty \$0_save_pres5 Save 0 -10 0 12 #ffc7c6 #000000 #ffffff;
#X obj 807 56 bng 20 250 50 0 empty \$0_save_pres6 Save 0 -10 0 12 #ffc7c6 #000000 #ffffff;
#X obj 884 56 bng 20 250 50 0 empty \$0_save_pres7 Save 0 -10 0 12 #ffc7c6 #000000 #ffffff;
#X obj 965 55 bng 20 250 50 0 empty \$0_save_pres8 Save 0 -10 0 12 #ffc7c6 #000000 #ffffff;
#X obj 1025 56 bng 20 250 50 0 empty \$0_save_pres9 Save 0 -10 0 12 #ffc7c6 #000000 #ffffff;
#X obj 1102 56 bng 20 250 50 0 empty \$0_save_pres10 Save 0 -10 0 12 #ffc7c6 #000000 #ffffff;
#X obj 491 92 t b b, f 6;
#X msg 532 131 1;
#X obj 572 90 t b b, f 6;
#X obj 659 102 t b b, f 6;
#X obj 732 95 t b b, f 6;
#X obj 803 101 t b b, f 6;
#X obj 881 101 t b b, f 6;
#X obj 962 104 t b b, f 6;
#X obj 1034 103 t b b, f 6;
#X obj 1103 101 t b b, f 6;
#X msg 613 129 2;
#X msg 700 141 3;
#X msg 782 134 4;
#X msg 844 140 5;
#X msg 933 135 6;
#X msg 1009 137 7;
#X msg 1075 142 8;
#X msg 1144 140 9;
#X obj 130 251 bng 20 250 50 0 empty \$0_load_pres1 empty 0 -10 0 12 #ffe3c6 #000000 #000000;
#X obj 130 278 t b b;
#X obj 131 332 outlet;
#X msg 191 298 0;
#X obj 255 251 bng 20 250 50 0 empty \$0_load_pres2 empty 0 -10 0 12 #ffe3c6 #000000 #000000;
#X obj 255 278 t b b;
#X obj 392 257 bng 20 250 50 0 empty \$0_load_pres3 empty 0 -10 0 12 #ffe3c6 #000000 #000000;
#X obj 392 284 t b b;
#X obj 517 257 bng 20 250 50 0 empty \$0_load_pres4 empty 0 -10 0 12 #ffe3c6 #000000 #000000;
#X obj 517 284 t b b;
#X obj 632 255 bng 20 250 50 0 empty \$0_load_pres5 empty 0 -10 0 12 #ffe3c6 #000000 #000000;
#X obj 632 282 t b b;
#X obj 769 261 bng 20 250 50 0 empty \$0_load_pres6 empty 0 -10 0 12 #ffe3c6 #000000 #000000;
#X obj 769 288 t b b;
#X obj 894 261 bng 20 250 50 0 empty \$0_load_pres7 empty 0 -10 0 12 #ffe3c6 #000000 #000000;
#X obj 894 288 t b b;
#X obj 987 250 bng 20 250 50 0 empty \$0_load_pres8 empty 0 -10 0 12 #ffe3c6 #000000 #000000;
#X obj 987 277 t b b;
#X obj 1124 256 bng 20 250 50 0 empty \$0_load_pres9 empty 0 -10 0 12 #ffe3c6 #000000 #000000;
#X obj 1124 283 t b b;
#X obj 1249 256 bng 20 250 50 0 empty \$0_load_pres10 empty 0 -10 0 12 #ffe3c6 #000000 #000000;
#X obj 1249 283 t b b;
#X msg 334 298 1;
#X msg 471 304 2;
#X msg 596 304 3;
#X msg 711 302 4;
#X msg 848 308 5;
#X msg 973 308 6;
#X msg 1066 297 7;
#X msg 1203 303 8;
#X msg 1328 303 9;
#X obj 612 392 outlet;
#X obj 612 360 loadbang;
#X connect 0 0 1 0;
#X connect 0 1 2 0;
#X connect 2 0 3 0;
#X connect 4 0 0 0;
#X connect 5 0 14 0;
#X connect 6 0 16 0;
#X connect 7 0 17 0;
#X connect 8 0 18 0;
#X connect 9 0 19 0;
#X connect 10 0 20 0;
#X connect 11 0 21 0;
#X connect 12 0 22 0;
#X connect 13 0 23 0;
#X connect 14 0 1 0;
#X connect 14 1 15 0;
#X connect 15 0 3 0;
#X connect 16 0 1 0;
#X connect 16 1 24 0;
#X connect 17 0 1 0;
#X connect 17 1 25 0;
#X connect 18 0 1 0;
#X connect 18 1 26 0;
#X connect 19 0 1 0;
#X connect 19 1 27 0;
#X connect 20 0 1 0;
#X connect 20 1 28 0;
#X connect 21 0 1 0;
#X connect 21 1 29 0;
#X connect 22 0 1 0;
#X connect 22 1 30 0;
#X connect 23 0 1 0;
#X connect 23 1 31 0;
#X connect 24 0 3 0;
#X connect 25 0 3 0;
#X connect 26 0 3 0;
#X connect 27 0 3 0;
#X connect 28 0 3 0;
#X connect 29 0 3 0;
#X connect 30 0 3 0;
#X connect 31 0 3 0;
#X connect 32 0 33 0;
#X connect 33 0 34 0;
#X connect 33 1 35 0;
#X connect 35 0 3 0;
#X connect 36 0 37 0;
#X connect 37 0 34 0;
#X connect 37 1 54 0;
#X connect 38 0 39 0;
#X connect 39 0 34 0;
#X connect 39 1 55 0;
#X connect 40 0 41 0;
#X connect 41 0 34 0;
#X connect 41 1 56 0;
#X connect 42 0 43 0;
#X connect 43 0 34 0;
#X connect 43 1 57 0;
#X connect 44 0 45 0;
#X connect 45 0 34 0;
#X connect 45 1 58 0;
#X connect 46 0 47 0;
#X connect 47 0 34 0;
#X connect 47 1 59 0;
#X connect 48 0 49 0;
#X connect 49 0 34 0;
#X connect 49 1 60 0;
#X connect 50 0 51 0;
#X connect 51 0 34 0;
#X connect 51 1 61 0;
#X connect 52 0 53 0;
#X connect 53 0 34 0;
#X connect 53 1 62 0;
#X connect 54 0 3 0;
#X connect 55 0 3 0;
#X connect 56 0 3 0;
#X connect 57 0 3 0;
#X connect 58 0 3 0;
#X connect 59 0 3 0;
#X connect 60 0 3 0;
#X connect 61 0 3 0;
#X connect 62 0 3 0;
#X connect 64 0 63 0;
#X restore 795 6 pd preset_receiver;
#X floatatom 1139 36 5 0 0 0 - - - 0;
#X msg 898 39 0;
#N canvas 66 261 1284 473 preset_receiver 0;
#X obj 404 90 t b b, f 6;
#X obj 406 166 outlet;
#X msg 445 129 0;
#X obj 480 170 outlet;
#X obj 404 54 bng 20 250 50 0 empty \$0_save_pres1 Save 0 -10 0 12 #ffc7c6 #000000 #ffffff;
#X obj 487 54 bng 20 250 50 0 empty \$0_save_pres2 Save 0 -10 0 12 #ffc7c6 #000000 #ffffff;
#X obj 563 55 bng 20 250 50 0 empty \$0_save_pres3 Save 0 -10 0 12 #ffc7c6 #000000 #ffffff;
#X obj 648 55 bng 20 250 50 0 empty \$0_save_pres4 Save 0 -10 0 12 #ffc7c6 #000000 #ffffff;
#X obj 726 56 bng 20 250 50 0 empty \$0_save_pres5 Save 0 -10 0 12 #ffc7c6 #000000 #ffffff;
#X obj 807 56 bng 20 250 50 0 empty \$0_save_pres6 Save 0 -10 0 12 #ffc7c6 #000000 #ffffff;
#X obj 884 56 bng 20 250 50 0 empty \$0_save_pres7 Save 0 -10 0 12 #ffc7c6 #000000 #ffffff;
#X obj 965 55 bng 20 250 50 0 empty \$0_save_pres8 Save 0 -10 0 12 #ffc7c6 #000000 #ffffff;
#X obj 1025 56 bng 20 250 50 0 empty \$0_save_pres9 Save 0 -10 0 12 #ffc7c6 #000000 #ffffff;
#X obj 1102 56 bng 20 250 50 0 empty \$0_save_pres10 Save 0 -10 0 12 #ffc7c6 #000000 #ffffff;
#X obj 491 92 t b b, f 6;
#X msg 532 131 1;
#X obj 572 90 t b b, f 6;
#X obj 659 102 t b b, f 6;
#X obj 732 95 t b b, f 6;
#X obj 803 101 t b b, f 6;
#X obj 881 101 t b b, f 6;
#X obj 962 104 t b b, f 6;
#X obj 1034 103 t b b, f 6;
#X obj 1103 101 t b b, f 6;
#X msg 613 129 2;
#X msg 700 141 3;
#X msg 782 134 4;
#X msg 844 140 5;
#X msg 933 135 6;
#X msg 1009 137 7;
#X msg 1075 142 8;
#X msg 1144 140 9;
#X obj 130 251 bng 20 250 50 0 empty \$0_load_pres1 empty 0 -10 0 12 #ffe3c6 #000000 #000000;
#X obj 130 278 t b b;
#X obj 131 332 outlet;
#X msg 191 298 0;
#X obj 255 251 bng 20 250 50 0 empty \$0_load_pres2 empty 0 -10 0 12 #ffe3c6 #000000 #000000;
#X obj 255 278 t b b;
#X obj 392 257 bng 20 250 50 0 empty \$0_load_pres3 empty 0 -10 0 12 #ffe3c6 #000000 #000000;
#X obj 392 284 t b b;
#X obj 517 257 bng 20 250 50 0 empty \$0_load_pres4 empty 0 -10 0 12 #ffe3c6 #000000 #000000;
#X obj 517 284 t b b;
#X obj 632 255 bng 20 250 50 0 empty \$0_load_pres5 empty 0 -10 0 12 #ffe3c6 #000000 #000000;
#X obj 632 282 t b b;
#X obj 769 261 bng 20 250 50 0 empty \$0_load_pres6 empty 0 -10 0 12 #ffe3c6 #000000 #000000;
#X obj 769 288 t b b;
#X obj 894 261 bng 20 250 50 0 empty \$0_load_pres7 empty 0 -10 0 12 #ffe3c6 #000000 #000000;
#X obj 894 288 t b b;
#X obj 987 250 bng 20 250 50 0 empty \$0_load_pres8 empty 0 -10 0 12 #ffe3c6 #000000 #000000;
#X obj 987 277 t b b;
#X obj 1124 256 bng 20 250 50 0 empty \$0_load_pres9 empty 0 -10 0 12 #ffe3c6 #000000 #000000;
#X obj 1124 283 t b b;
#X obj 1249 256 bng 20 250 50 0 empty \$0_load_pres10 empty 0 -10 0 12 #ffe3c6 #000000 #000000;
#X obj 1249 283 t b b;
#X msg 334 298 1;
#X msg 471 304 2;
#X msg 596 304 3;
#X msg 711 302 4;
#X msg 848 308 5;
#X msg 973 308 6;
#X msg 1066 297 7;
#X msg 1203 303 8;
#X msg 1328 303 9;
#X obj 612 392 outlet;
#X obj 612 360 loadbang;
#X connect 0 0 1 0;
#X connect 0 1 2 0;
#X connect 2 0 3 0;
#X connect 4 0 0 0;
#X connect 5 0 14 0;
#X connect 6 0 16 0;
#X connect 7 0 17 0;
#X connect 8 0 18 0;
#X connect 9 0 19 0;
#X connect 10 0 20 0;
#X connect 11 0 21 0;
#X connect 12 0 22 0;
#X connect 13 0 23 0;
#X connect 14 0 1 0;
#X connect 14 1 15 0;
#X connect 15 0 3 0;
#X connect 16 0 1 0;
#X connect 16 1 24 0;
#X connect 17 0 1 0;
#X connect 17 1 25 0;
#X connect 18 0 1 0;
#X connect 18 1 26 0;
#X connect 19 0 1 0;
#X connect 19 1 27 0;
#X connect 20 0 1 0;
#X connect 20 1 28 0;
#X connect 21 0 1 0;
#X connect 21 1 29 0;
#X connect 22 0 1 0;
#X connect 22 1 30 0;
#X connect 23 0 1 0;
#X connect 23 1 31 0;
#X connect 24 0 3 0;
#X connect 25 0 3 0;
#X connect 26 0 3 0;
#X connect 27 0 3 0;
#X connect 28 0 3 0;
#X connect 29 0 3 0;
#X connect 30 0 3 0;
#X connect 31 0 3 0;
#X connect 32 0 33 0;
#X connect 33 0 34 0;
#X connect 33 1 35 0;
#X connect 35 0 3 0;
#X connect 36 0 37 0;
#X connect 37 0 34 0;
#X connect 37 1 54 0;
#X connect 38 0 39 0;
#X connect 39 0 34 0;
#X connect 39 1 55 0;
#X connect 40 0 41 0;
#X connect 41 0 34 0;
#X connect 41 1 56 0;
#X connect 42 0 43 0;
#X connect 43 0 34 0;
#X connect 43 1 57 0;
#X connect 44 0 45 0;
#X connect 45 0 34 0;
#X connect 45 1 58 0;
#X connect 46 0 47 0;
#X connect 47 0 34 0;
#X connect 47 1 59 0;
#X connect 48 0 49 0;
#X connect 49 0 34 0;
#X connect 49 1 60 0;
#X connect 50 0 51 0;
#X connect 51 0 34 0;
#X connect 51 1 61 0;
#X connect 52 0 53 0;
#X connect 53 0 34 0;
#X connect 53 1 62 0;
#X connect 54 0 3 0;
#X connect 55 0 3 0;
#X connect 56 0 3 0;
#X connect 57 0 3 0;
#X connect 58 0 3 0;
#X connect 59 0 3 0;
#X connect 60 0 3 0;
#X connect 61 0 3 0;
#X connect 62 0 3 0;
#X connect 64 0 63 0;
#X restore 646 360 pd preset_receiver;
#X floatatom 1044 365 5 0 0 0 - - - 0;
#X msg 744 366 1;
#N canvas 66 261 1284 473 preset_receiver 0;
#X obj 404 90 t b b, f 6;
#X obj 406 166 outlet;
#X msg 445 129 0;
#X obj 480 170 outlet;
#X obj 404 54 bng 20 250 50 0 empty \$0_save_pres1 Save 0 -10 0 12 #ffc7c6 #000000 #ffffff;
#X obj 487 54 bng 20 250 50 0 empty \$0_save_pres2 Save 0 -10 0 12 #ffc7c6 #000000 #ffffff;
#X obj 563 55 bng 20 250 50 0 empty \$0_save_pres3 Save 0 -10 0 12 #ffc7c6 #000000 #ffffff;
#X obj 648 55 bng 20 250 50 0 empty \$0_save_pres4 Save 0 -10 0 12 #ffc7c6 #000000 #ffffff;
#X obj 726 56 bng 20 250 50 0 empty \$0_save_pres5 Save 0 -10 0 12 #ffc7c6 #000000 #ffffff;
#X obj 807 56 bng 20 250 50 0 empty \$0_save_pres6 Save 0 -10 0 12 #ffc7c6 #000000 #ffffff;
#X obj 884 56 bng 20 250 50 0 empty \$0_save_pres7 Save 0 -10 0 12 #ffc7c6 #000000 #ffffff;
#X obj 965 55 bng 20 250 50 0 empty \$0_save_pres8 Save 0 -10 0 12 #ffc7c6 #000000 #ffffff;
#X obj 1025 56 bng 20 250 50 0 empty \$0_save_pres9 Save 0 -10 0 12 #ffc7c6 #000000 #ffffff;
#X obj 1102 56 bng 20 250 50 0 empty \$0_save_pres10 Save 0 -10 0 12 #ffc7c6 #000000 #ffffff;
#X obj 491 92 t b b, f 6;
#X msg 532 131 1;
#X obj 572 90 t b b, f 6;
#X obj 659 102 t b b, f 6;
#X obj 732 95 t b b, f 6;
#X obj 803 101 t b b, f 6;
#X obj 881 101 t b b, f 6;
#X obj 962 104 t b b, f 6;
#X obj 1034 103 t b b, f 6;
#X obj 1103 101 t b b, f 6;
#X msg 613 129 2;
#X msg 700 141 3;
#X msg 782 134 4;
#X msg 844 140 5;
#X msg 933 135 6;
#X msg 1009 137 7;
#X msg 1075 142 8;
#X msg 1144 140 9;
#X obj 130 251 bng 20 250 50 0 empty \$0_load_pres1 empty 0 -10 0 12 #ffe3c6 #000000 #000000;
#X obj 130 278 t b b;
#X obj 131 332 outlet;
#X msg 191 298 0;
#X obj 255 251 bng 20 250 50 0 empty \$0_load_pres2 empty 0 -10 0 12 #ffe3c6 #000000 #000000;
#X obj 255 278 t b b;
#X obj 392 257 bng 20 250 50 0 empty \$0_load_pres3 empty 0 -10 0 12 #ffe3c6 #000000 #000000;
#X obj 392 284 t b b;
#X obj 517 257 bng 20 250 50 0 empty \$0_load_pres4 empty 0 -10 0 12 #ffe3c6 #000000 #000000;
#X obj 517 284 t b b;
#X obj 632 255 bng 20 250 50 0 empty \$0_load_pres5 empty 0 -10 0 12 #ffe3c6 #000000 #000000;
#X obj 632 282 t b b;
#X obj 769 261 bng 20 250 50 0 empty \$0_load_pres6 empty 0 -10 0 12 #ffe3c6 #000000 #000000;
#X obj 769 288 t b b;
#X obj 894 261 bng 20 250 50 0 empty \$0_load_pres7 empty 0 -10 0 12 #ffe3c6 #000000 #000000;
#X obj 894 288 t b b;
#X obj 987 250 bng 20 250 50 0 empty \$0_load_pres8 empty 0 -10 0 12 #ffe3c6 #000000 #000000;
#X obj 987 277 t b b;
#X obj 1124 256 bng 20 250 50 0 empty \$0_load_pres9 empty 0 -10 0 12 #ffe3c6 #000000 #000000;
#X obj 1124 283 t b b;
#X obj 1249 256 bng 20 250 50 0 empty \$0_load_pres10 empty 0 -10 0 12 #ffe3c6 #000000 #000000;
#X obj 1249 283 t b b;
#X msg 334 298 1;
#X msg 471 304 2;
#X msg 596 304 3;
#X msg 711 302 4;
#X msg 848 308 5;
#X msg 973 308 6;
#X msg 1066 297 7;
#X msg 1203 303 8;
#X msg 1328 303 9;
#X obj 612 392 outlet;
#X obj 612 360 loadbang;
#X connect 0 0 1 0;
#X connect 0 1 2 0;
#X connect 2 0 3 0;
#X connect 4 0 0 0;
#X connect 5 0 14 0;
#X connect 6 0 16 0;
#X connect 7 0 17 0;
#X connect 8 0 18 0;
#X connect 9 0 19 0;
#X connect 10 0 20 0;
#X connect 11 0 21 0;
#X connect 12 0 22 0;
#X connect 13 0 23 0;
#X connect 14 0 1 0;
#X connect 14 1 15 0;
#X connect 15 0 3 0;
#X connect 16 0 1 0;
#X connect 16 1 24 0;
#X connect 17 0 1 0;
#X connect 17 1 25 0;
#X connect 18 0 1 0;
#X connect 18 1 26 0;
#X connect 19 0 1 0;
#X connect 19 1 27 0;
#X connect 20 0 1 0;
#X connect 20 1 28 0;
#X connect 21 0 1 0;
#X connect 21 1 29 0;
#X connect 22 0 1 0;
#X connect 22 1 30 0;
#X connect 23 0 1 0;
#X connect 23 1 31 0;
#X connect 24 0 3 0;
#X connect 25 0 3 0;
#X connect 26 0 3 0;
#X connect 27 0 3 0;
#X connect 28 0 3 0;
#X connect 29 0 3 0;
#X connect 30 0 3 0;
#X connect 31 0 3 0;
#X connect 32 0 33 0;
#X connect 33 0 34 0;
#X connect 33 1 35 0;
#X connect 35 0 3 0;
#X connect 36 0 37 0;
#X connect 37 0 34 0;
#X connect 37 1 54 0;
#X connect 38 0 39 0;
#X connect 39 0 34 0;
#X connect 39 1 55 0;
#X connect 40 0 41 0;
#X connect 41 0 34 0;
#X connect 41 1 56 0;
#X connect 42 0 43 0;
#X connect 43 0 34 0;
#X connect 43 1 57 0;
#X connect 44 0 45 0;
#X connect 45 0 34 0;
#X connect 45 1 58 0;
#X connect 46 0 47 0;
#X connect 47 0 34 0;
#X connect 47 1 59 0;
#X connect 48 0 49 0;
#X connect 49 0 34 0;
#X connect 49 1 60 0;
#X connect 50 0 51 0;
#X connect 51 0 34 0;
#X connect 51 1 61 0;
#X connect 52 0 53 0;
#X connect 53 0 34 0;
#X connect 53 1 62 0;
#X connect 54 0 3 0;
#X connect 55 0 3 0;
#X connect 56 0 3 0;
#X connect 57 0 3 0;
#X connect 58 0 3 0;
#X connect 59 0 3 0;
#X connect 60 0 3 0;
#X connect 61 0 3 0;
#X connect 62 0 3 0;
#X connect 64 0 63 0;
#X restore -39 564 pd preset_receiver;
#X floatatom 1793 406 5 0 0 0 - - - 0;
#X msg 785 747 2;
#N canvas 66 261 1284 473 preset_receiver 0;
#X obj 404 90 t b b, f 6;
#X obj 406 166 outlet;
#X msg 445 129 0;
#X obj 480 170 outlet;
#X obj 404 54 bng 20 250 50 0 empty \$0_save_pres1 Save 0 -10 0 12 #ffc7c6 #000000 #ffffff;
#X obj 487 54 bng 20 250 50 0 empty \$0_save_pres2 Save 0 -10 0 12 #ffc7c6 #000000 #ffffff;
#X obj 563 55 bng 20 250 50 0 empty \$0_save_pres3 Save 0 -10 0 12 #ffc7c6 #000000 #ffffff;
#X obj 648 55 bng 20 250 50 0 empty \$0_save_pres4 Save 0 -10 0 12 #ffc7c6 #000000 #ffffff;
#X obj 726 56 bng 20 250 50 0 empty \$0_save_pres5 Save 0 -10 0 12 #ffc7c6 #000000 #ffffff;
#X obj 807 56 bng 20 250 50 0 empty \$0_save_pres6 Save 0 -10 0 12 #ffc7c6 #000000 #ffffff;
#X obj 884 56 bng 20 250 50 0 empty \$0_save_pres7 Save 0 -10 0 12 #ffc7c6 #000000 #ffffff;
#X obj 965 55 bng 20 250 50 0 empty \$0_save_pres8 Save 0 -10 0 12 #ffc7c6 #000000 #ffffff;
#X obj 1025 56 bng 20 250 50 0 empty \$0_save_pres9 Save 0 -10 0 12 #ffc7c6 #000000 #ffffff;
#X obj 1102 56 bng 20 250 50 0 empty \$0_save_pres10 Save 0 -10 0 12 #ffc7c6 #000000 #ffffff;
#X obj 491 92 t b b, f 6;
#X msg 532 131 1;
#X obj 572 90 t b b, f 6;
#X obj 659 102 t b b, f 6;
#X obj 732 95 t b b, f 6;
#X obj 803 101 t b b, f 6;
#X obj 881 101 t b b, f 6;
#X obj 962 104 t b b, f 6;
#X obj 1034 103 t b b, f 6;
#X obj 1103 101 t b b, f 6;
#X msg 613 129 2;
#X msg 700 141 3;
#X msg 782 134 4;
#X msg 844 140 5;
#X msg 933 135 6;
#X msg 1009 137 7;
#X msg 1075 142 8;
#X msg 1144 140 9;
#X obj 130 251 bng 20 250 50 0 empty \$0_load_pres1 empty 0 -10 0 12 #ffe3c6 #000000 #000000;
#X obj 130 278 t b b;
#X obj 131 332 outlet;
#X msg 191 298 0;
#X obj 255 251 bng 20 250 50 0 empty \$0_load_pres2 empty 0 -10 0 12 #ffe3c6 #000000 #000000;
#X obj 255 278 t b b;
#X obj 392 257 bng 20 250 50 0 empty \$0_load_pres3 empty 0 -10 0 12 #ffe3c6 #000000 #000000;
#X obj 392 284 t b b;
#X obj 517 257 bng 20 250 50 0 empty \$0_load_pres4 empty 0 -10 0 12 #ffe3c6 #000000 #000000;
#X obj 517 284 t b b;
#X obj 632 255 bng 20 250 50 0 empty \$0_load_pres5 empty 0 -10 0 12 #ffe3c6 #000000 #000000;
#X obj 632 282 t b b;
#X obj 769 261 bng 20 250 50 0 empty \$0_load_pres6 empty 0 -10 0 12 #ffe3c6 #000000 #000000;
#X obj 769 288 t b b;
#X obj 894 261 bng 20 250 50 0 empty \$0_load_pres7 empty 0 -10 0 12 #ffe3c6 #000000 #000000;
#X obj 894 288 t b b;
#X obj 987 250 bng 20 250 50 0 empty \$0_load_pres8 empty 0 -10 0 12 #ffe3c6 #000000 #000000;
#X obj 987 277 t b b;
#X obj 1124 256 bng 20 250 50 0 empty \$0_load_pres9 empty 0 -10 0 12 #ffe3c6 #000000 #000000;
#X obj 1124 283 t b b;
#X obj 1249 256 bng 20 250 50 0 empty \$0_load_pres10 empty 0 -10 0 12 #ffe3c6 #000000 #000000;
#X obj 1249 283 t b b;
#X msg 334 298 1;
#X msg 471 304 2;
#X msg 596 304 3;
#X msg 711 302 4;
#X msg 848 308 5;
#X msg 973 308 6;
#X msg 1066 297 7;
#X msg 1203 303 8;
#X msg 1328 303 9;
#X obj 612 392 outlet;
#X obj 612 360 loadbang;
#X connect 0 0 1 0;
#X connect 0 1 2 0;
#X connect 2 0 3 0;
#X connect 4 0 0 0;
#X connect 5 0 14 0;
#X connect 6 0 16 0;
#X connect 7 0 17 0;
#X connect 8 0 18 0;
#X connect 9 0 19 0;
#X connect 10 0 20 0;
#X connect 11 0 21 0;
#X connect 12 0 22 0;
#X connect 13 0 23 0;
#X connect 14 0 1 0;
#X connect 14 1 15 0;
#X connect 15 0 3 0;
#X connect 16 0 1 0;
#X connect 16 1 24 0;
#X connect 17 0 1 0;
#X connect 17 1 25 0;
#X connect 18 0 1 0;
#X connect 18 1 26 0;
#X connect 19 0 1 0;
#X connect 19 1 27 0;
#X connect 20 0 1 0;
#X connect 20 1 28 0;
#X connect 21 0 1 0;
#X connect 21 1 29 0;
#X connect 22 0 1 0;
#X connect 22 1 30 0;
#X connect 23 0 1 0;
#X connect 23 1 31 0;
#X connect 24 0 3 0;
#X connect 25 0 3 0;
#X connect 26 0 3 0;
#X connect 27 0 3 0;
#X connect 28 0 3 0;
#X connect 29 0 3 0;
#X connect 30 0 3 0;
#X connect 31 0 3 0;
#X connect 32 0 33 0;
#X connect 33 0 34 0;
#X connect 33 1 35 0;
#X connect 35 0 3 0;
#X connect 36 0 37 0;
#X connect 37 0 34 0;
#X connect 37 1 54 0;
#X connect 38 0 39 0;
#X connect 39 0 34 0;
#X connect 39 1 55 0;
#X connect 40 0 41 0;
#X connect 41 0 34 0;
#X connect 41 1 56 0;
#X connect 42 0 43 0;
#X connect 43 0 34 0;
#X connect 43 1 57 0;
#X connect 44 0 45 0;
#X connect 45 0 34 0;
#X connect 45 1 58 0;
#X connect 46 0 47 0;
#X connect 47 0 34 0;
#X connect 47 1 59 0;
#X connect 48 0 49 0;
#X connect 49 0 34 0;
#X connect 49 1 60 0;
#X connect 50 0 51 0;
#X connect 51 0 34 0;
#X connect 51 1 61 0;
#X connect 52 0 53 0;
#X connect 53 0 34 0;
#X connect 53 1 62 0;
#X connect 54 0 3 0;
#X connect 55 0 3 0;
#X connect 56 0 3 0;
#X connect 57 0 3 0;
#X connect 58 0 3 0;
#X connect 59 0 3 0;
#X connect 60 0 3 0;
#X connect 61 0 3 0;
#X connect 62 0 3 0;
#X connect 64 0 63 0;
#X restore 669 1077 pd preset_receiver;
#X floatatom 1731 1159 5 0 0 0 - - - 0;
#X msg 772 1110 3;
#N canvas 66 261 1284 473 preset_receiver 0;
#X obj 404 90 t b b, f 6;
#X obj 406 166 outlet;
#X msg 445 129 0;
#X obj 480 170 outlet;
#X obj 404 54 bng 20 250 50 0 empty \$0_save_pres1 Save 0 -10 0 12 #ffc7c6 #000000 #ffffff;
#X obj 487 54 bng 20 250 50 0 empty \$0_save_pres2 Save 0 -10 0 12 #ffc7c6 #000000 #ffffff;
#X obj 563 55 bng 20 250 50 0 empty \$0_save_pres3 Save 0 -10 0 12 #ffc7c6 #000000 #ffffff;
#X obj 648 55 bng 20 250 50 0 empty \$0_save_pres4 Save 0 -10 0 12 #ffc7c6 #000000 #ffffff;
#X obj 726 56 bng 20 250 50 0 empty \$0_save_pres5 Save 0 -10 0 12 #ffc7c6 #000000 #ffffff;
#X obj 807 56 bng 20 250 50 0 empty \$0_save_pres6 Save 0 -10 0 12 #ffc7c6 #000000 #ffffff;
#X obj 884 56 bng 20 250 50 0 empty \$0_save_pres7 Save 0 -10 0 12 #ffc7c6 #000000 #ffffff;
#X obj 965 55 bng 20 250 50 0 empty \$0_save_pres8 Save 0 -10 0 12 #ffc7c6 #000000 #ffffff;
#X obj 1025 56 bng 20 250 50 0 empty \$0_save_pres9 Save 0 -10 0 12 #ffc7c6 #000000 #ffffff;
#X obj 1102 56 bng 20 250 50 0 empty \$0_save_pres10 Save 0 -10 0 12 #ffc7c6 #000000 #ffffff;
#X obj 491 92 t b b, f 6;
#X msg 532 131 1;
#X obj 572 90 t b b, f 6;
#X obj 659 102 t b b, f 6;
#X obj 732 95 t b b, f 6;
#X obj 803 101 t b b, f 6;
#X obj 881 101 t b b, f 6;
#X obj 962 104 t b b, f 6;
#X obj 1034 103 t b b, f 6;
#X obj 1103 101 t b b, f 6;
#X msg 613 129 2;
#X msg 700 141 3;
#X msg 782 134 4;
#X msg 844 140 5;
#X msg 933 135 6;
#X msg 1009 137 7;
#X msg 1075 142 8;
#X msg 1144 140 9;
#X obj 130 251 bng 20 250 50 0 empty \$0_load_pres1 empty 0 -10 0 12 #ffe3c6 #000000 #000000;
#X obj 130 278 t b b;
#X obj 131 332 outlet;
#X msg 191 298 0;
#X obj 255 251 bng 20 250 50 0 empty \$0_load_pres2 empty 0 -10 0 12 #ffe3c6 #000000 #000000;
#X obj 255 278 t b b;
#X obj 392 257 bng 20 250 50 0 empty \$0_load_pres3 empty 0 -10 0 12 #ffe3c6 #000000 #000000;
#X obj 392 284 t b b;
#X obj 517 257 bng 20 250 50 0 empty \$0_load_pres4 empty 0 -10 0 12 #ffe3c6 #000000 #000000;
#X obj 517 284 t b b;
#X obj 632 255 bng 20 250 50 0 empty \$0_load_pres5 empty 0 -10 0 12 #ffe3c6 #000000 #000000;
#X obj 632 282 t b b;
#X obj 769 261 bng 20 250 50 0 empty \$0_load_pres6 empty 0 -10 0 12 #ffe3c6 #000000 #000000;
#X obj 769 288 t b b;
#X obj 894 261 bng 20 250 50 0 empty \$0_load_pres7 empty 0 -10 0 12 #ffe3c6 #000000 #000000;
#X obj 894 288 t b b;
#X obj 987 250 bng 20 250 50 0 empty \$0_load_pres8 empty 0 -10 0 12 #ffe3c6 #000000 #000000;
#X obj 987 277 t b b;
#X obj 1124 256 bng 20 250 50 0 empty \$0_load_pres9 empty 0 -10 0 12 #ffe3c6 #000000 #000000;
#X obj 1124 283 t b b;
#X obj 1249 256 bng 20 250 50 0 empty \$0_load_pres10 empty 0 -10 0 12 #ffe3c6 #000000 #000000;
#X obj 1249 283 t b b;
#X msg 334 298 1;
#X msg 471 304 2;
#X msg 596 304 3;
#X msg 711 302 4;
#X msg 848 308 5;
#X msg 973 308 6;
#X msg 1066 297 7;
#X msg 1203 303 8;
#X msg 1328 303 9;
#X obj 612 392 outlet;
#X obj 612 360 loadbang;
#X connect 0 0 1 0;
#X connect 0 1 2 0;
#X connect 2 0 3 0;
#X connect 4 0 0 0;
#X connect 5 0 14 0;
#X connect 6 0 16 0;
#X connect 7 0 17 0;
#X connect 8 0 18 0;
#X connect 9 0 19 0;
#X connect 10 0 20 0;
#X connect 11 0 21 0;
#X connect 12 0 22 0;
#X connect 13 0 23 0;
#X connect 14 0 1 0;
#X connect 14 1 15 0;
#X connect 15 0 3 0;
#X connect 16 0 1 0;
#X connect 16 1 24 0;
#X connect 17 0 1 0;
#X connect 17 1 25 0;
#X connect 18 0 1 0;
#X connect 18 1 26 0;
#X connect 19 0 1 0;
#X connect 19 1 27 0;
#X connect 20 0 1 0;
#X connect 20 1 28 0;
#X connect 21 0 1 0;
#X connect 21 1 29 0;
#X connect 22 0 1 0;
#X connect 22 1 30 0;
#X connect 23 0 1 0;
#X connect 23 1 31 0;
#X connect 24 0 3 0;
#X connect 25 0 3 0;
#X connect 26 0 3 0;
#X connect 27 0 3 0;
#X connect 28 0 3 0;
#X connect 29 0 3 0;
#X connect 30 0 3 0;
#X connect 31 0 3 0;
#X connect 32 0 33 0;
#X connect 33 0 34 0;
#X connect 33 1 35 0;
#X connect 35 0 3 0;
#X connect 36 0 37 0;
#X connect 37 0 34 0;
#X connect 37 1 54 0;
#X connect 38 0 39 0;
#X connect 39 0 34 0;
#X connect 39 1 55 0;
#X connect 40 0 41 0;
#X connect 41 0 34 0;
#X connect 41 1 56 0;
#X connect 42 0 43 0;
#X connect 43 0 34 0;
#X connect 43 1 57 0;
#X connect 44 0 45 0;
#X connect 45 0 34 0;
#X connect 45 1 58 0;
#X connect 46 0 47 0;
#X connect 47 0 34 0;
#X connect 47 1 59 0;
#X connect 48 0 49 0;
#X connect 49 0 34 0;
#X connect 49 1 60 0;
#X connect 50 0 51 0;
#X connect 51 0 34 0;
#X connect 51 1 61 0;
#X connect 52 0 53 0;
#X connect 53 0 34 0;
#X connect 53 1 62 0;
#X connect 54 0 3 0;
#X connect 55 0 3 0;
#X connect 56 0 3 0;
#X connect 57 0 3 0;
#X connect 58 0 3 0;
#X connect 59 0 3 0;
#X connect 60 0 3 0;
#X connect 61 0 3 0;
#X connect 62 0 3 0;
#X connect 64 0 63 0;
#X restore 1725 1369 pd preset_receiver;
#X floatatom 1706 1470 5 0 0 0 - - - 0;
#X msg 794 1472 4;
#N canvas 66 261 1284 473 preset_receiver 0;
#X obj 404 90 t b b, f 6;
#X obj 406 166 outlet;
#X msg 445 129 0;
#X obj 480 170 outlet;
#X obj 404 54 bng 20 250 50 0 empty \$0_save_pres1 Save 0 -10 0 12 #ffc7c6 #000000 #ffffff;
#X obj 487 54 bng 20 250 50 0 empty \$0_save_pres2 Save 0 -10 0 12 #ffc7c6 #000000 #ffffff;
#X obj 563 55 bng 20 250 50 0 empty \$0_save_pres3 Save 0 -10 0 12 #ffc7c6 #000000 #ffffff;
#X obj 648 55 bng 20 250 50 0 empty \$0_save_pres4 Save 0 -10 0 12 #ffc7c6 #000000 #ffffff;
#X obj 726 56 bng 20 250 50 0 empty \$0_save_pres5 Save 0 -10 0 12 #ffc7c6 #000000 #ffffff;
#X obj 807 56 bng 20 250 50 0 empty \$0_save_pres6 Save 0 -10 0 12 #ffc7c6 #000000 #ffffff;
#X obj 884 56 bng 20 250 50 0 empty \$0_save_pres7 Save 0 -10 0 12 #ffc7c6 #000000 #ffffff;
#X obj 965 55 bng 20 250 50 0 empty \$0_save_pres8 Save 0 -10 0 12 #ffc7c6 #000000 #ffffff;
#X obj 1025 56 bng 20 250 50 0 empty \$0_save_pres9 Save 0 -10 0 12 #ffc7c6 #000000 #ffffff;
#X obj 1102 56 bng 20 250 50 0 empty \$0_save_pres10 Save 0 -10 0 12 #ffc7c6 #000000 #ffffff;
#X obj 491 92 t b b, f 6;
#X msg 532 131 1;
#X obj 572 90 t b b, f 6;
#X obj 659 102 t b b, f 6;
#X obj 732 95 t b b, f 6;
#X obj 803 101 t b b, f 6;
#X obj 881 101 t b b, f 6;
#X obj 962 104 t b b, f 6;
#X obj 1034 103 t b b, f 6;
#X obj 1103 101 t b b, f 6;
#X msg 613 129 2;
#X msg 700 141 3;
#X msg 782 134 4;
#X msg 844 140 5;
#X msg 933 135 6;
#X msg 1009 137 7;
#X msg 1075 142 8;
#X msg 1144 140 9;
#X obj 130 251 bng 20 250 50 0 empty \$0_load_pres1 empty 0 -10 0 12 #ffe3c6 #000000 #000000;
#X obj 130 278 t b b;
#X obj 131 332 outlet;
#X msg 191 298 0;
#X obj 255 251 bng 20 250 50 0 empty \$0_load_pres2 empty 0 -10 0 12 #ffe3c6 #000000 #000000;
#X obj 255 278 t b b;
#X obj 392 257 bng 20 250 50 0 empty \$0_load_pres3 empty 0 -10 0 12 #ffe3c6 #000000 #000000;
#X obj 392 284 t b b;
#X obj 517 257 bng 20 250 50 0 empty \$0_load_pres4 empty 0 -10 0 12 #ffe3c6 #000000 #000000;
#X obj 517 284 t b b;
#X obj 632 255 bng 20 250 50 0 empty \$0_load_pres5 empty 0 -10 0 12 #ffe3c6 #000000 #000000;
#X obj 632 282 t b b;
#X obj 769 261 bng 20 250 50 0 empty \$0_load_pres6 empty 0 -10 0 12 #ffe3c6 #000000 #000000;
#X obj 769 288 t b b;
#X obj 894 261 bng 20 250 50 0 empty \$0_load_pres7 empty 0 -10 0 12 #ffe3c6 #000000 #000000;
#X obj 894 288 t b b;
#X obj 987 250 bng 20 250 50 0 empty \$0_load_pres8 empty 0 -10 0 12 #ffe3c6 #000000 #000000;
#X obj 987 277 t b b;
#X obj 1124 256 bng 20 250 50 0 empty \$0_load_pres9 empty 0 -10 0 12 #ffe3c6 #000000 #000000;
#X obj 1124 283 t b b;
#X obj 1249 256 bng 20 250 50 0 empty \$0_load_pres10 empty 0 -10 0 12 #ffe3c6 #000000 #000000;
#X obj 1249 283 t b b;
#X msg 334 298 1;
#X msg 471 304 2;
#X msg 596 304 3;
#X msg 711 302 4;
#X msg 848 308 5;
#X msg 973 308 6;
#X msg 1066 297 7;
#X msg 1203 303 8;
#X msg 1328 303 9;
#X obj 612 392 outlet;
#X obj 612 360 loadbang;
#X connect 0 0 1 0;
#X connect 0 1 2 0;
#X connect 2 0 3 0;
#X connect 4 0 0 0;
#X connect 5 0 14 0;
#X connect 6 0 16 0;
#X connect 7 0 17 0;
#X connect 8 0 18 0;
#X connect 9 0 19 0;
#X connect 10 0 20 0;
#X connect 11 0 21 0;
#X connect 12 0 22 0;
#X connect 13 0 23 0;
#X connect 14 0 1 0;
#X connect 14 1 15 0;
#X connect 15 0 3 0;
#X connect 16 0 1 0;
#X connect 16 1 24 0;
#X connect 17 0 1 0;
#X connect 17 1 25 0;
#X connect 18 0 1 0;
#X connect 18 1 26 0;
#X connect 19 0 1 0;
#X connect 19 1 27 0;
#X connect 20 0 1 0;
#X connect 20 1 28 0;
#X connect 21 0 1 0;
#X connect 21 1 29 0;
#X connect 22 0 1 0;
#X connect 22 1 30 0;
#X connect 23 0 1 0;
#X connect 23 1 31 0;
#X connect 24 0 3 0;
#X connect 25 0 3 0;
#X connect 26 0 3 0;
#X connect 27 0 3 0;
#X connect 28 0 3 0;
#X connect 29 0 3 0;
#X connect 30 0 3 0;
#X connect 31 0 3 0;
#X connect 32 0 33 0;
#X connect 33 0 34 0;
#X connect 33 1 35 0;
#X connect 35 0 3 0;
#X connect 36 0 37 0;
#X connect 37 0 34 0;
#X connect 37 1 54 0;
#X connect 38 0 39 0;
#X connect 39 0 34 0;
#X connect 39 1 55 0;
#X connect 40 0 41 0;
#X connect 41 0 34 0;
#X connect 41 1 56 0;
#X connect 42 0 43 0;
#X connect 43 0 34 0;
#X connect 43 1 57 0;
#X connect 44 0 45 0;
#X connect 45 0 34 0;
#X connect 45 1 58 0;
#X connect 46 0 47 0;
#X connect 47 0 34 0;
#X connect 47 1 59 0;
#X connect 48 0 49 0;
#X connect 49 0 34 0;
#X connect 49 1 60 0;
#X connect 50 0 51 0;
#X connect 51 0 34 0;
#X connect 51 1 61 0;
#X connect 52 0 53 0;
#X connect 53 0 34 0;
#X connect 53 1 62 0;
#X connect 54 0 3 0;
#X connect 55 0 3 0;
#X connect 56 0 3 0;
#X connect 57 0 3 0;
#X connect 58 0 3 0;
#X connect 59 0 3 0;
#X connect 60 0 3 0;
#X connect 61 0 3 0;
#X connect 62 0 3 0;
#X connect 64 0 63 0;
#X restore 1734 1601 pd preset_receiver;
#X floatatom 1724 1750 5 0 0 0 - - - 0;
#X msg 1739 1787 5;
#N canvas 66 261 1284 473 preset_receiver 0;
#X obj 404 90 t b b, f 6;
#X obj 406 166 outlet;
#X msg 445 129 0;
#X obj 480 170 outlet;
#X obj 404 54 bng 20 250 50 0 empty \$0_save_pres1 Save 0 -10 0 12 #ffc7c6 #000000 #ffffff;
#X obj 487 54 bng 20 250 50 0 empty \$0_save_pres2 Save 0 -10 0 12 #ffc7c6 #000000 #ffffff;
#X obj 563 55 bng 20 250 50 0 empty \$0_save_pres3 Save 0 -10 0 12 #ffc7c6 #000000 #ffffff;
#X obj 648 55 bng 20 250 50 0 empty \$0_save_pres4 Save 0 -10 0 12 #ffc7c6 #000000 #ffffff;
#X obj 726 56 bng 20 250 50 0 empty \$0_save_pres5 Save 0 -10 0 12 #ffc7c6 #000000 #ffffff;
#X obj 807 56 bng 20 250 50 0 empty \$0_save_pres6 Save 0 -10 0 12 #ffc7c6 #000000 #ffffff;
#X obj 884 56 bng 20 250 50 0 empty \$0_save_pres7 Save 0 -10 0 12 #ffc7c6 #000000 #ffffff;
#X obj 965 55 bng 20 250 50 0 empty \$0_save_pres8 Save 0 -10 0 12 #ffc7c6 #000000 #ffffff;
#X obj 1025 56 bng 20 250 50 0 empty \$0_save_pres9 Save 0 -10 0 12 #ffc7c6 #000000 #ffffff;
#X obj 1102 56 bng 20 250 50 0 empty \$0_save_pres10 Save 0 -10 0 12 #ffc7c6 #000000 #ffffff;
#X obj 491 92 t b b, f 6;
#X msg 532 131 1;
#X obj 572 90 t b b, f 6;
#X obj 659 102 t b b, f 6;
#X obj 732 95 t b b, f 6;
#X obj 803 101 t b b, f 6;
#X obj 881 101 t b b, f 6;
#X obj 962 104 t b b, f 6;
#X obj 1034 103 t b b, f 6;
#X obj 1103 101 t b b, f 6;
#X msg 613 129 2;
#X msg 700 141 3;
#X msg 782 134 4;
#X msg 844 140 5;
#X msg 933 135 6;
#X msg 1009 137 7;
#X msg 1075 142 8;
#X msg 1144 140 9;
#X obj 130 251 bng 20 250 50 0 empty \$0_load_pres1 empty 0 -10 0 12 #ffe3c6 #000000 #000000;
#X obj 130 278 t b b;
#X obj 131 332 outlet;
#X msg 191 298 0;
#X obj 255 251 bng 20 250 50 0 empty \$0_load_pres2 empty 0 -10 0 12 #ffe3c6 #000000 #000000;
#X obj 255 278 t b b;
#X obj 392 257 bng 20 250 50 0 empty \$0_load_pres3 empty 0 -10 0 12 #ffe3c6 #000000 #000000;
#X obj 392 284 t b b;
#X obj 517 257 bng 20 250 50 0 empty \$0_load_pres4 empty 0 -10 0 12 #ffe3c6 #000000 #000000;
#X obj 517 284 t b b;
#X obj 632 255 bng 20 250 50 0 empty \$0_load_pres5 empty 0 -10 0 12 #ffe3c6 #000000 #000000;
#X obj 632 282 t b b;
#X obj 769 261 bng 20 250 50 0 empty \$0_load_pres6 empty 0 -10 0 12 #ffe3c6 #000000 #000000;
#X obj 769 288 t b b;
#X obj 894 261 bng 20 250 50 0 empty \$0_load_pres7 empty 0 -10 0 12 #ffe3c6 #000000 #000000;
#X obj 894 288 t b b;
#X obj 987 250 bng 20 250 50 0 empty \$0_load_pres8 empty 0 -10 0 12 #ffe3c6 #000000 #000000;
#X obj 987 277 t b b;
#X obj 1124 256 bng 20 250 50 0 empty \$0_load_pres9 empty 0 -10 0 12 #ffe3c6 #000000 #000000;
#X obj 1124 283 t b b;
#X obj 1249 256 bng 20 250 50 0 empty \$0_load_pres10 empty 0 -10 0 12 #ffe3c6 #000000 #000000;
#X obj 1249 283 t b b;
#X msg 334 298 1;
#X msg 471 304 2;
#X msg 596 304 3;
#X msg 711 302 4;
#X msg 848 308 5;
#X msg 973 308 6;
#X msg 1066 297 7;
#X msg 1203 303 8;
#X msg 1328 303 9;
#X obj 612 392 outlet;
#X obj 612 360 loadbang;
#X connect 0 0 1 0;
#X connect 0 1 2 0;
#X connect 2 0 3 0;
#X connect 4 0 0 0;
#X connect 5 0 14 0;
#X connect 6 0 16 0;
#X connect 7 0 17 0;
#X connect 8 0 18 0;
#X connect 9 0 19 0;
#X connect 10 0 20 0;
#X connect 11 0 21 0;
#X connect 12 0 22 0;
#X connect 13 0 23 0;
#X connect 14 0 1 0;
#X connect 14 1 15 0;
#X connect 15 0 3 0;
#X connect 16 0 1 0;
#X connect 16 1 24 0;
#X connect 17 0 1 0;
#X connect 17 1 25 0;
#X connect 18 0 1 0;
#X connect 18 1 26 0;
#X connect 19 0 1 0;
#X connect 19 1 27 0;
#X connect 20 0 1 0;
#X connect 20 1 28 0;
#X connect 21 0 1 0;
#X connect 21 1 29 0;
#X connect 22 0 1 0;
#X connect 22 1 30 0;
#X connect 23 0 1 0;
#X connect 23 1 31 0;
#X connect 24 0 3 0;
#X connect 25 0 3 0;
#X connect 26 0 3 0;
#X connect 27 0 3 0;
#X connect 28 0 3 0;
#X connect 29 0 3 0;
#X connect 30 0 3 0;
#X connect 31 0 3 0;
#X connect 32 0 33 0;
#X connect 33 0 34 0;
#X connect 33 1 35 0;
#X connect 35 0 3 0;
#X connect 36 0 37 0;
#X connect 37 0 34 0;
#X connect 37 1 54 0;
#X connect 38 0 39 0;
#X connect 39 0 34 0;
#X connect 39 1 55 0;
#X connect 40 0 41 0;
#X connect 41 0 34 0;
#X connect 41 1 56 0;
#X connect 42 0 43 0;
#X connect 43 0 34 0;
#X connect 43 1 57 0;
#X connect 44 0 45 0;
#X connect 45 0 34 0;
#X connect 45 1 58 0;
#X connect 46 0 47 0;
#X connect 47 0 34 0;
#X connect 47 1 59 0;
#X connect 48 0 49 0;
#X connect 49 0 34 0;
#X connect 49 1 60 0;
#X connect 50 0 51 0;
#X connect 51 0 34 0;
#X connect 51 1 61 0;
#X connect 52 0 53 0;
#X connect 53 0 34 0;
#X connect 53 1 62 0;
#X connect 54 0 3 0;
#X connect 55 0 3 0;
#X connect 56 0 3 0;
#X connect 57 0 3 0;
#X connect 58 0 3 0;
#X connect 59 0 3 0;
#X connect 60 0 3 0;
#X connect 61 0 3 0;
#X connect 62 0 3 0;
#X connect 64 0 63 0;
#X restore 689 2225 pd preset_receiver;
#X floatatom 1758 2204 5 0 0 0 - - - 0;
#X msg 792 2258 6;
#N canvas 66 261 1284 473 preset_receiver 0;
#X obj 404 90 t b b, f 6;
#X obj 406 166 outlet;
#X msg 445 129 0;
#X obj 480 170 outlet;
#X obj 404 54 bng 20 250 50 0 empty \$0_save_pres1 Save 0 -10 0 12 #ffc7c6 #000000 #ffffff;
#X obj 487 54 bng 20 250 50 0 empty \$0_save_pres2 Save 0 -10 0 12 #ffc7c6 #000000 #ffffff;
#X obj 563 55 bng 20 250 50 0 empty \$0_save_pres3 Save 0 -10 0 12 #ffc7c6 #000000 #ffffff;
#X obj 648 55 bng 20 250 50 0 empty \$0_save_pres4 Save 0 -10 0 12 #ffc7c6 #000000 #ffffff;
#X obj 726 56 bng 20 250 50 0 empty \$0_save_pres5 Save 0 -10 0 12 #ffc7c6 #000000 #ffffff;
#X obj 807 56 bng 20 250 50 0 empty \$0_save_pres6 Save 0 -10 0 12 #ffc7c6 #000000 #ffffff;
#X obj 884 56 bng 20 250 50 0 empty \$0_save_pres7 Save 0 -10 0 12 #ffc7c6 #000000 #ffffff;
#X obj 965 55 bng 20 250 50 0 empty \$0_save_pres8 Save 0 -10 0 12 #ffc7c6 #000000 #ffffff;
#X obj 1025 56 bng 20 250 50 0 empty \$0_save_pres9 Save 0 -10 0 12 #ffc7c6 #000000 #ffffff;
#X obj 1102 56 bng 20 250 50 0 empty \$0_save_pres10 Save 0 -10 0 12 #ffc7c6 #000000 #ffffff;
#X obj 491 92 t b b, f 6;
#X msg 532 131 1;
#X obj 572 90 t b b, f 6;
#X obj 659 102 t b b, f 6;
#X obj 732 95 t b b, f 6;
#X obj 803 101 t b b, f 6;
#X obj 881 101 t b b, f 6;
#X obj 962 104 t b b, f 6;
#X obj 1034 103 t b b, f 6;
#X obj 1103 101 t b b, f 6;
#X msg 613 129 2;
#X msg 700 141 3;
#X msg 782 134 4;
#X msg 844 140 5;
#X msg 933 135 6;
#X msg 1009 137 7;
#X msg 1075 142 8;
#X msg 1144 140 9;
#X obj 130 251 bng 20 250 50 0 empty \$0_load_pres1 empty 0 -10 0 12 #ffe3c6 #000000 #000000;
#X obj 130 278 t b b;
#X obj 131 332 outlet;
#X msg 191 298 0;
#X obj 255 251 bng 20 250 50 0 empty \$0_load_pres2 empty 0 -10 0 12 #ffe3c6 #000000 #000000;
#X obj 255 278 t b b;
#X obj 392 257 bng 20 250 50 0 empty \$0_load_pres3 empty 0 -10 0 12 #ffe3c6 #000000 #000000;
#X obj 392 284 t b b;
#X obj 517 257 bng 20 250 50 0 empty \$0_load_pres4 empty 0 -10 0 12 #ffe3c6 #000000 #000000;
#X obj 517 284 t b b;
#X obj 632 255 bng 20 250 50 0 empty \$0_load_pres5 empty 0 -10 0 12 #ffe3c6 #000000 #000000;
#X obj 632 282 t b b;
#X obj 769 261 bng 20 250 50 0 empty \$0_load_pres6 empty 0 -10 0 12 #ffe3c6 #000000 #000000;
#X obj 769 288 t b b;
#X obj 894 261 bng 20 250 50 0 empty \$0_load_pres7 empty 0 -10 0 12 #ffe3c6 #000000 #000000;
#X obj 894 288 t b b;
#X obj 987 250 bng 20 250 50 0 empty \$0_load_pres8 empty 0 -10 0 12 #ffe3c6 #000000 #000000;
#X obj 987 277 t b b;
#X obj 1124 256 bng 20 250 50 0 empty \$0_load_pres9 empty 0 -10 0 12 #ffe3c6 #000000 #000000;
#X obj 1124 283 t b b;
#X obj 1249 256 bng 20 250 50 0 empty \$0_load_pres10 empty 0 -10 0 12 #ffe3c6 #000000 #000000;
#X obj 1249 283 t b b;
#X msg 334 298 1;
#X msg 471 304 2;
#X msg 596 304 3;
#X msg 711 302 4;
#X msg 848 308 5;
#X msg 973 308 6;
#X msg 1066 297 7;
#X msg 1203 303 8;
#X msg 1328 303 9;
#X obj 612 392 outlet;
#X obj 612 360 loadbang;
#X connect 0 0 1 0;
#X connect 0 1 2 0;
#X connect 2 0 3 0;
#X connect 4 0 0 0;
#X connect 5 0 14 0;
#X connect 6 0 16 0;
#X connect 7 0 17 0;
#X connect 8 0 18 0;
#X connect 9 0 19 0;
#X connect 10 0 20 0;
#X connect 11 0 21 0;
#X connect 12 0 22 0;
#X connect 13 0 23 0;
#X connect 14 0 1 0;
#X connect 14 1 15 0;
#X connect 15 0 3 0;
#X connect 16 0 1 0;
#X connect 16 1 24 0;
#X connect 17 0 1 0;
#X connect 17 1 25 0;
#X connect 18 0 1 0;
#X connect 18 1 26 0;
#X connect 19 0 1 0;
#X connect 19 1 27 0;
#X connect 20 0 1 0;
#X connect 20 1 28 0;
#X connect 21 0 1 0;
#X connect 21 1 29 0;
#X connect 22 0 1 0;
#X connect 22 1 30 0;
#X connect 23 0 1 0;
#X connect 23 1 31 0;
#X connect 24 0 3 0;
#X connect 25 0 3 0;
#X connect 26 0 3 0;
#X connect 27 0 3 0;
#X connect 28 0 3 0;
#X connect 29 0 3 0;
#X connect 30 0 3 0;
#X connect 31 0 3 0;
#X connect 32 0 33 0;
#X connect 33 0 34 0;
#X connect 33 1 35 0;
#X connect 35 0 3 0;
#X connect 36 0 37 0;
#X connect 37 0 34 0;
#X connect 37 1 54 0;
#X connect 38 0 39 0;
#X connect 39 0 34 0;
#X connect 39 1 55 0;
#X connect 40 0 41 0;
#X connect 41 0 34 0;
#X connect 41 1 56 0;
#X connect 42 0 43 0;
#X connect 43 0 34 0;
#X connect 43 1 57 0;
#X connect 44 0 45 0;
#X connect 45 0 34 0;
#X connect 45 1 58 0;
#X connect 46 0 47 0;
#X connect 47 0 34 0;
#X connect 47 1 59 0;
#X connect 48 0 49 0;
#X connect 49 0 34 0;
#X connect 49 1 60 0;
#X connect 50 0 51 0;
#X connect 51 0 34 0;
#X connect 51 1 61 0;
#X connect 52 0 53 0;
#X connect 53 0 34 0;
#X connect 53 1 62 0;
#X connect 54 0 3 0;
#X connect 55 0 3 0;
#X connect 56 0 3 0;
#X connect 57 0 3 0;
#X connect 58 0 3 0;
#X connect 59 0 3 0;
#X connect 60 0 3 0;
#X connect 61 0 3 0;
#X connect 62 0 3 0;
#X connect 64 0 63 0;
#X restore 672 2583 pd preset_receiver;
#X floatatom 1016 2600 5 0 0 0 - - - 0;
#X msg 790 2617 7;
#X obj 1321 194 cnv 20 200 150 empty empty empty 20 12 0 12 #e3c6ff #404040 0;
#X obj 1348 220 bng 40 250 50 0 global_start empty MASTER\ START -18 -10 0 12 #0f4710 #000000 #000000;
#X obj 1442 220 bng 40 250 50 0 global_stop empty MASTER\ STOP -10 -10 0 12 #551312 #ffffff #000000;
#X obj 1394 293 bng 40 250 50 0 global_reset empty MASTER\ RESET -10 -10 0 12 #0e4345 #ffffff #000000;
#X obj 1433 581 loadbang;
#X text 1431 40 HAL, f 4;
#X obj 1311 345 cnv 20 220 250 empty empty empty 20 12 0 12 #c6feff #404040 0;
#N canvas 0 50 450 250 (subpatch) 0;
#X array MASTER_SCALE 5 float 3;
#A 0 8.54286 7.05 4.06429 4.77143 8.77857;
#A color 0;
#A width 2;
#X coords 0 1 5 12 200 140 1 0 0;
#X restore 1317 359 graph;
#X obj 1388 556 bng 40 250 50 0 global_scale_send empty SEND\ MASTER\ SCALE -30 -10 0 12 #ff8300 #ffffff #000000;
#N canvas 66 32 1300 665 master_scale 0;
#X obj 168 174 metro 50;
#X obj 190 147 loadbang;
#X obj 156 143 bng 20 250 50 0 empty empty empty 0 -10 0 12 #fcfcfc #000000 #000000;
#X floatatom 219 313 5 0 0 0 - - \$0_scale_note_1 0;
#X msg 168 222 0;
#X obj 168 249 tabread MASTER_SCALE;
#X obj 409 146 metro 50;
#X obj 431 119 loadbang;
#X obj 397 115 bng 20 250 50 0 empty empty empty 0 -10 0 12 #fcfcfc #000000 #000000;
#X floatatom 344 248 5 0 0 0 - - \$0_scale_note_1 0;
#X obj 344 216 tabread MASTER_SCALE;
#X obj 588 152 metro 50;
#X obj 610 125 loadbang;
#X obj 576 121 bng 20 250 50 0 empty empty empty 0 -10 0 12 #fcfcfc #000000 #000000;
#X floatatom 523 254 5 0 0 0 - - \$0_scale_note_1 0;
#X obj 523 222 tabread MASTER_SCALE;
#X obj 828 145 metro 50;
#X obj 850 118 loadbang;
#X obj 816 114 bng 20 250 50 0 empty empty empty 0 -10 0 12 #fcfcfc #000000 #000000;
#X floatatom 763 247 5 0 0 0 - - \$0_scale_note_1 0;
#X obj 763 215 tabread MASTER_SCALE;
#X obj 1091 142 metro 50;
#X obj 1113 115 loadbang;
#X obj 1079 111 bng 20 250 50 0 empty empty empty 0 -10 0 12 #fcfcfc #000000 #000000;
#X floatatom 1026 244 5 0 0 0 - - \$0_scale_note_1 0;
#X obj 1005 213 tabread MASTER_SCALE;
#X msg 344 189 1;
#X msg 523 195 2;
#X msg 763 188 3;
#X msg 1026 185 4;
#X obj 150 344 s master_scale_0;
#X obj 327 346 s master_scale_1;
#X obj 505 347 s master_scale_2;
#X obj 745 345 s master_scale_3;
#X obj 1008 344 s master_scale_4;
#X obj 150 304 f;
#X obj 327 292 f;
#X obj 505 303 f;
#X obj 745 304 f;
#X obj 1008 307 f;
#X obj 348 38 bng 20 250 50 0 empty global_scale_send empty 0 -10 0 12 #fcfcfc #000000 #000000;
#X obj 261 438 % 12;
#X floatatom 336 452 5 0 0 0 - - - 0;
#N canvas 139 107 450 300 note_name 0;
#X obj 40 166 inlet;
#X obj 69 208 select 0 1 2 3 4 5 6 7 8 9 10 11;
#X obj 43 348 outlet;
#X msg 42 279 symbol C;
#X msg 218 271 symbol D;
#X msg 394 271 symbol E;
#X msg 114 278 symbol C#/Db;
#X msg 291 273 symbol D#/Eb;
#X msg 478 272 symbol F;
#X msg 554 271 symbol F#/Gb;
#X msg 659 268 symbol G;
#X msg 740 265 symbol A;
#X msg 812 264 symbol A#/Bb;
#X msg 910 264 symbol B;
#X msg 981 264 symbol C;
#X connect 0 0 1 0;
#X connect 1 0 3 0;
#X connect 1 1 6 0;
#X connect 1 2 4 0;
#X connect 1 3 7 0;
#X connect 1 4 5 0;
#X connect 1 5 8 0;
#X connect 1 6 9 0;
#X connect 1 8 10 0;
#X connect 1 9 11 0;
#X connect 1 10 12 0;
#X connect 1 11 13 0;
#X connect 1 12 14 0;
#X connect 3 0 2 0;
#X connect 4 0 2 0;
#X connect 5 0 2 0;
#X connect 6 0 2 0;
#X connect 7 0 2 0;
#X connect 8 0 2 0;
#X connect 9 0 2 0;
#X connect 10 0 2 0;
#X connect 11 0 2 0;
#X connect 12 0 2 0;
#X connect 13 0 2 0;
#X restore 293 539 pd note_name;
#X obj 294 575 outlet;
#X obj 441 437 % 12;
#X floatatom 516 451 5 0 0 0 - - - 0;
#N canvas 139 107 450 300 note_name 0;
#X obj 40 166 inlet;
#X obj 69 208 select 0 1 2 3 4 5 6 7 8 9 10 11;
#X obj 43 348 outlet;
#X msg 42 279 symbol C;
#X msg 218 271 symbol D;
#X msg 394 271 symbol E;
#X msg 114 278 symbol C#/Db;
#X msg 291 273 symbol D#/Eb;
#X msg 478 272 symbol F;
#X msg 554 271 symbol F#/Gb;
#X msg 659 268 symbol G;
#X msg 740 265 symbol A;
#X msg 812 264 symbol A#/Bb;
#X msg 910 264 symbol B;
#X msg 981 264 symbol C;
#X connect 0 0 1 0;
#X connect 1 0 3 0;
#X connect 1 1 6 0;
#X connect 1 2 4 0;
#X connect 1 3 7 0;
#X connect 1 4 5 0;
#X connect 1 5 8 0;
#X connect 1 6 9 0;
#X connect 1 8 10 0;
#X connect 1 9 11 0;
#X connect 1 10 12 0;
#X connect 1 11 13 0;
#X connect 1 12 14 0;
#X connect 3 0 2 0;
#X connect 4 0 2 0;
#X connect 5 0 2 0;
#X connect 6 0 2 0;
#X connect 7 0 2 0;
#X connect 8 0 2 0;
#X connect 9 0 2 0;
#X connect 10 0 2 0;
#X connect 11 0 2 0;
#X connect 12 0 2 0;
#X connect 13 0 2 0;
#X restore 473 538 pd note_name;
#X obj 474 574 outlet;
#X obj 611 442 % 12;
#X floatatom 686 456 5 0 0 0 - - - 0;
#N canvas 139 107 450 300 note_name 0;
#X obj 40 166 inlet;
#X obj 69 208 select 0 1 2 3 4 5 6 7 8 9 10 11;
#X obj 43 348 outlet;
#X msg 42 279 symbol C;
#X msg 218 271 symbol D;
#X msg 394 271 symbol E;
#X msg 114 278 symbol C#/Db;
#X msg 291 273 symbol D#/Eb;
#X msg 478 272 symbol F;
#X msg 554 271 symbol F#/Gb;
#X msg 659 268 symbol G;
#X msg 740 265 symbol A;
#X msg 812 264 symbol A#/Bb;
#X msg 910 264 symbol B;
#X msg 981 264 symbol C;
#X connect 0 0 1 0;
#X connect 1 0 3 0;
#X connect 1 1 6 0;
#X connect 1 2 4 0;
#X connect 1 3 7 0;
#X connect 1 4 5 0;
#X connect 1 5 8 0;
#X connect 1 6 9 0;
#X connect 1 8 10 0;
#X connect 1 9 11 0;
#X connect 1 10 12 0;
#X connect 1 11 13 0;
#X connect 1 12 14 0;
#X connect 3 0 2 0;
#X connect 4 0 2 0;
#X connect 5 0 2 0;
#X connect 6 0 2 0;
#X connect 7 0 2 0;
#X connect 8 0 2 0;
#X connect 9 0 2 0;
#X connect 10 0 2 0;
#X connect 11 0 2 0;
#X connect 12 0 2 0;
#X connect 13 0 2 0;
#X restore 643 543 pd note_name;
#X obj 644 579 outlet;
#X obj 792 441 % 12;
#X floatatom 867 455 5 0 0 0 - - - 0;
#N canvas 139 107 450 300 note_name 0;
#X obj 40 166 inlet;
#X obj 69 208 select 0 1 2 3 4 5 6 7 8 9 10 11;
#X obj 43 348 outlet;
#X msg 42 279 symbol C;
#X msg 218 271 symbol D;
#X msg 394 271 symbol E;
#X msg 114 278 symbol C#/Db;
#X msg 291 273 symbol D#/Eb;
#X msg 478 272 symbol F;
#X msg 554 271 symbol F#/Gb;
#X msg 659 268 symbol G;
#X msg 740 265 symbol A;
#X msg 812 264 symbol A#/Bb;
#X msg 910 264 symbol B;
#X msg 981 264 symbol C;
#X connect 0 0 1 0;
#X connect 1 0 3 0;
#X connect 1 1 6 0;
#X connect 1 2 4 0;
#X connect 1 3 7 0;
#X connect 1 4 5 0;
#X connect 1 5 8 0;
#X connect 1 6 9 0;
#X connect 1 8 10 0;
#X connect 1 9 11 0;
#X connect 1 10 12 0;
#X connect 1 11 13 0;
#X connect 1 12 14 0;
#X connect 3 0 2 0;
#X connect 4 0 2 0;
#X connect 5 0 2 0;
#X connect 6 0 2 0;
#X connect 7 0 2 0;
#X connect 8 0 2 0;
#X connect 9 0 2 0;
#X connect 10 0 2 0;
#X connect 11 0 2 0;
#X connect 12 0 2 0;
#X connect 13 0 2 0;
#X restore 824 542 pd note_name;
#X obj 825 578 outlet;
#X obj 981 442 % 12;
#X floatatom 1056 456 5 0 0 0 - - - 0;
#N canvas 139 107 450 300 note_name 0;
#X obj 40 166 inlet;
#X obj 69 208 select 0 1 2 3 4 5 6 7 8 9 10 11;
#X obj 43 348 outlet;
#X msg 42 279 symbol C;
#X msg 218 271 symbol D;
#X msg 394 271 symbol E;
#X msg 114 278 symbol C#/Db;
#X msg 291 273 symbol D#/Eb;
#X msg 478 272 symbol F;
#X msg 554 271 symbol F#/Gb;
#X msg 659 268 symbol G;
#X msg 740 265 symbol A;
#X msg 812 264 symbol A#/Bb;
#X msg 910 264 symbol B;
#X msg 981 264 symbol C;
#X connect 0 0 1 0;
#X connect 1 0 3 0;
#X connect 1 1 6 0;
#X connect 1 2 4 0;
#X connect 1 3 7 0;
#X connect 1 4 5 0;
#X connect 1 5 8 0;
#X connect 1 6 9 0;
#X connect 1 8 10 0;
#X connect 1 9 11 0;
#X connect 1 10 12 0;
#X connect 1 11 13 0;
#X connect 1 12 14 0;
#X connect 3 0 2 0;
#X connect 4 0 2 0;
#X connect 5 0 2 0;
#X connect 6 0 2 0;
#X connect 7 0 2 0;
#X connect 8 0 2 0;
#X connect 9 0 2 0;
#X connect 10 0 2 0;
#X connect 11 0 2 0;
#X connect 12 0 2 0;
#X connect 13 0 2 0;
#X restore 1013 543 pd note_name;
#X obj 1014 579 outlet;
#X connect 0 0 4 0;
#X connect 1 0 0 0;
#X connect 2 0 0 0;
#X connect 4 0 5 0;
#X connect 5 0 3 0;
#X connect 5 0 35 1;
#X connect 5 0 41 0;
#X connect 6 0 26 0;
#X connect 7 0 6 0;
#X connect 8 0 6 0;
#X connect 10 0 9 0;
#X connect 10 0 36 1;
#X connect 10 0 45 0;
#X connect 11 0 27 0;
#X connect 12 0 11 0;
#X connect 13 0 11 0;
#X connect 15 0 14 0;
#X connect 15 0 37 1;
#X connect 15 0 49 0;
#X connect 16 0 28 0;
#X connect 17 0 16 0;
#X connect 18 0 16 0;
#X connect 20 0 19 0;
#X connect 20 0 38 1;
#X connect 20 0 53 0;
#X connect 21 0 29 0;
#X connect 22 0 21 0;
#X connect 23 0 21 0;
#X connect 25 0 24 0;
#X connect 25 0 39 1;
#X connect 25 0 57 0;
#X connect 26 0 10 0;
#X connect 27 0 15 0;
#X connect 28 0 20 0;
#X connect 29 0 25 0;
#X connect 35 0 30 0;
#X connect 36 0 31 0;
#X connect 37 0 32 0;
#X connect 38 0 33 0;
#X connect 39 0 34 0;
#X connect 40 0 35 0;
#X connect 40 0 36 0;
#X connect 40 0 37 0;
#X connect 40 0 38 0;
#X connect 40 0 39 0;
#X connect 41 0 42 0;
#X connect 42 0 43 0;
#X connect 43 0 44 0;
#X connect 45 0 46 0;
#X connect 46 0 47 0;
#X connect 47 0 48 0;
#X connect 49 0 50 0;
#X connect 50 0 51 0;
#X connect 51 0 52 0;
#X connect 53 0 54 0;
#X connect 54 0 55 0;
#X connect 55 0 56 0;
#X connect 57 0 58 0;
#X connect 58 0 59 0;
#X connect 59 0 60 0;
#X restore 1301 17 pd master_scale;
#X text 1411 647 Preset 1;
#X text 1418 690 Preset 2;
#X text 1419 739 Preset 3;
#X text 1421 778 Preset 4;
#X text 1422 821 Preset 5;
#X text 1422 864 Preset 6;
#X text 1421 905 Preset 7;
#X text 1423 946 Preset 8;
#X text 1422 993 Preset 9;
#X text 1422 1034 Preset 10;
#X obj 104 103 sponges;
#X symbolatom 1309 516 6 0 0 0 - - - 0;
#X symbolatom 1353 516 6 0 0 0 - - - 0;
#X symbolatom 1398 516 6 0 0 0 - - - 0;
#X symbolatom 1443 516 6 0 0 0 - - - 0;
#X symbolatom 1488 516 6 0 0 0 - - - 0;
#X obj -7 723 s~ out2;
#X obj 14 1104 s~ out3;
#X obj 20 1457 s~ out4;
#X obj 5 1861 s~ out5;
#X obj 28 2231 s~ out6;
#X obj 16 2595 s~ out7;
#X obj 93 2610 s~ out8;
#X obj 1589 9 r~ out2;
#X obj 1648 10 r~ out3;
#X obj 1705 10 r~ out4;
#X obj 1532 44 r~ out5;
#X obj 1590 42 r~ out6;
#X obj 1649 43 r~ out7;
#X obj 1706 43 r~ out8;
#X obj 1602 71 /~ 4;
#X connect 1 0 99 0;
#X connect 27 0 85 0;
#X connect 29 0 86 0;
#X connect 30 0 87 0;
#X connect 31 0 88 0;
#X connect 32 0 89 0;
#X connect 33 0 90 0;
#X connect 34 0 91 0;
#X connect 35 0 79 1;
#X connect 35 1 79 2;
#X connect 35 2 36 0;
#X connect 35 2 37 0;
#X connect 36 0 79 4;
#X connect 37 0 79 3;
#X connect 38 0 27 1;
#X connect 38 1 27 2;
#X connect 38 2 39 0;
#X connect 38 2 40 0;
#X connect 39 0 27 4;
#X connect 39 0 79 3;
#X connect 40 0 27 3;
#X connect 41 0 29 1;
#X connect 41 1 29 2;
#X connect 41 2 42 0;
#X connect 41 2 43 0;
#X connect 42 0 29 4;
#X connect 43 0 29 3;
#X connect 44 0 30 1;
#X connect 44 1 30 2;
#X connect 44 2 45 0;
#X connect 44 2 46 0;
#X connect 45 0 30 4;
#X connect 46 0 30 3;
#X connect 47 0 31 1;
#X connect 47 1 31 2;
#X connect 47 2 48 0;
#X connect 47 2 49 0;
#X connect 48 0 31 4;
#X connect 49 0 31 3;
#X connect 50 0 32 1;
#X connect 50 1 32 2;
#X connect 50 2 51 0;
#X connect 50 2 52 0;
#X connect 51 0 32 4;
#X connect 52 0 32 3;
#X connect 53 0 33 1;
#X connect 53 1 33 2;
#X connect 53 2 54 0;
#X connect 53 2 55 0;
#X connect 54 0 33 4;
#X connect 55 0 33 3;
#X connect 56 0 34 1;
#X connect 56 1 34 2;
#X connect 56 2 57 0;
#X connect 56 2 58 0;
#X connect 57 0 34 4;
#X connect 58 0 34 3;
#X connect 63 0 8 0;
#X connect 68 0 80 0;
#X connect 68 1 81 0;
#X connect 68 2 82 0;
#X connect 68 3 83 0;
#X connect 68 4 84 0;
#X connect 79 0 0 0;
#X connect 92 0 99 0;
#X connect 93 0 99 0;
#X connect 94 0 99 0;
#X connect 95 0 99 0;
#X connect 96 0 99 0;
#X connect 97 0 99 0;
#X connect 98 0 99 0;
#X connect 99 0 2 0;
#X connect 99 0 2 1;
#X coords 0 -1 1 1 1600 2300 1 100 100;
