#N struct template7 float x;
#N canvas 21 20 1300 665 12;
#X obj 1144 610 outlet~;
#N canvas 66 37 1300 665 module 0;
#X obj 346 211 phasor~;
#X obj 346 288 *~ 2051;
#X obj 346 245 expr~ abs(1 - 2*$v1);
#X obj 346 156 inlet;
#X obj 345 441 outlet~;
#X obj 569 355 vline~;
#X obj 569 196 / 127;
#X obj 569 166 inlet;
#X obj 344 376 *~;
#X obj 346 184 mtof;
#X obj 569 280 pack f f f;
#X obj 602 224 r \$0_attack;
#X obj 636 251 r \$0_release;
#X msg 569 322 \$1 \$2 \, 0 \$3 \$2;
#X obj 345 328 tabread4~ \$0_BUFFER;
#X connect 0 0 2 0;
#X connect 1 0 14 0;
#X connect 2 0 1 0;
#X connect 3 0 9 0;
#X connect 5 0 8 1;
#X connect 6 0 10 0;
#X connect 7 0 6 0;
#X connect 8 0 4 0;
#X connect 9 0 0 0;
#X connect 10 0 13 0;
#X connect 11 0 10 1;
#X connect 12 0 10 2;
#X connect 13 0 5 0;
#X connect 14 0 8 0;
#X restore 1143 516 pd module;
#X obj 1139 483 unpack f f;
#X obj 1139 445 inlet;
#X obj 101 101 cnv 20 1200 277 empty \$0-colors empty 20 12 0 12 #245310 #404040 0;
#X obj 1573 455 expr $f1 * (1000 * 60) / 2051;
#X floatatom 1573 500 5 0 0 0 - - - 0;
#X obj 1573 575 metro;
#X obj 1573 535 t b f;
#X obj 1573 612 bng 20 250 50 0 empty empty empty 0 -10 0 12 #fcfcfc #000000 #000000;
#X obj 1617 656 + 1;
#X obj 1573 656 f;
#X obj 1661 655 % 2051;
#X floatatom 1573 698 5 0 0 0 - - - 0;
#X floatatom 1573 773 5 0 0 0 - - - 0;
#X msg 1654 542 0;
#X obj 1573 815 + 1;
#X obj 1573 854 * 0.5;
#X obj 1573 893 * 127;
#X floatatom 1573 927 5 0 0 0 - - - 0;
#X obj 1258 470 mod 127;
#X floatatom 1258 495 5 0 127 0 - - - 0;
#X text 1567 342 Duration;
#X msg 1359 555 0;
#X text 1646 486 Reinit;
#X obj 1654 508 bng 20 250 50 0 empty \$0_reset empty 0 -10 0 12 #fcfcfc #000000 #000000;
#X floatatom 1573 370 4 0 0 0 - \$0_duration - 0;
#X text 1357 417 Stop;
#X obj 1359 445 bng 20 250 50 0 empty \$0_stop empty 0 -10 0 12 #fcfcfc #000000 #000000;
#X msg 1573 415 \$1;
#X text 1691 403 Quantize Pitch;
#X obj 981 514 % 12;
#X floatatom 981 554 5 0 0 0 - - - 0;
#X floatatom 983 774 5 0 0 0 - - - 0;
#X floatatom 983 695 5 0 0 0 - - - 0;
#X floatatom 981 631 5 0 0 0 - - - 0;
#X obj 1258 663 / 12;
#X floatatom 1258 694 5 0 0 0 - - - 0;
#X obj 1258 754 + 1;
#X obj 1258 724 % 11;
#X obj 981 594 / 4;
#X obj 981 656 % 5;
#X obj 83 532 unpack f f;
#X floatatom 1253 786 5 0 0 0 - - - 0;
#X msg 60 476 1 0;
#X msg 105 477 3 1;
#X msg 149 477 5 2;
#X msg 192 478 8 3;
#X msg 235 479 10 4;
#X obj 1126 820 expr $f1 + (12*$f2);
#X obj 58 431 loadbang;
#X obj 357 878 soundfiler;
#X obj 508 563 \$0;
#X floatatom 508 595 5 0 0 0 - - - 0;
#X obj 372 701 bng 20 250 50 0 empty empty empty 0 -10 0 12 #fcfcfc #000000 #000000;
#X obj 300 705 bng 20 250 50 0 empty empty empty 0 -10 0 12 #fcfcfc #000000 #000000;
#X obj 300 451 list split 2;
#X obj 300 484 list trim;
#X obj 300 514 list split 1;
#X obj 508 484 loadbang;
#X obj 407 613 pack s f;
#X obj 508 525 bng 20 250 50 0 empty empty empty 0 -10 0 12 #fcfcfc #000000 #000000;
#X msg 357 844 read ./synthesized_waveform_\$1.wav \$2_BUFFER;
#X obj 357 759 list;
#X msg 423 799 read ./synthesized_waveform_\$1.wav \$2_SCORE;
#X obj 449 761 list;
#X obj 1573 736 tabread \$0_SCORE;
#X floatatom 1126 849 5 0 0 0 - - - 0;
#X msg 1274 394 \$1 127;
#X obj 1411 443 bng 20 250 50 0 empty \$0_start empty 0 -10 0 12 #fcfcfc #000000 #000000;
#X text 1086 663 Start;
#X obj 1144 573 *~;
#X obj 1181 553 r \$0_vol;
#X obj 983 732 tabread \$0_SCALE;
#X obj 70 569 tabwrite \$0_SCALE;
#X obj 300 664 select waveform score color;
#X obj 521 759 s \$0-colors;
#X obj 521 690 symbol;
#X msg 436 420 color #00BFEF;
#X msg 521 730 color \$1;
#X obj 301 762 symbol;
#X obj 301 799 s \$0_wf;
#X obj 129 747 symbol;
#X obj 129 786 s \$0_sc;
#X obj 768 332 cnv 20 200 45 empty empty empty 20 12 0 12 #000000 #404040 0;
#X obj 777 350 bng 20 250 50 0 empty REC REC 0 -10 0 12 #ff0400 #ffffff #ffffff;
#X obj 817 350 bng 20 250 50 0 empty FINISH FINISH 0 -10 0 12 #faff00 #ffffff #ffffff;
#X msg 662 549 start;
#X obj 707 458 f;
#X obj 742 458 + 1;
#X floatatom 708 487 5 0 0 0 - - - 0;
#X msg 643 439 0;
#X obj 861 633 tgl 20 0 empty empty empty 0 -10 0 12 #fcfcfc #000000 #000000 0 1;
#X obj 861 691 bng 20 250 50 0 empty empty empty 0 -10 0 12 #fcfcfc #000000 #000000;
#X msg 932 510 stop;
#X obj 895 347 hradio 20 1 0 1 empty \$0_rec_color empty -20 -10 0 12 #000000 #ffffff #ff0400 0;
#X obj 833 913 s \$0_rec_color;
#X msg 742 874 color #ff0000;
#X obj 833 835 spigot;
#X obj 903 838 spigot;
#X obj 942 807 tgl 20 0 empty empty empty 0 -10 0 12 #fcfcfc #000000 #000000 0 1;
#X obj 868 788 tgl 20 0 empty empty empty 0 -10 0 12 #fcfcfc #000000 #000000 0 1;
#X obj 913 775 - 1;
#X msg 884 875 color #000000;
#X obj 860 726 t b b;
#X obj 861 661 metro 500;
#X msg 774 395 1;
#X msg 825 389 0;
#X obj 708 419 t b b;
#X obj 744 650 writesf~;
#X obj 784 449 r \$0_wf;
#X msg 710 548 open \$2_out_\$1.wav;
#X obj 708 515 pack f s;
#N canvas 2240 98 508 538 stuff 0;
#X obj 167 189 pointer;
#X text 119 62 click here to re-initialize;
#X obj 89 88 trigger bang bang bang, f 31;
#X obj 93 63 bng 17 250 50 0 empty empty empty 17 7 0 10 #dfdfdf #000000 #000000;
#X obj 93 33 loadbang;
#X obj 22 25 inlet;
#X obj 25 73 t b f;
#X obj 94 168 f;
#X obj 369 104 f \$0;
#X obj 370 33 bng 20 250 50 0 empty empty empty 0 -10 0 12 #fcfcfc #000000 #000000;
#X msg 326 165 \; pd-\$1_playhead clear;
#X msg 148 155 traverse pd-\$1_playhead \, bang;
#X obj 174 113 bng 20 250 50 0 empty empty empty 0 -10 0 12 #fcfcfc #000000 #000000;
#X obj 202 129 f \$0;
#X obj 93 227 append template7 x;
#X connect 0 0 14 1;
#X connect 2 0 7 0;
#X connect 2 1 12 0;
#X connect 2 2 9 0;
#X connect 3 0 2 0;
#X connect 4 0 3 0;
#X connect 5 0 6 0;
#X connect 6 0 3 0;
#X connect 6 1 7 1;
#X connect 7 0 14 0;
#X connect 8 0 10 0;
#X connect 9 0 8 0;
#X connect 11 0 0 0;
#X connect 12 0 13 0;
#X connect 13 0 11 0;
#X restore 1419 795 pd stuff;
#N canvas 336 430 441 203 template7 0;
#X obj 91 51 struct template7 float x;
#X obj 90 95 filledpolygon 1200 1200 2 x 0 x 298;
#X restore 1417 673 pd template7;
#X obj 1419 734 expr $f1 * 150 / 2051;
#N canvas 66 32 1300 665 matrix_process 0;
#X obj 14 10 bng 20 250 50 0 empty \$0_SM_SM empty 0 -10 0 12 #fcfcfc #000000 #000000;
#X obj 195 11 bng 20 250 50 0 empty \$0_HC_SM empty 0 -10 0 12 #fcfcfc #000000 #000000;
#X obj 374 5 bng 20 250 50 0 empty \$0_SO_SM empty 0 -10 0 12 #fcfcfc #000000 #000000;
#X obj 567 12 bng 20 250 50 0 empty \$0_SL_SM empty 0 -10 0 12 #fcfcfc #000000 #000000;
#X obj 760 19 bng 20 250 50 0 empty \$0_SLAtl_SM empty 0 -10 0 12 #fcfcfc #000000 #000000;
#X obj 922 17 bng 20 250 50 0 empty \$0_NEW_SM empty 0 -10 0 12 #fcfcfc #000000 #000000;
#X obj 1103 20 bng 20 250 50 0 empty \$0_SN_SM empty 0 -10 0 12 #fcfcfc #000000 #000000;
#X obj 1281 24 bng 20 250 50 0 empty \$0_SZ_SM empty 0 -10 0 12 #fcfcfc #000000 #000000;
#X msg 14 45 waveform SM;
#X obj 709 1006 outlet;
#X msg 114 45 score SM;
#X msg 285 50 score SM;
#X msg 195 51 waveform HC;
#X msg 474 53 score SM;
#X msg 374 53 waveform SO;
#X msg 664 54 score SM;
#X msg 564 54 waveform SL;
#X msg 853 63 score SM;
#X msg 1020 66 score SM;
#X msg 1203 65 score SM;
#X msg 1381 66 score SM;
#X msg 745 63 waveform SLAtl;
#X msg 920 66 waveform NEW;
#X msg 1103 65 waveform SN;
#X msg 1281 66 waveform SZ;
#X obj 20 126 bng 20 250 50 0 empty \$0_SM_HC empty 0 -10 0 12 #fcfcfc #000000 #000000;
#X obj 201 127 bng 20 250 50 0 empty \$0_HC_HC empty 0 -10 0 12 #fcfcfc #000000 #000000;
#X obj 380 121 bng 20 250 50 0 empty \$0_SO_HC empty 0 -10 0 12 #fcfcfc #000000 #000000;
#X obj 573 128 bng 20 250 50 0 empty \$0_SL_HC empty 0 -10 0 12 #fcfcfc #000000 #000000;
#X obj 766 135 bng 20 250 50 0 empty \$0_SLAtl_HC empty 0 -10 0 12 #fcfcfc #000000 #000000;
#X obj 928 133 bng 20 250 50 0 empty \$0_NEW_HC empty 0 -10 0 12 #fcfcfc #000000 #000000;
#X obj 1109 136 bng 20 250 50 0 empty \$0_SN_HC empty 0 -10 0 12 #fcfcfc #000000 #000000;
#X obj 1287 140 bng 20 250 50 0 empty \$0_SZ_HC empty 0 -10 0 12 #fcfcfc #000000 #000000;
#X msg 20 161 waveform SM;
#X msg 201 167 waveform HC;
#X msg 380 169 waveform SO;
#X msg 569 170 waveform SL;
#X msg 751 179 waveform SLAtl;
#X msg 926 182 waveform NEW;
#X msg 1109 181 waveform SN;
#X msg 1287 182 waveform SZ;
#X msg 120 161 score HC;
#X msg 291 166 score HC;
#X msg 480 169 score HC;
#X msg 670 170 score HC;
#X msg 859 179 score HC;
#X msg 1026 182 score HC;
#X msg 1209 181 score HC;
#X msg 1387 182 score HC;
#X obj 23 254 bng 20 250 50 0 empty \$0_SM_SO empty 0 -10 0 12 #fcfcfc #000000 #000000;
#X obj 204 255 bng 20 250 50 0 empty \$0_HC_SO empty 0 -10 0 12 #fcfcfc #000000 #000000;
#X obj 383 249 bng 20 250 50 0 empty \$0_SO_SO empty 0 -10 0 12 #fcfcfc #000000 #000000;
#X obj 576 256 bng 20 250 50 0 empty \$0_SL_SO empty 0 -10 0 12 #fcfcfc #000000 #000000;
#X obj 769 263 bng 20 250 50 0 empty \$0_SLAtl_SO empty 0 -10 0 12 #fcfcfc #000000 #000000;
#X obj 931 261 bng 20 250 50 0 empty \$0_NEW_SO empty 0 -10 0 12 #fcfcfc #000000 #000000;
#X obj 1112 264 bng 20 250 50 0 empty \$0_SN_SO empty 0 -10 0 12 #fcfcfc #000000 #000000;
#X obj 1290 268 bng 20 250 50 0 empty \$0_SZ_SO empty 0 -10 0 12 #fcfcfc #000000 #000000;
#X msg 23 289 waveform SM;
#X msg 204 295 waveform HC;
#X msg 383 297 waveform SO;
#X msg 573 298 waveform SL;
#X msg 754 307 waveform SLAtl;
#X msg 929 310 waveform NEW;
#X msg 1112 309 waveform SN;
#X msg 1290 310 waveform SZ;
#X msg 123 289 score SO;
#X msg 294 294 score SO;
#X msg 483 297 score SO;
#X msg 673 298 score SO;
#X msg 862 307 score SO;
#X msg 1029 310 score SO;
#X msg 1212 309 score SO;
#X msg 1390 310 score SO;
#X obj 24 382 bng 20 250 50 0 empty \$0_SM_SL empty 0 -10 0 12 #fcfcfc #000000 #000000;
#X obj 205 383 bng 20 250 50 0 empty \$0_HC_SL empty 0 -10 0 12 #fcfcfc #000000 #000000;
#X obj 384 377 bng 20 250 50 0 empty \$0_SO_SL empty 0 -10 0 12 #fcfcfc #000000 #000000;
#X obj 577 384 bng 20 250 50 0 empty \$0_SL_SL empty 0 -10 0 12 #fcfcfc #000000 #000000;
#X obj 770 391 bng 20 250 50 0 empty \$0_SLAtl_SL empty 0 -10 0 12 #fcfcfc #000000 #000000;
#X obj 932 389 bng 20 250 50 0 empty \$0_NEW_SL empty 0 -10 0 12 #fcfcfc #000000 #000000;
#X obj 1113 392 bng 20 250 50 0 empty \$0_SN_SL empty 0 -10 0 12 #fcfcfc #000000 #000000;
#X obj 1291 396 bng 20 250 50 0 empty \$0_SZ_SL empty 0 -10 0 12 #fcfcfc #000000 #000000;
#X msg 24 417 waveform SM;
#X msg 205 423 waveform HC;
#X msg 384 425 waveform SO;
#X msg 574 426 waveform SL;
#X msg 755 435 waveform SLAtl;
#X msg 930 438 waveform NEW;
#X msg 1113 437 waveform SN;
#X msg 1291 438 waveform SZ;
#X msg 124 417 score SL;
#X msg 295 422 score SL;
#X msg 484 425 score SL;
#X msg 674 426 score SL;
#X msg 863 435 score SL;
#X msg 1030 438 score SL;
#X msg 1213 437 score SL;
#X msg 1392 438 score SL;
#X obj 27 496 bng 20 250 50 0 empty \$0_SM_SLAtl empty 0 -10 0 12 #fcfcfc #000000 #000000;
#X obj 208 497 bng 20 250 50 0 empty \$0_HC_SLAtl empty 0 -10 0 12 #fcfcfc #000000 #000000;
#X obj 387 491 bng 20 250 50 0 empty \$0_SO_SLAtl empty 0 -10 0 12 #fcfcfc #000000 #000000;
#X obj 580 498 bng 20 250 50 0 empty \$0_SL_SLAtl empty 0 -10 0 12 #fcfcfc #000000 #000000;
#X obj 773 505 bng 20 250 50 0 empty \$0_SLAtl_SLAtl empty 0 -10 0 12 #fcfcfc #000000 #000000;
#X obj 935 503 bng 20 250 50 0 empty \$0_NEW_SLAtl empty 0 -10 0 12 #fcfcfc #000000 #000000;
#X obj 1116 506 bng 20 250 50 0 empty \$0_SN_SLAtl empty 0 -10 0 12 #fcfcfc #000000 #000000;
#X obj 1294 510 bng 20 250 50 0 empty \$0_SZ_SLAtl empty 0 -10 0 12 #fcfcfc #000000 #000000;
#X msg 27 531 waveform SM;
#X msg 208 537 waveform HC;
#X msg 387 539 waveform SO;
#X msg 577 540 waveform SL;
#X msg 758 549 waveform SLAtl;
#X msg 933 552 waveform NEW;
#X msg 1116 551 waveform SN;
#X msg 1294 552 waveform SZ;
#X msg 127 531 score SLAtl;
#X msg 299 536 score SLAtl;
#X msg 487 539 score SLAtl;
#X msg 677 540 score SLAtl;
#X msg 866 549 score SLAtl;
#X msg 1033 552 score SLAtl;
#X msg 1216 551 score SLAtl;
#X msg 1378 552 score SLAtl;
#X obj 29 616 bng 20 250 50 0 empty \$0_SM_NEW empty 0 -10 0 12 #fcfcfc #000000 #000000;
#X obj 210 617 bng 20 250 50 0 empty \$0_HC_NEW empty 0 -10 0 12 #fcfcfc #000000 #000000;
#X obj 389 611 bng 20 250 50 0 empty \$0_SO_NEW empty 0 -10 0 12 #fcfcfc #000000 #000000;
#X obj 582 618 bng 20 250 50 0 empty \$0_SL_NEW empty 0 -10 0 12 #fcfcfc #000000 #000000;
#X obj 775 625 bng 20 250 50 0 empty \$0_SLAtl_NEW empty 0 -10 0 12 #fcfcfc #000000 #000000;
#X obj 937 623 bng 20 250 50 0 empty \$0_NEW_NEW empty 0 -10 0 12 #fcfcfc #000000 #000000;
#X obj 1118 626 bng 20 250 50 0 empty \$0_SN_NEW empty 0 -10 0 12 #fcfcfc #000000 #000000;
#X obj 1296 630 bng 20 250 50 0 empty \$0_SZ_NEW empty 0 -10 0 12 #fcfcfc #000000 #000000;
#X msg 29 651 waveform SM;
#X msg 210 657 waveform HC;
#X msg 389 659 waveform SO;
#X msg 579 660 waveform SL;
#X msg 760 669 waveform SLAtl;
#X msg 935 672 waveform NEW;
#X msg 1118 671 waveform SN;
#X msg 1296 672 waveform SZ;
#X msg 129 651 score NEW;
#X msg 301 656 score NEW;
#X msg 489 659 score NEW;
#X msg 679 660 score NEW;
#X msg 868 669 score NEW;
#X msg 1035 672 score NEW;
#X msg 1218 671 score NEW;
#X msg 1380 672 score NEW;
#X obj 32 736 bng 20 250 50 0 empty \$0_SM_SN empty 0 -10 0 12 #fcfcfc #000000 #000000;
#X obj 213 737 bng 20 250 50 0 empty \$0_HC_SN empty 0 -10 0 12 #fcfcfc #000000 #000000;
#X obj 392 731 bng 20 250 50 0 empty \$0_SO_SN empty 0 -10 0 12 #fcfcfc #000000 #000000;
#X obj 585 738 bng 20 250 50 0 empty \$0_SL_SN empty 0 -10 0 12 #fcfcfc #000000 #000000;
#X obj 778 745 bng 20 250 50 0 empty \$0_SLAtl_SN empty 0 -10 0 12 #fcfcfc #000000 #000000;
#X obj 940 743 bng 20 250 50 0 empty \$0_NEW_SN empty 0 -10 0 12 #fcfcfc #000000 #000000;
#X obj 1121 746 bng 20 250 50 0 empty \$0_SN_SN empty 0 -10 0 12 #fcfcfc #000000 #000000;
#X obj 1299 750 bng 20 250 50 0 empty \$0_SZ_SN empty 0 -10 0 12 #fcfcfc #000000 #000000;
#X msg 32 771 waveform SM;
#X msg 213 777 waveform HC;
#X msg 392 779 waveform SO;
#X msg 582 780 waveform SL;
#X msg 762 788 waveform SLAtl;
#X msg 938 792 waveform NEW;
#X msg 1121 791 waveform SN;
#X msg 1299 792 waveform SZ;
#X msg 132 771 score SN;
#X msg 304 776 score SN;
#X msg 492 778 score SN;
#X msg 682 780 score SN;
#X msg 871 789 score SN;
#X msg 1038 792 score SN;
#X msg 1221 791 score SN;
#X msg 1393 793 score SN;
#X obj 35 850 bng 20 250 50 0 empty \$0_SM_SZ empty 0 -10 0 12 #fcfcfc #000000 #000000;
#X obj 216 851 bng 20 250 50 0 empty \$0_HC_SZ empty 0 -10 0 12 #fcfcfc #000000 #000000;
#X obj 395 845 bng 20 250 50 0 empty \$0_SO_SZ empty 0 -10 0 12 #fcfcfc #000000 #000000;
#X obj 588 852 bng 20 250 50 0 empty \$0_SL_SZ empty 0 -10 0 12 #fcfcfc #000000 #000000;
#X obj 781 859 bng 20 250 50 0 empty \$0_SLAtl_SZ empty 0 -10 0 12 #fcfcfc #000000 #000000;
#X obj 943 857 bng 20 250 50 0 empty \$0_NEW_SZ empty 0 -10 0 12 #fcfcfc #000000 #000000;
#X obj 1124 860 bng 20 250 50 0 empty \$0_SN_SZ empty 0 -10 0 12 #fcfcfc #000000 #000000;
#X obj 1315 856 bng 20 250 50 0 empty \$0_SZ_SZ empty 0 -10 0 12 #fcfcfc #000000 #000000;
#X msg 35 885 waveform SM;
#X msg 216 891 waveform HC;
#X msg 395 893 waveform SO;
#X msg 585 894 waveform SL;
#X msg 766 903 waveform SLAtl;
#X msg 941 906 waveform NEW;
#X msg 1124 905 waveform SN;
#X msg 1315 898 waveform SZ;
#X msg 135 885 score SZ;
#X msg 307 890 score SZ;
#X msg 495 892 score SZ;
#X msg 685 894 score SZ;
#X msg 874 903 score SZ;
#X msg 1041 906 score SZ;
#X msg 1237 897 score SZ;
#X msg 1409 899 score SZ;
#X msg 249 13 color #602DF7;
#X msg 84 5 color #14C5EC;
#X msg 421 19 color #253BF5;
#X msg 613 16 color #3C8A14;
#X msg 803 21 color #245310;
#X msg 957 27 color #e21414;
#X msg 1155 27 color #ffd700;
#X msg 1332 21 color #f57c00;
#X obj 709 971 r \$0_processed;
#X obj 14 82 s \$0_processed;
#X obj 196 87 s \$0_processed;
#X obj 375 89 s \$0_processed;
#X obj 565 90 s \$0_processed;
#X obj 746 99 s \$0_processed;
#X obj 921 102 s \$0_processed;
#X obj 1104 102 s \$0_processed;
#X obj 1281 103 s \$0_processed;
#X obj 20 198 s \$0_processed;
#X obj 202 203 s \$0_processed;
#X obj 381 205 s \$0_processed;
#X obj 571 206 s \$0_processed;
#X obj 751 216 s \$0_processed;
#X obj 927 218 s \$0_processed;
#X obj 1110 217 s \$0_processed;
#X obj 1288 218 s \$0_processed;
#X obj 1291 346 s \$0_processed;
#X obj 1113 345 s \$0_processed;
#X obj 930 346 s \$0_processed;
#X obj 755 343 s \$0_processed;
#X obj 574 334 s \$0_processed;
#X obj 384 333 s \$0_processed;
#X obj 205 331 s \$0_processed;
#X obj 23 326 s \$0_processed;
#X obj 24 454 s \$0_processed;
#X obj 206 459 s \$0_processed;
#X obj 385 461 s \$0_processed;
#X obj 575 462 s \$0_processed;
#X obj 756 471 s \$0_processed;
#X obj 930 474 s \$0_processed;
#X obj 1114 473 s \$0_processed;
#X obj 1292 474 s \$0_processed;
#X obj 1295 589 s \$0_processed;
#X obj 1117 587 s \$0_processed;
#X obj 934 587 s \$0_processed;
#X obj 759 585 s \$0_processed;
#X obj 578 576 s \$0_processed;
#X obj 388 575 s \$0_processed;
#X obj 209 573 s \$0_processed;
#X obj 27 568 s \$0_processed;
#X obj 29 688 s \$0_processed;
#X obj 212 693 s \$0_processed;
#X obj 389 695 s \$0_processed;
#X obj 583 696 s \$0_processed;
#X obj 757 704 s \$0_processed;
#X obj 1297 708 s \$0_processed;
#X obj 1119 707 s \$0_processed;
#X obj 936 708 s \$0_processed;
#X obj 1300 828 s \$0_processed;
#X obj 1122 827 s \$0_processed;
#X obj 939 827 s \$0_processed;
#X obj 764 825 s \$0_processed;
#X obj 583 814 s \$0_processed;
#X obj 393 814 s \$0_processed;
#X obj 214 813 s \$0_processed;
#X obj 31 809 s \$0_processed;
#X obj 35 922 s \$0_processed;
#X obj 217 927 s \$0_processed;
#X obj 399 929 s \$0_processed;
#X obj 586 930 s \$0_processed;
#X obj 763 938 s \$0_processed;
#X obj 942 942 s \$0_processed;
#X obj 1125 941 s \$0_processed;
#X obj 1312 932 s \$0_processed;
#X msg 70 123 color #14C5EC;
#X msg 89 247 color #14C5EC;
#X msg 82 373 color #14C5EC;
#X msg 81 496 color #14C5EC;
#X msg 83 610 color #14C5EC;
#X msg 96 718 color #14C5EC;
#X msg 93 846 color #14C5EC;
#X msg 255 131 color #602DF7;
#X msg 255 264 color #602DF7;
#X msg 262 382 color #602DF7;
#X msg 258 501 color #602DF7;
#X msg 265 610 color #602DF7;
#X msg 258 749 color #602DF7;
#X msg 266 853 color #602DF7;
#X msg 437 133 color #253BF5;
#X msg 439 243 color #253BF5;
#X msg 438 386 color #253BF5;
#X msg 449 506 color #253BF5;
#X msg 446 616 color #253BF5;
#X msg 447 739 color #253BF5;
#X msg 458 853 color #253BF5;
#X msg 617 132 color #3C8A14;
#X msg 620 250 color #3C8A14;
#X msg 634 378 color #3C8A14;
#X msg 645 501 color #3C8A14;
#X msg 645 612 color #3C8A14;
#X msg 632 737 color #3C8A14;
#X msg 636 853 color #3C8A14;
#X msg 806 147 color #245310;
#X msg 808 262 color #245310;
#X msg 820 376 color #245310;
#X msg 816 506 color #245310;
#X msg 823 614 color #245310;
#X msg 821 737 color #245310;
#X msg 825 859 color #245310;
#X msg 968 142 color #e21414;
#X msg 987 263 color #e21414;
#X msg 993 396 color #e21414;
#X msg 995 506 color #e21414;
#X msg 995 620 color #e21414;
#X msg 1004 746 color #e21414;
#X msg 1005 857 color #e21414;
#X msg 1155 138 color #ffd700;
#X msg 1169 266 color #ffd700;
#X msg 1179 391 color #ffd700;
#X msg 1178 513 color #ffd700;
#X msg 1176 624 color #ffd700;
#X msg 1183 747 color #ffd700;
#X msg 1184 862 color #ffd700;
#X msg 1337 139 color #f57c00;
#X msg 1339 264 color #f57c00;
#X msg 1347 393 color #f57c00;
#X msg 1350 508 color #f57c00;
#X msg 1349 742 color #f57c00;
#X msg 1362 633 color #f57c00;
#X msg 1365 856 color #f57c00;
#X connect 0 0 8 0;
#X connect 0 0 10 0;
#X connect 0 0 194 0;
#X connect 1 0 12 0;
#X connect 1 0 11 0;
#X connect 1 0 193 0;
#X connect 2 0 14 0;
#X connect 2 0 13 0;
#X connect 2 0 195 0;
#X connect 3 0 16 0;
#X connect 3 0 15 0;
#X connect 3 0 196 0;
#X connect 4 0 21 0;
#X connect 4 0 17 0;
#X connect 4 0 197 0;
#X connect 5 0 22 0;
#X connect 5 0 18 0;
#X connect 5 0 198 0;
#X connect 6 0 23 0;
#X connect 6 0 19 0;
#X connect 6 0 199 0;
#X connect 7 0 24 0;
#X connect 7 0 20 0;
#X connect 7 0 200 0;
#X connect 8 0 202 0;
#X connect 10 0 202 0;
#X connect 11 0 203 0;
#X connect 12 0 203 0;
#X connect 13 0 204 0;
#X connect 14 0 204 0;
#X connect 15 0 205 0;
#X connect 16 0 205 0;
#X connect 17 0 206 0;
#X connect 18 0 207 0;
#X connect 19 0 208 0;
#X connect 20 0 209 0;
#X connect 21 0 206 0;
#X connect 22 0 207 0;
#X connect 23 0 208 0;
#X connect 24 0 209 0;
#X connect 25 0 33 0;
#X connect 25 0 41 0;
#X connect 25 0 266 0;
#X connect 26 0 34 0;
#X connect 26 0 42 0;
#X connect 26 0 273 0;
#X connect 27 0 35 0;
#X connect 27 0 43 0;
#X connect 27 0 280 0;
#X connect 28 0 36 0;
#X connect 28 0 44 0;
#X connect 28 0 287 0;
#X connect 29 0 37 0;
#X connect 29 0 45 0;
#X connect 29 0 294 0;
#X connect 30 0 38 0;
#X connect 30 0 46 0;
#X connect 30 0 301 0;
#X connect 31 0 39 0;
#X connect 31 0 47 0;
#X connect 31 0 308 0;
#X connect 32 0 40 0;
#X connect 32 0 48 0;
#X connect 32 0 315 0;
#X connect 33 0 210 0;
#X connect 34 0 211 0;
#X connect 35 0 212 0;
#X connect 36 0 213 0;
#X connect 37 0 214 0;
#X connect 38 0 215 0;
#X connect 39 0 216 0;
#X connect 40 0 217 0;
#X connect 41 0 210 0;
#X connect 42 0 211 0;
#X connect 43 0 212 0;
#X connect 44 0 213 0;
#X connect 45 0 214 0;
#X connect 46 0 215 0;
#X connect 47 0 216 0;
#X connect 48 0 217 0;
#X connect 49 0 57 0;
#X connect 49 0 65 0;
#X connect 49 0 267 0;
#X connect 50 0 58 0;
#X connect 50 0 66 0;
#X connect 50 0 274 0;
#X connect 51 0 59 0;
#X connect 51 0 67 0;
#X connect 51 0 281 0;
#X connect 52 0 60 0;
#X connect 52 0 68 0;
#X connect 52 0 288 0;
#X connect 53 0 61 0;
#X connect 53 0 295 0;
#X connect 53 0 69 0;
#X connect 54 0 62 0;
#X connect 54 0 70 0;
#X connect 54 0 302 0;
#X connect 55 0 63 0;
#X connect 55 0 71 0;
#X connect 55 0 309 0;
#X connect 56 0 64 0;
#X connect 56 0 72 0;
#X connect 56 0 316 0;
#X connect 57 0 225 0;
#X connect 58 0 224 0;
#X connect 59 0 223 0;
#X connect 60 0 222 0;
#X connect 61 0 221 0;
#X connect 62 0 220 0;
#X connect 63 0 219 0;
#X connect 64 0 218 0;
#X connect 65 0 225 0;
#X connect 66 0 224 0;
#X connect 67 0 223 0;
#X connect 68 0 222 0;
#X connect 69 0 221 0;
#X connect 70 0 220 0;
#X connect 71 0 219 0;
#X connect 72 0 218 0;
#X connect 73 0 81 0;
#X connect 73 0 89 0;
#X connect 73 0 268 0;
#X connect 74 0 82 0;
#X connect 74 0 90 0;
#X connect 74 0 275 0;
#X connect 75 0 83 0;
#X connect 75 0 91 0;
#X connect 75 0 282 0;
#X connect 76 0 84 0;
#X connect 76 0 92 0;
#X connect 76 0 289 0;
#X connect 77 0 85 0;
#X connect 77 0 93 0;
#X connect 77 0 296 0;
#X connect 78 0 86 0;
#X connect 78 0 94 0;
#X connect 78 0 303 0;
#X connect 79 0 87 0;
#X connect 79 0 95 0;
#X connect 79 0 310 0;
#X connect 80 0 88 0;
#X connect 80 0 96 0;
#X connect 80 0 317 0;
#X connect 81 0 226 0;
#X connect 82 0 227 0;
#X connect 83 0 228 0;
#X connect 84 0 229 0;
#X connect 85 0 230 0;
#X connect 86 0 231 0;
#X connect 87 0 232 0;
#X connect 88 0 233 0;
#X connect 89 0 226 0;
#X connect 90 0 227 0;
#X connect 91 0 228 0;
#X connect 92 0 229 0;
#X connect 93 0 230 0;
#X connect 94 0 231 0;
#X connect 95 0 232 0;
#X connect 96 0 233 0;
#X connect 97 0 105 0;
#X connect 97 0 113 0;
#X connect 97 0 269 0;
#X connect 98 0 106 0;
#X connect 98 0 114 0;
#X connect 98 0 276 0;
#X connect 99 0 107 0;
#X connect 99 0 115 0;
#X connect 99 0 283 0;
#X connect 100 0 108 0;
#X connect 100 0 116 0;
#X connect 100 0 290 0;
#X connect 101 0 109 0;
#X connect 101 0 117 0;
#X connect 101 0 297 0;
#X connect 102 0 110 0;
#X connect 102 0 118 0;
#X connect 102 0 304 0;
#X connect 103 0 111 0;
#X connect 103 0 119 0;
#X connect 103 0 311 0;
#X connect 104 0 112 0;
#X connect 104 0 120 0;
#X connect 104 0 318 0;
#X connect 105 0 241 0;
#X connect 106 0 240 0;
#X connect 107 0 239 0;
#X connect 108 0 238 0;
#X connect 109 0 237 0;
#X connect 110 0 236 0;
#X connect 111 0 235 0;
#X connect 112 0 234 0;
#X connect 113 0 241 0;
#X connect 114 0 240 0;
#X connect 115 0 239 0;
#X connect 116 0 238 0;
#X connect 117 0 237 0;
#X connect 118 0 236 0;
#X connect 119 0 235 0;
#X connect 120 0 234 0;
#X connect 121 0 129 0;
#X connect 121 0 137 0;
#X connect 121 0 270 0;
#X connect 122 0 130 0;
#X connect 122 0 138 0;
#X connect 122 0 277 0;
#X connect 123 0 131 0;
#X connect 123 0 139 0;
#X connect 123 0 284 0;
#X connect 124 0 132 0;
#X connect 124 0 140 0;
#X connect 124 0 291 0;
#X connect 125 0 133 0;
#X connect 125 0 141 0;
#X connect 125 0 298 0;
#X connect 126 0 134 0;
#X connect 126 0 142 0;
#X connect 126 0 305 0;
#X connect 127 0 135 0;
#X connect 127 0 143 0;
#X connect 127 0 312 0;
#X connect 128 0 136 0;
#X connect 128 0 144 0;
#X connect 128 0 320 0;
#X connect 129 0 242 0;
#X connect 130 0 243 0;
#X connect 131 0 244 0;
#X connect 132 0 245 0;
#X connect 133 0 246 0;
#X connect 134 0 249 0;
#X connect 135 0 248 0;
#X connect 136 0 247 0;
#X connect 137 0 242 0;
#X connect 138 0 243 0;
#X connect 139 0 244 0;
#X connect 140 0 245 0;
#X connect 141 0 246 0;
#X connect 142 0 249 0;
#X connect 143 0 248 0;
#X connect 144 0 247 0;
#X connect 145 0 153 0;
#X connect 145 0 161 0;
#X connect 145 0 271 0;
#X connect 146 0 154 0;
#X connect 146 0 162 0;
#X connect 146 0 278 0;
#X connect 147 0 155 0;
#X connect 147 0 163 0;
#X connect 147 0 285 0;
#X connect 148 0 156 0;
#X connect 148 0 164 0;
#X connect 148 0 292 0;
#X connect 149 0 157 0;
#X connect 149 0 299 0;
#X connect 150 0 158 0;
#X connect 150 0 166 0;
#X connect 150 0 306 0;
#X connect 151 0 159 0;
#X connect 151 0 167 0;
#X connect 151 0 313 0;
#X connect 152 0 160 0;
#X connect 152 0 168 0;
#X connect 152 0 319 0;
#X connect 153 0 257 0;
#X connect 154 0 256 0;
#X connect 155 0 255 0;
#X connect 156 0 254 0;
#X connect 157 0 253 0;
#X connect 158 0 252 0;
#X connect 159 0 251 0;
#X connect 160 0 250 0;
#X connect 161 0 257 0;
#X connect 162 0 256 0;
#X connect 163 0 255 0;
#X connect 164 0 254 0;
#X connect 165 0 253 0;
#X connect 166 0 252 0;
#X connect 167 0 251 0;
#X connect 168 0 250 0;
#X connect 169 0 177 0;
#X connect 169 0 185 0;
#X connect 169 0 272 0;
#X connect 170 0 178 0;
#X connect 170 0 186 0;
#X connect 170 0 279 0;
#X connect 171 0 179 0;
#X connect 171 0 187 0;
#X connect 171 0 286 0;
#X connect 172 0 180 0;
#X connect 172 0 188 0;
#X connect 172 0 293 0;
#X connect 173 0 181 0;
#X connect 173 0 189 0;
#X connect 173 0 300 0;
#X connect 174 0 182 0;
#X connect 174 0 190 0;
#X connect 174 0 307 0;
#X connect 175 0 183 0;
#X connect 175 0 191 0;
#X connect 175 0 314 0;
#X connect 176 0 184 0;
#X connect 176 0 192 0;
#X connect 176 0 321 0;
#X connect 177 0 258 0;
#X connect 178 0 259 0;
#X connect 179 0 260 0;
#X connect 180 0 261 0;
#X connect 181 0 262 0;
#X connect 182 0 263 0;
#X connect 183 0 264 0;
#X connect 184 0 265 0;
#X connect 185 0 258 0;
#X connect 186 0 259 0;
#X connect 187 0 260 0;
#X connect 188 0 261 0;
#X connect 189 0 262 0;
#X connect 190 0 263 0;
#X connect 191 0 264 0;
#X connect 192 0 265 0;
#X connect 193 0 203 0;
#X connect 194 0 202 0;
#X connect 195 0 204 0;
#X connect 196 0 205 0;
#X connect 197 0 206 0;
#X connect 198 0 207 0;
#X connect 199 0 208 0;
#X connect 200 0 209 0;
#X connect 201 0 9 0;
#X connect 266 0 210 0;
#X connect 267 0 225 0;
#X connect 268 0 226 0;
#X connect 269 0 241 0;
#X connect 270 0 242 0;
#X connect 271 0 257 0;
#X connect 272 0 258 0;
#X connect 273 0 211 0;
#X connect 274 0 224 0;
#X connect 275 0 227 0;
#X connect 276 0 240 0;
#X connect 277 0 243 0;
#X connect 278 0 256 0;
#X connect 279 0 259 0;
#X connect 280 0 212 0;
#X connect 281 0 223 0;
#X connect 282 0 228 0;
#X connect 283 0 239 0;
#X connect 284 0 244 0;
#X connect 285 0 255 0;
#X connect 286 0 260 0;
#X connect 287 0 213 0;
#X connect 288 0 222 0;
#X connect 289 0 229 0;
#X connect 290 0 238 0;
#X connect 291 0 245 0;
#X connect 292 0 254 0;
#X connect 293 0 261 0;
#X connect 294 0 214 0;
#X connect 295 0 221 0;
#X connect 296 0 230 0;
#X connect 297 0 237 0;
#X connect 298 0 246 0;
#X connect 299 0 157 0;
#X connect 299 0 253 0;
#X connect 300 0 262 0;
#X connect 301 0 215 0;
#X connect 302 0 220 0;
#X connect 303 0 231 0;
#X connect 304 0 236 0;
#X connect 305 0 249 0;
#X connect 306 0 252 0;
#X connect 307 0 263 0;
#X connect 308 0 216 0;
#X connect 309 0 219 0;
#X connect 310 0 232 0;
#X connect 311 0 235 0;
#X connect 312 0 248 0;
#X connect 313 0 251 0;
#X connect 314 0 264 0;
#X connect 315 0 217 0;
#X connect 316 0 218 0;
#X connect 317 0 233 0;
#X connect 318 0 234 0;
#X connect 319 0 250 0;
#X connect 320 0 247 0;
#X connect 321 0 265 0;
#X restore 300 421 pd matrix_process;
#X obj 126 130 cnv 20 190 200 empty empty empty 20 12 0 12 #e0e0e0 #404040 0;
#X obj 132 158 hsl 170 20 0 1 0 0 \$0_vol empty Volume -2 -10 0 12 #000000 #ffffff #000000 0 1;
#X obj 132 206 hsl 170 20 0.1 5000 0 0 \$0_attack empty Attack -2 -10 0 12 #000000 #ffffff #000000 0 1;
#X obj 132 260 hsl 170 20 0.1 5000 0 0 \$0_release empty Release -2 -10 0 12 #000000 #ffffff #000000 0 1;
#X floatatom 189 300 10 0 0 0 Duration - \$0_duration 0;
#X obj 323 129 cnv 20 220 200 empty empty empty 20 12 0 12 #dfdfdf #00faff 0;
#N canvas 36 350 450 250 (subpatch) 0;
#X array \$0_BUFFER 2051 float 2;
#A color 0;
#A width 2;
#X coords 0 1 2051 -1 200 140 1 0 0;
#X restore 332 148 graph;
#X symbolatom 388 300 10 0 0 0 - \$0_wf - 0;
#X obj 546 129 cnv 20 220 200 empty empty empty 20 12 0 12 #dfdfdf #00faff 0;
#N canvas 36 350 450 250 (subpatch) 0;
#X array \$0_SCORE 2051 float 2;
#A color 0;
#A width 2;
#X coords 0 1 2051 -1 200 140 1 0 0;
#X restore 555 146 graph;
#X obj 686 303 bng 20 250 50 0 \$0_stop empty Stop 0 -10 0 12 #ff0400 #000000 #000000;
#X obj 724 304 bng 20 250 50 0 \$0_reset empty Reset 0 -10 0 12 #00faff #000000 #000000;
#X obj 647 304 bng 20 250 50 0 \$0_start empty Start 0 -10 0 12 #00ff04 #ffffff #000000;
#X symbolatom 553 300 10 0 0 0 - \$0_sc - 0;
#N canvas 95 360 1024 505 \$0_playhead 0;
#X scalar template7 0 \;;
#X coords 0 300 300 0 200 140 2 50 50;
#X restore 555 146 pd \$0_playhead;
#X obj 774 119 cnv 20 200 160 empty empty empty 20 12 0 12 #dfdfdf #00faff 0;
#N canvas 0 50 450 250 (subpatch) 0;
#X array \$0_SCALE 5 float 3;
#A 0 5.57143 5.74286 5.74286 5.74286 5.57143;
#A color 0;
#A width 2;
#X coords 0 0 5 12 200 140 1 0 0;
#X restore 775 141 graph;
#X obj 996 111 cnv 20 290 260 empty empty empty 20 12 0 12 #dfdfdf #00faff 0;
#X text 1147 111 WAVEFORM;
#X text 1052 153 SM;
#X text 1050 181 HC;
#X text 1050 208 SO;
#X text 1049 233 SL;
#X text 1030 259 SLAtl;
#X text 1043 283 NEW;
#X text 1047 309 SN;
#X text 1045 336 SZ;
#X obj 1080 153 bng 20 250 50 0 \$0_SM_SM empty empty 0 -10 0 12 #fcfcfc #000000 #000000;
#X obj 1105 153 bng 20 250 50 0 \$0_HC_SM empty empty 0 -10 0 12 #fcfcfc #000000 #000000;
#X obj 1130 153 bng 20 250 50 0 \$0_SO_SM empty empty 0 -10 0 12 #fcfcfc #000000 #000000;
#X obj 1154 153 bng 20 250 50 0 \$0_SL_SM empty empty 0 -10 0 12 #fcfcfc #000000 #000000;
#X obj 1177 153 bng 20 250 50 0 \$0_SLAtl_SM empty empty 0 -10 0 12 #fcfcfc #000000 #000000;
#X obj 1202 153 bng 20 250 50 0 \$0_NEW_SM empty empty 0 -10 0 12 #fcfcfc #000000 #000000;
#X obj 1227 153 bng 20 250 50 0 \$0_SN_SM empty empty 0 -10 0 12 #fcfcfc #000000 #000000;
#X obj 1251 153 bng 20 250 50 0 \$0_SZ_SM empty empty 0 -10 0 12 #fcfcfc #000000 #000000;
#X obj 1079 182 bng 20 250 50 0 \$0_SM_HC empty empty 0 -10 0 12 #fcfcfc #000000 #000000;
#X obj 1104 182 bng 20 250 50 0 \$0_HC_HC empty empty 0 -10 0 12 #fcfcfc #000000 #000000;
#X obj 1129 182 bng 20 250 50 0 \$0_SO_HC empty empty 0 -10 0 12 #fcfcfc #000000 #000000;
#X obj 1153 182 bng 20 250 50 0 \$0_SL_HC empty empty 0 -10 0 12 #fcfcfc #000000 #000000;
#X obj 1176 182 bng 20 250 50 0 \$0_SLAtl_HC empty empty 0 -10 0 12 #fcfcfc #000000 #000000;
#X obj 1201 182 bng 20 250 50 0 \$0_NEW_HC empty empty 0 -10 0 12 #fcfcfc #000000 #000000;
#X obj 1226 182 bng 20 250 50 0 \$0_SN_HC empty empty 0 -10 0 12 #fcfcfc #000000 #000000;
#X obj 1250 182 bng 20 250 50 0 \$0_SZ_HC empty empty 0 -10 0 12 #fcfcfc #000000 #000000;
#X obj 1080 209 bng 20 250 50 0 \$0_SM_SO empty empty 0 -10 0 12 #fcfcfc #000000 #000000;
#X obj 1105 209 bng 20 250 50 0 \$0_HC_SO empty empty 0 -10 0 12 #fcfcfc #000000 #000000;
#X obj 1130 209 bng 20 250 50 0 \$0_SO_SO empty empty 0 -10 0 12 #fcfcfc #000000 #000000;
#X obj 1154 209 bng 20 250 50 0 \$0_SL_SO empty empty 0 -10 0 12 #fcfcfc #000000 #000000;
#X obj 1177 209 bng 20 250 50 0 \$0_SLAtl_SO empty empty 0 -10 0 12 #fcfcfc #000000 #000000;
#X obj 1202 209 bng 20 250 50 0 \$0_NEW_SO empty empty 0 -10 0 12 #fcfcfc #000000 #000000;
#X obj 1227 209 bng 20 250 50 0 \$0_SN_SO empty empty 0 -10 0 12 #fcfcfc #000000 #000000;
#X obj 1251 209 bng 20 250 50 0 \$0_SZ_SO empty empty 0 -10 0 12 #fcfcfc #000000 #000000;
#X obj 1080 236 bng 20 250 50 0 \$0_SM_SL empty empty 0 -10 0 12 #fcfcfc #000000 #000000;
#X obj 1105 236 bng 20 250 50 0 \$0_HC_SL empty empty 0 -10 0 12 #fcfcfc #000000 #000000;
#X obj 1130 236 bng 20 250 50 0 \$0_SO_SL empty empty 0 -10 0 12 #fcfcfc #000000 #000000;
#X obj 1154 236 bng 20 250 50 0 \$0_SL_SL empty empty 0 -10 0 12 #fcfcfc #000000 #000000;
#X obj 1177 236 bng 20 250 50 0 \$0_SLAtl_SL empty empty 0 -10 0 12 #fcfcfc #000000 #000000;
#X obj 1202 236 bng 20 250 50 0 \$0_NEW_SL empty empty 0 -10 0 12 #fcfcfc #000000 #000000;
#X obj 1227 236 bng 20 250 50 0 \$0_SN_SL empty empty 0 -10 0 12 #fcfcfc #000000 #000000;
#X obj 1251 236 bng 20 250 50 0 \$0_SZ_SL empty empty 0 -10 0 12 #fcfcfc #000000 #000000;
#X obj 1081 260 bng 20 250 50 0 \$0_SM_SLAtl empty empty 0 -10 0 12 #fcfcfc #000000 #000000;
#X obj 1106 260 bng 20 250 50 0 \$0_HC_SLAtl empty empty 0 -10 0 12 #fcfcfc #000000 #000000;
#X obj 1131 260 bng 20 250 50 0 \$0_SO_SLAtl empty empty 0 -10 0 12 #fcfcfc #000000 #000000;
#X obj 1155 260 bng 20 250 50 0 \$0_SL_SLAtl empty empty 0 -10 0 12 #fcfcfc #000000 #000000;
#X obj 1178 260 bng 20 250 50 0 \$0_SLAtl_SLAtl empty empty 0 -10 0 12 #fcfcfc #000000 #000000;
#X obj 1203 260 bng 20 250 50 0 \$0_NEW_SLAtl empty empty 0 -10 0 12 #fcfcfc #000000 #000000;
#X obj 1228 260 bng 20 250 50 0 \$0_SN_SLAtl empty empty 0 -10 0 12 #fcfcfc #000000 #000000;
#X obj 1252 260 bng 20 250 50 0 \$0_SZ_SLAtl empty empty 0 -10 0 12 #fcfcfc #000000 #000000;
#X obj 1081 286 bng 20 250 50 0 \$0_SM_NEW empty empty 0 -10 0 12 #fcfcfc #000000 #000000;
#X obj 1106 286 bng 20 250 50 0 \$0_HC_NEW empty empty 0 -10 0 12 #fcfcfc #000000 #000000;
#X obj 1131 286 bng 20 250 50 0 \$0_SO_NEW empty empty 0 -10 0 12 #fcfcfc #000000 #000000;
#X obj 1155 286 bng 20 250 50 0 \$0_SL_NEW empty empty 0 -10 0 12 #fcfcfc #000000 #000000;
#X obj 1178 286 bng 20 250 50 0 \$0_SLAtl_NEW empty empty 0 -10 0 12 #fcfcfc #000000 #000000;
#X obj 1203 286 bng 20 250 50 0 \$0_NEW_NEW empty empty 0 -10 0 12 #fcfcfc #000000 #000000;
#X obj 1228 286 bng 20 250 50 0 \$0_SN_NEW empty empty 0 -10 0 12 #fcfcfc #000000 #000000;
#X obj 1252 286 bng 20 250 50 0 \$0_SZ_NEW empty empty 0 -10 0 12 #fcfcfc #000000 #000000;
#X obj 1080 312 bng 20 250 50 0 \$0_SM_SN empty empty 0 -10 0 12 #fcfcfc #000000 #000000;
#X obj 1105 312 bng 20 250 50 0 \$0_HC_SN empty empty 0 -10 0 12 #fcfcfc #000000 #000000;
#X obj 1130 312 bng 20 250 50 0 \$0_SO_SN empty empty 0 -10 0 12 #fcfcfc #000000 #000000;
#X obj 1154 312 bng 20 250 50 0 \$0_SL_SN empty empty 0 -10 0 12 #fcfcfc #000000 #000000;
#X obj 1177 312 bng 20 250 50 0 \$0_SLAtl_SN empty empty 0 -10 0 12 #fcfcfc #000000 #000000;
#X obj 1202 312 bng 20 250 50 0 \$0_NEW_SN empty empty 0 -10 0 12 #fcfcfc #000000 #000000;
#X obj 1227 312 bng 20 250 50 0 \$0_SN_SN empty empty 0 -10 0 12 #fcfcfc #000000 #000000;
#X obj 1251 312 bng 20 250 50 0 \$0_SZ_SN empty empty 0 -10 0 12 #fcfcfc #000000 #000000;
#X obj 1080 337 bng 20 250 50 0 \$0_SM_SZ empty empty 0 -10 0 12 #fcfcfc #000000 #000000;
#X obj 1105 337 bng 20 250 50 0 \$0_HC_SZ empty empty 0 -10 0 12 #fcfcfc #000000 #000000;
#X obj 1130 337 bng 20 250 50 0 \$0_SO_SZ empty empty 0 -10 0 12 #fcfcfc #000000 #000000;
#X obj 1154 337 bng 20 250 50 0 \$0_SL_SZ empty empty 0 -10 0 12 #fcfcfc #000000 #000000;
#X obj 1177 337 bng 20 250 50 0 \$0_SLAtl_SZ empty empty 0 -10 0 12 #fcfcfc #000000 #000000;
#X obj 1202 337 bng 20 250 50 0 \$0_NEW_SZ empty empty 0 -10 0 12 #fcfcfc #000000 #000000;
#X obj 1227 337 bng 20 250 50 0 \$0_SN_SZ empty empty 0 -10 0 12 #fcfcfc #000000 #000000;
#X obj 1251 337 bng 20 250 50 0 \$0_SZ_SZ empty empty 0 -10 0 12 #fcfcfc #000000 #000000;
#X text 1077 130 SM;
#X text 1102 130 HC;
#X text 1127 129 SO;
#X text 1148 129 SL;
#X text 1203 130 NEW;
#X text 1231 130 SN;
#X text 1252 130 SZ;
#X text 1169 130 SLAt;
#X text 1000 337 SCORE;
#X msg 69 63 set \$1;
#X msg 181 66 set \$1;
#X msg 311 62 set \$1;
#X msg 450 64 set \$1;
#X obj 784 474 symbol;
#X obj 1401 288 metro 50;
#X obj 1423 261 loadbang;
#X obj 1389 257 bng 20 250 50 0 empty empty empty 0 -10 0 12 #fcfcfc #000000 #000000;
#X floatatom 1348 383 5 0 0 0 - - \$0_scale_note_1 0;
#X obj 1348 352 tabread \$0_SCALE;
#X msg 1348 319 0;
#X text 1519 365 Stop;
#X floatatom 1510 331 5 0 0 0 - - \$0_scale_note_2 0;
#X obj 1510 300 tabread \$0_SCALE;
#X msg 1510 267 1;
#X floatatom 1651 371 5 0 0 0 - - \$0_scale_note_3 0;
#X obj 1651 340 tabread \$0_SCALE;
#X msg 1651 307 2;
#X floatatom 1781 371 5 0 0 0 - - \$0_scale_note_4 0;
#X obj 1781 340 tabread \$0_SCALE;
#X floatatom 1911 377 5 0 0 0 - - \$0_scale_note_5 0;
#X obj 1911 346 tabread \$0_SCALE;
#X msg 1781 307 3;
#X msg 1911 313 4;
#X obj 2068 252 text define -k presets;
#A set preset1 \; 0 \; 0 \; 0 \; 0 \; SLAtl \; SO \; 5.57143 \; 5.74286 \; 5.74286 \; 5.74286 \; 5.57143 \;;
#X obj 1972 449 r \$0_attack;
#X obj 2059 451 r \$0_release;
#X obj 2154 450 r \$0_duration;
#X obj 1908 451 r \$0_vol;
#X obj 2010 481 t b f;
#X obj 2059 489 t b f;
#X obj 2154 503 t b f;
#X obj 2250 104 bng 20 250 50 0 empty empty save 0 -10 0 12 #fcfcfc #000000 #000000;
#X obj 2068 72 bng 20 250 50 0 empty empty Load 0 -10 0 12 #fcfcfc #000000 #000000;
#X obj 2068 188 bng 20 250 50 0 empty empty empty 0 -10 0 12 #fcfcfc #000000 #000000;
#X obj 69 26 r \$0_vol_label;
#X obj 181 26 r \$0_attack_label;
#X obj 311 26 r \$0_release_label;
#X obj 450 26 r \$0_duration_label;
#X obj 2068 28 loadbang, f 10;
#X obj 2250 29 inlet;
#X obj 2018 29 inlet;
#X obj 2264 476 symbol;
#X obj 2264 501 t b s;
#X obj 2328 477 symbol;
#X obj 2264 452 r \$0_wf;
#X obj 2328 452 r \$0_sc;
#X obj 2328 504 t b s;
#X msg 778 700 SM;
#N canvas 291 108 975 475 parser 0;
#X obj 1106 63 inlet;
#X obj 70 165 t b p;
#X obj 70 217 text get -s text t;
#X obj 70 242 list trim;
#X floatatom 70 274 5 0 0 0 - - - 0;
#X msg 70 192 1;
#X obj 207 164 t b p;
#X obj 207 216 text get -s text t;
#X obj 207 241 list trim;
#X floatatom 207 280 5 0 0 0 - - - 0;
#X msg 207 191 2;
#X obj 346 169 t b p;
#X obj 346 221 text get -s text t;
#X obj 346 246 list trim;
#X floatatom 346 285 5 0 0 0 - - - 0;
#X obj 489 173 t b p;
#X obj 489 225 text get -s text t;
#X obj 489 250 list trim;
#X floatatom 489 289 5 0 0 0 - - - 0;
#X msg 346 196 3;
#X msg 489 200 4;
#X obj 70 334 s \$0_vol_label;
#X obj 207 334 s \$0_attack_label;
#X obj 346 332 s \$0_release_label;
#X obj 489 332 s \$0_duration_label;
#X obj 639 180 t b p;
#X obj 639 232 text get -s text t;
#X obj 639 257 list trim;
#X obj 791 180 t b p;
#X obj 791 232 text get -s text t;
#X obj 791 257 list trim;
#X msg 636 206 5;
#X msg 794 210 6;
#X obj 639 293 symbol;
#X obj 791 286 symbol;
#X obj 734 385 s \$0_processed;
#X msg 642 331 waveform \$1;
#X msg 754 331 score \$1;
#N canvas 260 62 975 481 color 0;
#X obj 557 13 inlet;
#X msg 176 108 color #602DF7;
#X msg 54 102 color #14C5EC;
#X msg 299 110 color #253BF5;
#X msg 424 110 color #3C8A14;
#X msg 540 109 color #245310;
#X msg 648 110 color #e21414;
#X msg 754 109 color #ffd700;
#X msg 861 109 color #f57c00;
#X obj 572 205 s \$0_processed;
#X obj 231 63 select SM;
#X obj 326 62 select HC;
#X obj 416 64 select SO;
#X obj 505 66 select SL;
#X obj 581 64 select SLAtl;
#X obj 675 65 select NEW;
#X obj 757 64 select SN;
#X obj 846 64 select SZ;
#X msg 438 25 symbol \$1;
#X connect 0 0 18 0;
#X connect 1 0 9 0;
#X connect 2 0 9 0;
#X connect 3 0 9 0;
#X connect 4 0 9 0;
#X connect 5 0 9 0;
#X connect 6 0 9 0;
#X connect 7 0 9 0;
#X connect 8 0 9 0;
#X connect 10 0 2 0;
#X connect 11 0 1 0;
#X connect 12 0 3 0;
#X connect 13 0 4 0;
#X connect 14 0 5 0;
#X connect 15 0 6 0;
#X connect 16 0 7 0;
#X connect 17 0 8 0;
#X connect 18 0 10 0;
#X connect 18 0 11 0;
#X connect 18 0 12 0;
#X connect 18 0 13 0;
#X connect 18 0 14 0;
#X connect 18 0 15 0;
#X connect 18 0 16 0;
#X connect 18 0 17 0;
#X restore 584 387 pd color processing;
#X obj 946 184 t b p;
#X obj 946 236 text get -s text t;
#X obj 946 261 list trim;
#X floatatom 946 293 5 0 0 0 - - - 0;
#X obj 1107 189 t b p;
#X obj 1107 241 text get -s text t;
#X obj 1107 266 list trim;
#X obj 1250 187 t b p;
#X obj 1250 239 text get -s text t;
#X obj 1250 264 list trim;
#X obj 1400 190 t b p;
#X obj 1400 242 text get -s text t;
#X obj 1400 267 list trim;
#X obj 1540 189 t b p;
#X obj 1540 241 text get -s text t;
#X obj 1540 266 list trim;
#X msg 946 211 7;
#X msg 1107 216 8;
#X msg 1250 214 9;
#X msg 1400 217 10;
#X msg 1540 216 11;
#X msg 999 340 0;
#X obj 999 313 loadbang;
#X obj 946 370 tabwrite \$0_SCALE;
#X obj 1155 317 loadbang;
#X obj 1102 374 tabwrite \$0_SCALE;
#X obj 1310 321 loadbang;
#X obj 1257 378 tabwrite \$0_SCALE;
#X obj 1449 325 loadbang;
#X obj 1396 382 tabwrite \$0_SCALE;
#X obj 1587 320 loadbang;
#X obj 1534 377 tabwrite \$0_SCALE;
#X msg 1155 344 1;
#X msg 1310 348 2;
#X msg 1449 352 3;
#X msg 1587 347 4;
#X connect 0 0 1 0;
#X connect 0 0 6 0;
#X connect 0 0 11 0;
#X connect 0 0 15 0;
#X connect 0 0 25 0;
#X connect 0 0 28 0;
#X connect 0 0 39 0;
#X connect 0 0 43 0;
#X connect 0 0 46 0;
#X connect 0 0 49 0;
#X connect 0 0 52 0;
#X connect 1 0 5 0;
#X connect 1 1 2 3;
#X connect 2 0 3 0;
#X connect 3 0 4 0;
#X connect 4 0 21 0;
#X connect 5 0 2 0;
#X connect 6 0 10 0;
#X connect 6 1 7 3;
#X connect 7 0 8 0;
#X connect 8 0 9 0;
#X connect 9 0 22 0;
#X connect 10 0 7 0;
#X connect 11 0 19 0;
#X connect 11 1 12 3;
#X connect 12 0 13 0;
#X connect 13 0 14 0;
#X connect 14 0 23 0;
#X connect 15 0 20 0;
#X connect 15 1 16 3;
#X connect 16 0 17 0;
#X connect 17 0 18 0;
#X connect 18 0 24 0;
#X connect 19 0 12 0;
#X connect 20 0 16 0;
#X connect 25 0 31 0;
#X connect 25 1 26 3;
#X connect 26 0 27 0;
#X connect 27 0 33 0;
#X connect 28 0 32 0;
#X connect 28 1 29 3;
#X connect 29 0 30 0;
#X connect 30 0 34 0;
#X connect 31 0 26 0;
#X connect 32 0 29 0;
#X connect 33 0 36 0;
#X connect 34 0 37 0;
#X connect 36 0 35 0;
#X connect 36 0 38 0;
#X connect 37 0 35 0;
#X connect 39 0 55 0;
#X connect 39 1 40 3;
#X connect 40 0 41 0;
#X connect 41 0 42 0;
#X connect 42 0 62 0;
#X connect 43 0 56 0;
#X connect 43 1 44 3;
#X connect 44 0 45 0;
#X connect 45 0 64 0;
#X connect 46 0 57 0;
#X connect 46 1 47 3;
#X connect 47 0 48 0;
#X connect 48 0 66 0;
#X connect 49 0 58 0;
#X connect 49 1 50 3;
#X connect 50 0 51 0;
#X connect 51 0 68 0;
#X connect 52 0 59 0;
#X connect 52 1 53 3;
#X connect 53 0 54 0;
#X connect 54 0 70 0;
#X connect 55 0 40 0;
#X connect 56 0 44 0;
#X connect 57 0 47 0;
#X connect 58 0 50 0;
#X connect 59 0 53 0;
#X connect 60 0 62 1;
#X connect 61 0 60 0;
#X connect 63 0 71 0;
#X connect 65 0 72 0;
#X connect 67 0 73 0;
#X connect 69 0 74 0;
#X connect 71 0 64 1;
#X connect 72 0 66 1;
#X connect 73 0 68 1;
#X connect 74 0 70 1;
#X restore 2083 296 pd parser;
#X obj 2298 29 inlet;
#X floatatom 2298 68 5 0 0 0 - - - 0;
#X obj 2250 142 f;
#X obj 2100 139 f;
#X obj 2060 620 spigot;
#X obj 2103 586 tgl 20 0 empty empty empty 0 -10 0 12 #fcfcfc #000000 #000000 0 1;
#X obj 2087 559 loadbang;
#X msg 2041 552 1;
#X obj 2068 103 t b b b b;
#X floatatom 2261 301 5 0 0 0 - \$0_scale_note_1 - 0;
#X obj 2243 371 t b f;
#X obj 2186 320 change;
#X obj 2243 344 f;
#X floatatom 2368 312 5 0 0 0 - \$0_scale_note_2 - 0;
#X obj 2350 382 t b f;
#X obj 2293 331 change;
#X obj 2350 355 f;
#X obj 2208 573 pack f f f f s s f f f f f;
#X floatatom 2460 321 5 0 0 0 - \$0_scale_note_3 - 0;
#X obj 2442 391 t b f;
#X obj 2385 340 change;
#X obj 2442 364 f;
#X floatatom 2567 331 5 0 0 0 - \$0_scale_note_4 - 0;
#X obj 2549 401 t b f;
#X obj 2492 350 change;
#X obj 2549 374 f;
#X floatatom 2675 342 5 0 0 0 - \$0_scale_note_5 - 0;
#X obj 2657 412 t b f;
#X obj 2600 361 change;
#X obj 2657 385 f;
#X msg 1964 653 set preset1 \\\; \$1 \\\; \$2 \\\; \$3 \\\; \$4 \\\; \$5 \\\; \$6 \\\; \$7 \\\; \$8 \\\; \$9 \\\; \$10 \\\; \$11 \\\;;
#X obj 2361 81 inlet;
#X msg 2254 213 write presets\$1\$2.txt;
#X obj 2254 180 pack f f;
#X msg 2102 198 read presets\$1\$2.txt;
#X obj 2133 166 pack f f;
#N canvas 61 116 1067 446 note_names 0;
#X floatatom 69 15 5 0 0 0 - \$0_scale_note_1 - 0;
#X obj 69 42 % 12;
#X floatatom 144 56 5 0 0 0 - - - 0;
#N canvas 139 107 450 300 note_name 0;
#X obj 40 166 inlet;
#X obj 69 208 select 0 1 2 3 4 5 6 7 8 9 10 11;
#X obj 43 348 outlet;
#X msg 42 279 symbol C;
#X msg 218 271 symbol D;
#X msg 394 271 symbol E;
#X msg 114 278 symbol C#/Db;
#X msg 291 273 symbol D#/Eb;
#X msg 478 272 symbol F;
#X msg 554 271 symbol F#/Gb;
#X msg 659 268 symbol G;
#X msg 740 265 symbol A;
#X msg 812 264 symbol A#/Bb;
#X msg 910 264 symbol B;
#X msg 981 264 symbol C;
#X connect 0 0 1 0;
#X connect 1 0 3 0;
#X connect 1 1 6 0;
#X connect 1 2 4 0;
#X connect 1 3 7 0;
#X connect 1 4 5 0;
#X connect 1 5 8 0;
#X connect 1 6 9 0;
#X connect 1 8 10 0;
#X connect 1 9 11 0;
#X connect 1 10 12 0;
#X connect 1 11 13 0;
#X connect 1 12 14 0;
#X connect 3 0 2 0;
#X connect 4 0 2 0;
#X connect 5 0 2 0;
#X connect 6 0 2 0;
#X connect 7 0 2 0;
#X connect 8 0 2 0;
#X connect 9 0 2 0;
#X connect 10 0 2 0;
#X connect 11 0 2 0;
#X connect 12 0 2 0;
#X connect 13 0 2 0;
#X restore 101 143 pd note_name;
#X obj 102 179 outlet;
#X floatatom 249 14 5 0 0 0 - \$0_scale_note_2 - 0;
#X obj 249 41 % 12;
#X floatatom 324 55 5 0 0 0 - - - 0;
#N canvas 139 107 450 300 note_name 0;
#X obj 40 166 inlet;
#X obj 69 208 select 0 1 2 3 4 5 6 7 8 9 10 11;
#X obj 43 348 outlet;
#X msg 42 279 symbol C;
#X msg 218 271 symbol D;
#X msg 394 271 symbol E;
#X msg 114 278 symbol C#/Db;
#X msg 291 273 symbol D#/Eb;
#X msg 478 272 symbol F;
#X msg 554 271 symbol F#/Gb;
#X msg 659 268 symbol G;
#X msg 740 265 symbol A;
#X msg 812 264 symbol A#/Bb;
#X msg 910 264 symbol B;
#X msg 981 264 symbol C;
#X connect 0 0 1 0;
#X connect 1 0 3 0;
#X connect 1 1 6 0;
#X connect 1 2 4 0;
#X connect 1 3 7 0;
#X connect 1 4 5 0;
#X connect 1 5 8 0;
#X connect 1 6 9 0;
#X connect 1 8 10 0;
#X connect 1 9 11 0;
#X connect 1 10 12 0;
#X connect 1 11 13 0;
#X connect 1 12 14 0;
#X connect 3 0 2 0;
#X connect 4 0 2 0;
#X connect 5 0 2 0;
#X connect 6 0 2 0;
#X connect 7 0 2 0;
#X connect 8 0 2 0;
#X connect 9 0 2 0;
#X connect 10 0 2 0;
#X connect 11 0 2 0;
#X connect 12 0 2 0;
#X connect 13 0 2 0;
#X restore 281 142 pd note_name;
#X obj 282 178 outlet;
#X floatatom 419 19 5 0 0 0 - \$0_scale_note_3 - 0;
#X obj 419 46 % 12;
#X floatatom 494 60 5 0 0 0 - - - 0;
#N canvas 139 107 450 300 note_name 0;
#X obj 40 166 inlet;
#X obj 69 208 select 0 1 2 3 4 5 6 7 8 9 10 11;
#X obj 43 348 outlet;
#X msg 42 279 symbol C;
#X msg 218 271 symbol D;
#X msg 394 271 symbol E;
#X msg 114 278 symbol C#/Db;
#X msg 291 273 symbol D#/Eb;
#X msg 478 272 symbol F;
#X msg 554 271 symbol F#/Gb;
#X msg 659 268 symbol G;
#X msg 740 265 symbol A;
#X msg 812 264 symbol A#/Bb;
#X msg 910 264 symbol B;
#X msg 981 264 symbol C;
#X connect 0 0 1 0;
#X connect 1 0 3 0;
#X connect 1 1 6 0;
#X connect 1 2 4 0;
#X connect 1 3 7 0;
#X connect 1 4 5 0;
#X connect 1 5 8 0;
#X connect 1 6 9 0;
#X connect 1 8 10 0;
#X connect 1 9 11 0;
#X connect 1 10 12 0;
#X connect 1 11 13 0;
#X connect 1 12 14 0;
#X connect 3 0 2 0;
#X connect 4 0 2 0;
#X connect 5 0 2 0;
#X connect 6 0 2 0;
#X connect 7 0 2 0;
#X connect 8 0 2 0;
#X connect 9 0 2 0;
#X connect 10 0 2 0;
#X connect 11 0 2 0;
#X connect 12 0 2 0;
#X connect 13 0 2 0;
#X restore 451 147 pd note_name;
#X obj 452 183 outlet;
#X floatatom 600 18 5 0 0 0 - \$0_scale_note_4 - 0;
#X obj 600 45 % 12;
#X floatatom 675 59 5 0 0 0 - - - 0;
#N canvas 139 107 450 300 note_name 0;
#X obj 40 166 inlet;
#X obj 69 208 select 0 1 2 3 4 5 6 7 8 9 10 11;
#X obj 43 348 outlet;
#X msg 42 279 symbol C;
#X msg 218 271 symbol D;
#X msg 394 271 symbol E;
#X msg 114 278 symbol C#/Db;
#X msg 291 273 symbol D#/Eb;
#X msg 478 272 symbol F;
#X msg 554 271 symbol F#/Gb;
#X msg 659 268 symbol G;
#X msg 740 265 symbol A;
#X msg 812 264 symbol A#/Bb;
#X msg 910 264 symbol B;
#X msg 981 264 symbol C;
#X connect 0 0 1 0;
#X connect 1 0 3 0;
#X connect 1 1 6 0;
#X connect 1 2 4 0;
#X connect 1 3 7 0;
#X connect 1 4 5 0;
#X connect 1 5 8 0;
#X connect 1 6 9 0;
#X connect 1 8 10 0;
#X connect 1 9 11 0;
#X connect 1 10 12 0;
#X connect 1 11 13 0;
#X connect 1 12 14 0;
#X connect 3 0 2 0;
#X connect 4 0 2 0;
#X connect 5 0 2 0;
#X connect 6 0 2 0;
#X connect 7 0 2 0;
#X connect 8 0 2 0;
#X connect 9 0 2 0;
#X connect 10 0 2 0;
#X connect 11 0 2 0;
#X connect 12 0 2 0;
#X connect 13 0 2 0;
#X restore 632 146 pd note_name;
#X obj 633 182 outlet;
#X floatatom 789 19 5 0 0 0 - \$0_scale_note_5 - 0;
#X obj 789 46 % 12;
#X floatatom 864 60 5 0 0 0 - - - 0;
#N canvas 139 107 450 300 note_name 0;
#X obj 40 166 inlet;
#X obj 69 208 select 0 1 2 3 4 5 6 7 8 9 10 11;
#X obj 43 348 outlet;
#X msg 42 279 symbol C;
#X msg 218 271 symbol D;
#X msg 394 271 symbol E;
#X msg 114 278 symbol C#/Db;
#X msg 291 273 symbol D#/Eb;
#X msg 478 272 symbol F;
#X msg 554 271 symbol F#/Gb;
#X msg 659 268 symbol G;
#X msg 740 265 symbol A;
#X msg 812 264 symbol A#/Bb;
#X msg 910 264 symbol B;
#X msg 981 264 symbol C;
#X connect 0 0 1 0;
#X connect 1 0 3 0;
#X connect 1 1 6 0;
#X connect 1 2 4 0;
#X connect 1 3 7 0;
#X connect 1 4 5 0;
#X connect 1 5 8 0;
#X connect 1 6 9 0;
#X connect 1 8 10 0;
#X connect 1 9 11 0;
#X connect 1 10 12 0;
#X connect 1 11 13 0;
#X connect 1 12 14 0;
#X connect 3 0 2 0;
#X connect 4 0 2 0;
#X connect 5 0 2 0;
#X connect 6 0 2 0;
#X connect 7 0 2 0;
#X connect 8 0 2 0;
#X connect 9 0 2 0;
#X connect 10 0 2 0;
#X connect 11 0 2 0;
#X connect 12 0 2 0;
#X connect 13 0 2 0;
#X restore 821 147 pd note_name;
#X obj 822 183 outlet;
#X connect 0 0 1 0;
#X connect 1 0 2 0;
#X connect 2 0 3 0;
#X connect 3 0 4 0;
#X connect 5 0 6 0;
#X connect 6 0 7 0;
#X connect 7 0 8 0;
#X connect 8 0 9 0;
#X connect 10 0 11 0;
#X connect 11 0 12 0;
#X connect 12 0 13 0;
#X connect 13 0 14 0;
#X connect 15 0 16 0;
#X connect 16 0 17 0;
#X connect 17 0 18 0;
#X connect 18 0 19 0;
#X connect 20 0 21 0;
#X connect 21 0 22 0;
#X connect 22 0 23 0;
#X connect 23 0 24 0;
#X restore 942 415 pd note_names;
#X obj 759 280 cnv 20 250 49 empty empty empty 20 12 0 12 #e0e0e0 #404040 0;
#X symbolatom 767 294 6 0 0 0 - - - 0;
#X symbolatom 811 294 6 0 0 0 - - - 0;
#X symbolatom 856 293 6 0 0 0 - - - 0;
#X symbolatom 901 294 6 0 0 0 - - - 0;
#X symbolatom 948 295 6 0 0 0 - - - 0;
#X connect 1 0 71 0;
#X connect 2 0 1 0;
#X connect 2 1 1 1;
#X connect 3 0 2 0;
#X connect 5 0 6 0;
#X connect 6 0 8 0;
#X connect 7 0 9 0;
#X connect 8 1 7 1;
#X connect 9 0 11 0;
#X connect 10 0 12 0;
#X connect 11 0 10 0;
#X connect 11 0 13 0;
#X connect 12 0 11 1;
#X connect 13 0 66 0;
#X connect 13 0 115 0;
#X connect 14 0 16 0;
#X connect 15 0 11 1;
#X connect 16 0 17 0;
#X connect 17 0 18 0;
#X connect 18 0 19 0;
#X connect 19 0 20 0;
#X connect 20 0 21 0;
#X connect 21 0 31 0;
#X connect 21 0 36 0;
#X connect 23 0 7 0;
#X connect 25 0 15 0;
#X connect 26 0 29 0;
#X connect 28 0 23 0;
#X connect 29 0 5 0;
#X connect 31 0 32 0;
#X connect 32 0 40 0;
#X connect 33 0 49 0;
#X connect 34 0 73 0;
#X connect 35 0 41 0;
#X connect 36 0 37 0;
#X connect 37 0 39 0;
#X connect 38 0 43 0;
#X connect 39 0 38 0;
#X connect 40 0 35 0;
#X connect 41 0 34 0;
#X connect 42 0 74 0;
#X connect 42 1 74 1;
#X connect 43 0 49 1;
#X connect 44 0 42 0;
#X connect 45 0 42 0;
#X connect 46 0 42 0;
#X connect 47 0 42 0;
#X connect 48 0 42 0;
#X connect 49 0 67 0;
#X connect 50 0 48 0;
#X connect 50 0 47 0;
#X connect 50 0 46 0;
#X connect 50 0 45 0;
#X connect 50 0 44 0;
#X connect 52 0 53 0;
#X connect 53 0 60 1;
#X connect 54 0 65 0;
#X connect 54 0 82 0;
#X connect 55 0 63 0;
#X connect 55 0 80 0;
#X connect 56 0 57 0;
#X connect 57 0 58 0;
#X connect 58 0 75 0;
#X connect 58 1 60 0;
#X connect 58 1 77 1;
#X connect 58 1 80 1;
#X connect 58 1 82 1;
#X connect 59 0 61 0;
#X connect 60 0 63 1;
#X connect 60 0 65 1;
#X connect 61 0 52 0;
#X connect 62 0 51 0;
#X connect 63 0 62 0;
#X connect 64 0 51 0;
#X connect 65 0 64 0;
#X connect 66 0 14 0;
#X connect 67 0 68 0;
#X connect 68 0 2 0;
#X connect 69 0 7 0;
#X connect 71 0 0 0;
#X connect 71 0 109 0;
#X connect 72 0 71 1;
#X connect 73 0 33 0;
#X connect 75 0 55 0;
#X connect 75 1 54 0;
#X connect 75 2 77 0;
#X connect 77 0 79 0;
#X connect 78 0 56 0;
#X connect 79 0 76 0;
#X connect 80 0 81 0;
#X connect 82 0 83 0;
#X connect 85 0 106 0;
#X connect 85 0 108 0;
#X connect 86 0 107 0;
#X connect 86 0 94 0;
#X connect 87 0 109 0;
#X connect 88 0 89 0;
#X connect 88 0 90 0;
#X connect 89 0 88 1;
#X connect 90 0 112 0;
#X connect 91 0 88 0;
#X connect 92 0 105 0;
#X connect 93 0 104 0;
#X connect 94 0 109 0;
#X connect 97 0 96 0;
#X connect 98 0 97 0;
#X connect 99 0 103 0;
#X connect 100 0 99 1;
#X connect 101 0 98 1;
#X connect 101 0 102 0;
#X connect 102 0 100 0;
#X connect 103 0 96 0;
#X connect 104 0 98 0;
#X connect 104 0 99 0;
#X connect 104 1 101 0;
#X connect 105 0 93 0;
#X connect 106 0 92 0;
#X connect 107 0 92 0;
#X connect 107 0 103 0;
#X connect 108 0 87 0;
#X connect 108 1 88 0;
#X connect 110 0 221 0;
#X connect 111 0 109 0;
#X connect 112 0 111 0;
#X connect 115 0 113 0;
#X connect 116 0 56 0;
#X connect 217 0 118 0;
#X connect 218 0 119 0;
#X connect 219 0 120 0;
#X connect 220 0 121 0;
#X connect 221 0 112 1;
#X connect 222 0 227 0;
#X connect 222 0 231 0;
#X connect 222 0 234 0;
#X connect 222 0 239 0;
#X connect 222 0 240 0;
#X connect 223 0 222 0;
#X connect 224 0 222 0;
#X connect 226 0 225 0;
#X connect 227 0 226 0;
#X connect 230 0 229 0;
#X connect 231 0 230 0;
#X connect 233 0 232 0;
#X connect 234 0 233 0;
#X connect 236 0 235 0;
#X connect 238 0 237 0;
#X connect 239 0 236 0;
#X connect 240 0 238 0;
#X connect 241 0 266 0;
#X connect 242 0 246 0;
#X connect 243 0 247 0;
#X connect 244 0 248 0;
#X connect 245 0 284 0;
#X connect 246 0 284 0;
#X connect 246 1 284 1;
#X connect 247 0 284 0;
#X connect 247 1 284 2;
#X connect 248 0 284 0;
#X connect 248 1 284 3;
#X connect 249 0 269 0;
#X connect 250 0 275 0;
#X connect 251 0 241 0;
#X connect 252 0 217 0;
#X connect 253 0 218 0;
#X connect 254 0 219 0;
#X connect 255 0 220 0;
#X connect 256 0 250 0;
#X connect 257 0 249 0;
#X connect 258 0 250 0;
#X connect 259 0 260 0;
#X connect 260 0 284 0;
#X connect 260 1 284 4;
#X connect 261 0 264 0;
#X connect 262 0 259 0;
#X connect 263 0 261 0;
#X connect 264 0 284 0;
#X connect 264 1 284 5;
#X connect 267 0 268 0;
#X connect 268 0 269 1;
#X connect 268 0 270 1;
#X connect 269 0 300 0;
#X connect 270 0 302 0;
#X connect 271 0 297 0;
#X connect 272 0 271 1;
#X connect 273 0 274 0;
#X connect 274 0 272 0;
#X connect 275 0 272 0;
#X connect 275 1 251 0;
#X connect 275 2 270 0;
#X connect 275 3 272 0;
#X connect 276 0 279 1;
#X connect 276 0 278 0;
#X connect 277 0 284 0;
#X connect 277 1 284 6;
#X connect 278 0 279 0;
#X connect 279 0 277 0;
#X connect 280 0 283 1;
#X connect 280 0 282 0;
#X connect 281 0 284 0;
#X connect 281 1 284 7;
#X connect 282 0 283 0;
#X connect 283 0 281 0;
#X connect 284 0 271 0;
#X connect 285 0 288 1;
#X connect 285 0 287 0;
#X connect 286 0 284 0;
#X connect 286 1 284 8;
#X connect 287 0 288 0;
#X connect 288 0 286 0;
#X connect 289 0 292 1;
#X connect 289 0 291 0;
#X connect 290 0 284 0;
#X connect 290 1 284 9;
#X connect 291 0 292 0;
#X connect 292 0 290 0;
#X connect 293 0 296 1;
#X connect 293 0 295 0;
#X connect 294 0 284 0;
#X connect 294 1 284 10;
#X connect 295 0 296 0;
#X connect 296 0 294 0;
#X connect 297 0 241 0;
#X connect 298 0 300 1;
#X connect 298 0 302 1;
#X connect 299 0 241 0;
#X connect 300 0 299 0;
#X connect 301 0 241 0;
#X connect 302 0 301 0;
#X connect 303 0 305 0;
#X connect 303 1 306 0;
#X connect 303 2 307 0;
#X connect 303 3 308 0;
#X connect 303 4 309 0;
#X coords 0 -1 1 1 1200 280 2 100 100;
